GeoramaExtraCondensed-ExtraLightItalic.ufo
<glyph name="exclam" format="2">
  <advance width="119.93"/>
  <unicode hex="0021"/>
  <outline>
    <contour>
      <point x="43.48" y="263.55" type="line"/>
      <point x="72.64" y="263.55" type="line"/>
      <point x="149.44" y="740.0" type="line"/>
      <point x="117.85" y="740.0" type="line"/>
    </contour>
    <contour>
      <point x="-1.25" y="15.129999999999999" type="curve" smooth="yes"/>
      <point x="-2.16" y="3.26"/>
      <point x="0.8200000000000001" y="-0.8999999999999999"/>
      <point x="15.33" y="-0.8999999999999999" type="curve" smooth="yes"/>
      <point x="37.54" y="-0.8999999999999999"/>
      <point x="39.79" y="8.559999999999999"/>
      <point x="42.519999999999996" y="35.16" type="curve" smooth="yes"/>
      <point x="43.43" y="47.94"/>
      <point x="38.629999999999995" y="51.19"/>
      <point x="25.03" y="51.19" type="curve" smooth="yes"/>
      <point x="4.82" y="51.19"/>
      <point x="1.48" y="41.91"/>
    </contour>
  </outline>
</glyph>
<glyph name="numbersign" format="2">
  <advance width="265.3"/>
  <unicode hex="0023"/>
  <outline>
    <contour>
      <point x="66.54" y="476.36" type="line"/>
      <point x="118.74" y="476.36" type="line"/>
      <point x="52.42" y="224.38" type="line"/>
      <point x="5.32" y="224.38" type="line"/>
      <point x="-0.5700000000000003" y="193.69" type="line"/>
      <point x="44.99" y="193.69" type="line"/>
      <point x="-6.67" y="0.0" type="line"/>
      <point x="22.61" y="0.0" type="line"/>
      <point x="73.36" y="193.69" type="line"/>
      <point x="136.67" y="193.69" type="line"/>
      <point x="85.92" y="0.0" type="line"/>
      <point x="114.2" y="0.0" type="line"/>
      <point x="164.95" y="193.69" type="line"/>
      <point x="218.6" y="193.69" type="line"/>
      <point x="223.58" y="224.38" type="line"/>
      <point x="172.38" y="224.38" type="line"/>
      <point x="238.7" y="476.36" type="line"/>
      <point x="284.8" y="476.36" type="line"/>
      <point x="289.87" y="507.23" type="line"/>
      <point x="246.13" y="507.23" type="line"/>
      <point x="297.15" y="700.0" type="line"/>
      <point x="268.78" y="700.0" type="line"/>
      <point x="217.76" y="507.23" type="line"/>
      <point x="154.45" y="507.23" type="line"/>
      <point x="205.47" y="700.0" type="line"/>
      <point x="177.19" y="700.0" type="line"/>
      <point x="126.17" y="507.23" type="line"/>
      <point x="71.61" y="507.23" type="line"/>
    </contour>
    <contour>
      <point x="147.02" y="476.36" type="line"/>
      <point x="210.33" y="476.36" type="line"/>
      <point x="144.1" y="224.38" type="line"/>
      <point x="80.78999999999999" y="224.38" type="line"/>
    </contour>
  </outline>
</glyph>
<glyph name="dollar" format="2">
  <advance width="265.3"/>
  <unicode hex="0024"/>
  <outline>
    <contour>
      <point x="274.12" y="694.02" type="line"/>
      <point x="261.58" y="701.56"/>
      <point x="243.14" y="708.1"/>
      <point x="219.88" y="709.64" type="curve"/>
      <point x="234.88" y="804.82" type="line"/>
      <point x="205.36" y="804.82" type="line"/>
      <point x="189.18" y="707.56" type="line"/>
      <point x="98.72" y="698.22"/>
      <point x="74.56" y="594.74"/>
      <point x="74.56" y="526.76" type="curve" smooth="yes"/>
      <point x="74.56" y="390.08"/>
      <point x="174.96" y="292.02"/>
      <point x="174.96" y="170.42" type="curve" smooth="yes"/>
      <point x="174.96" y="100.84"/>
      <point x="142.22" y="23.14"/>
      <point x="67.18" y="23.14" type="curve" smooth="yes"/>
      <point x="41.28" y="23.14"/>
      <point x="19.02" y="26.68"/>
      <point x="-2.3200000000000003" y="38.58" type="curve"/>
      <point x="-17.28" y="8.34" type="line"/>
      <point x="-2.84" y="-0.56"/>
      <point x="22.06" y="-8.1"/>
      <point x="50.06" y="-9.46" type="curve"/>
      <point x="35.06" y="-105.0" type="line"/>
      <point x="64.58" y="-105.0" type="line"/>
      <point x="79.58" y="-8.28" type="line"/>
      <point x="176.12" y="0.6999999999999997"/>
      <point x="207.74" y="99.98"/>
      <point x="207.74" y="175.06" type="curve" smooth="yes"/>
      <point x="207.74" y="310.92"/>
      <point x="108.06" y="406.26"/>
      <point x="108.06" y="528.22" type="curve" smooth="yes"/>
      <point x="108.06" y="590.16"/>
      <point x="133.7" y="677.96"/>
      <point x="205.46" y="677.96" type="curve" smooth="yes"/>
      <point x="230.38" y="677.96"/>
      <point x="243.18" y="673.96"/>
      <point x="260.16" y="665.24" type="curve"/>
    </contour>
  </outline>
</glyph>
<glyph name="ampersand" format="2">
  <advance width="333.74"/>
  <unicode hex="0026"/>
  <outline>
    <contour>
      <point x="113.35" y="-10.0" type="curve" smooth="yes"/>
      <point x="212.46" y="-10.0"/>
      <point x="297.53" y="157.64"/>
      <point x="271.39" y="294.09" type="curve"/>
      <point x="243.31" y="296.2" type="line"/>
      <point x="270.45" y="180.24"/>
      <point x="194.71" y="20.689999999999998"/>
      <point x="117.6" y="20.689999999999998" type="curve" smooth="yes"/>
      <point x="68.43" y="20.689999999999998"/>
      <point x="43.16" y="60.6"/>
      <point x="43.16" y="133.8" type="curve" smooth="yes"/>
      <point x="43.16" y="281.07"/>
      <point x="129.03" y="396.76"/>
      <point x="241.54" y="396.76" type="curve" smooth="yes"/>
      <point x="251.9" y="396.76" type="line"/>
      <point x="257.24" y="423.85" type="line"/>
      <point x="248.25" y="424.21" type="line" smooth="yes"/>
      <point x="193.59" y="424.75"/>
      <point x="165.48" y="467.05"/>
      <point x="165.48" y="544.02" type="curve" smooth="yes"/>
      <point x="165.48" y="620.71"/>
      <point x="208.23" y="679.94"/>
      <point x="261.72" y="679.94" type="curve" smooth="yes"/>
      <point x="287.09" y="679.94"/>
      <point x="304.91" y="673.39"/>
      <point x="328.64" y="653.93" type="curve"/>
      <point x="343.31" y="680.73" type="line"/>
      <point x="319.88" y="699.91"/>
      <point x="293.53" y="710.0"/>
      <point x="262.92" y="710.0" type="curve" smooth="yes"/>
      <point x="188.59" y="710.0"/>
      <point x="134.6" y="638.01"/>
      <point x="134.6" y="544.18" type="curve" smooth="yes"/>
      <point x="134.6" y="479.07"/>
      <point x="156.15" y="433.42"/>
      <point x="193.87" y="413.62" type="curve"/>
      <point x="88.39" y="387.26"/>
      <point x="11.92" y="272.49"/>
      <point x="11.92" y="129.29" type="curve" smooth="yes"/>
      <point x="11.92" y="41.5"/>
      <point x="47.43" y="-10.0"/>
    </contour>
    <contour>
      <point x="180.98" y="266.34" type="line"/>
      <point x="185.53" y="284.69"/>
      <point x="196.17" y="294.04"/>
      <point x="214.89" y="294.04" type="curve" smooth="yes"/>
      <point x="242.89" y="294.04"/>
      <point x="260.24" y="283.12"/>
      <point x="295.89" y="283.12" type="curve" smooth="yes"/>
      <point x="324.57" y="283.12"/>
      <point x="343.54" y="300.05"/>
      <point x="349.66" y="325.54" type="curve"/>
      <point x="326.19" y="333.73" type="line"/>
      <point x="319.64" y="314.68"/>
      <point x="306.74" y="307.77"/>
      <point x="287.04" y="307.77" type="curve" smooth="yes"/>
      <point x="264.12" y="307.77"/>
      <point x="235.74" y="318.69"/>
      <point x="211.0" y="318.69" type="curve" smooth="yes"/>
      <point x="180.24" y="318.69"/>
      <point x="164.43" y="301.75"/>
      <point x="156.24" y="274.97" type="curve"/>
    </contour>
  </outline>
</glyph>
<glyph name="quotesingle" format="2">
  <advance width="117.84"/>
  <unicode hex="0027"/>
  <outline>
    <contour>
      <point x="70.48" y="427.0" type="line"/>
      <point x="94.91" y="427.0" type="line"/>
      <point x="142.45" y="700.0" type="line"/>
      <point x="109.39" y="700.0" type="line"/>
    </contour>
  </outline>
</glyph>
<glyph name="parenleft" format="2">
  <advance width="168.93"/>
  <unicode hex="0028"/>
  <outline>
    <contour>
      <point x="21.02" y="-14.600000000000001" type="curve" smooth="yes"/>
      <point x="21.02" y="-122.1"/>
      <point x="40.45" y="-196.72"/>
      <point x="75.11" y="-220.0" type="curve"/>
      <point x="89.37" y="-191.22" type="line"/>
      <point x="67.83" y="-175.86"/>
      <point x="49.19" y="-109.0"/>
      <point x="49.19" y="-8.97" type="curve" smooth="yes"/>
      <point x="49.19" y="168.93"/>
      <point x="127.85" y="654.7"/>
      <point x="230.86" y="717.58" type="curve"/>
      <point x="226.74" y="749.09" type="line"/>
      <point x="97.85" y="675.38"/>
      <point x="21.02" y="206.84"/>
    </contour>
  </outline>
</glyph>
<glyph name="parenright" format="2">
  <advance width="168.93"/>
  <unicode hex="0029"/>
  <outline>
    <contour>
      <point x="145.82" y="544.6" type="curve" smooth="yes"/>
      <point x="145.82" y="652.1"/>
      <point x="127.3" y="726.72"/>
      <point x="92.64" y="750.0" type="curve"/>
      <point x="80.2" y="718.49" type="line"/>
      <point x="103.56" y="697.67"/>
      <point x="117.65" y="637.18"/>
      <point x="117.65" y="550.8" type="curve" smooth="yes"/>
      <point x="117.65" y="361.98"/>
      <point x="38.08" y="-127.43"/>
      <point x="-64.93" y="-189.4" type="curve"/>
      <point x="-59.9" y="-220.0" type="line"/>
      <point x="67.17" y="-140.83"/>
      <point x="145.82" y="324.98"/>
    </contour>
  </outline>
</glyph>
<glyph name="asterisk" format="2">
  <advance width="188.96"/>
  <unicode hex="002A"/>
  <outline>
    <contour>
      <point x="70.4" y="399.79" type="line"/>
      <point x="127.57" y="482.99" type="line"/>
      <point x="157.28" y="400.7" type="line"/>
      <point x="177.05" y="413.94" type="line"/>
      <point x="148.14" y="503.77" type="line"/>
      <point x="224.77" y="545.5" type="line"/>
      <point x="220.14" y="566.99" type="line"/>
      <point x="146.06" y="530.97" type="line"/>
      <point x="161.89" y="638.99" type="line"/>
      <point x="140.49" y="638.99" type="line"/>
      <point x="122.68" y="531.88" type="line"/>
      <point x="60.24" y="567.9" type="line"/>
      <point x="49.63" y="547.32" type="line"/>
      <point x="111.99" y="505.59" type="line"/>
      <point x="53.71" y="413.94" type="line"/>
    </contour>
  </outline>
</glyph>
<glyph name="plus" format="2">
  <advance width="344.23"/>
  <unicode hex="002B"/>
  <outline>
    <contour>
      <point x="126.75" y="80.19" type="line"/>
      <point x="157.0" y="80.19" type="line"/>
      <point x="188.29" y="276.48" type="line"/>
      <point x="305.51" y="276.48" type="line"/>
      <point x="310.49" y="308.17" type="line"/>
      <point x="193.27" y="308.17" type="line"/>
      <point x="224.56" y="505.37" type="line"/>
      <point x="194.31" y="505.37" type="line"/>
      <point x="163.02" y="308.17" type="line"/>
      <point x="44.89" y="308.17" type="line"/>
      <point x="39.91" y="276.48" type="line"/>
      <point x="158.04" y="276.48" type="line"/>
    </contour>
  </outline>
</glyph>
<glyph name="comma" format="2">
  <advance width="99.0"/>
  <unicode hex="002C"/>
  <outline>
    <contour>
      <point x="-2.7199999999999998" y="40.93" type="line"/>
      <point x="-1.9" y="28.5"/>
      <point x="-2.26" y="15.61"/>
      <point x="-2.5300000000000002" y="5.16" type="curve" smooth="yes"/>
      <point x="-3.34" y="-59.4"/>
      <point x="-37.43" y="-147.23"/>
      <point x="-81.36" y="-183.77" type="curve"/>
      <point x="-65.46000000000001" y="-200.66" type="line"/>
      <point x="5.640000000000001" y="-144.23"/>
      <point x="28.98" y="-35.29"/>
      <point x="28.98" y="12.57" type="curve" smooth="yes"/>
      <point x="28.98" y="23.66"/>
      <point x="28.89" y="33.75"/>
      <point x="27.07" y="47.39" type="curve"/>
    </contour>
  </outline>
</glyph>
<glyph name="hyphen" format="2">
  <advance width="177.42"/>
  <unicode hex="002D"/>
  <outline>
    <contour>
      <point x="12.44" y="251.29" type="line"/>
      <point x="157.35" y="251.29" type="line"/>
      <point x="163.6" y="284.24" type="line"/>
      <point x="18.69" y="284.24" type="line"/>
    </contour>
  </outline>
</glyph>
<glyph name="period" format="2">
  <advance width="99.0"/>
  <unicode hex="002E"/>
  <outline>
    <contour>
      <point x="-11.99" y="15.399999999999999" type="curve" smooth="yes"/>
      <point x="-12.9" y="3.44"/>
      <point x="-10.01" y="-0.63"/>
      <point x="4.59" y="-0.63" type="curve" smooth="yes"/>
      <point x="26.799999999999997" y="-0.63"/>
      <point x="28.96" y="8.83"/>
      <point x="31.689999999999998" y="35.61" type="curve" smooth="yes"/>
      <point x="32.6" y="48.3"/>
      <point x="27.89" y="51.46"/>
      <point x="14.29" y="51.46" type="curve" smooth="yes"/>
      <point x="-6.01" y="51.46"/>
      <point x="-9.26" y="42.18"/>
    </contour>
  </outline>
</glyph>
<glyph name="slash" format="2">
  <advance width="206.02"/>
  <unicode hex="002F"/>
  <outline>
    <contour>
      <point x="-67.89" y="-210.0" type="line"/>
      <point x="-39.09" y="-210.0" type="line"/>
      <point x="270.91" y="740.0" type="line"/>
      <point x="241.93" y="740.0" type="line"/>
    </contour>
  </outline>
</glyph>
<glyph name="zero" format="2">
  <advance width="265.3"/>
  <unicode hex="0030"/>
  <outline>
    <contour>
      <point x="88.28" y="-10.0" type="curve" smooth="yes"/>
      <point x="222.58" y="-10.0"/>
      <point x="278.76" y="380.3"/>
      <point x="278.76" y="562.68" type="curve" smooth="yes"/>
      <point x="278.76" y="674.02"/>
      <point x="256.52" y="710.0"/>
      <point x="199.38" y="710.0" type="curve" smooth="yes"/>
      <point x="65.08" y="710.0"/>
      <point x="8.9" y="320.06"/>
      <point x="8.9" y="137.68" type="curve" smooth="yes"/>
      <point x="8.9" y="26.34"/>
      <point x="31.14" y="-10.0"/>
    </contour>
    <contour>
      <point x="90.44" y="22.68" type="curve" smooth="yes"/>
      <point x="53.14" y="22.68"/>
      <point x="39.68" y="50.7"/>
      <point x="40.68" y="136.86" type="curve" smooth="yes"/>
      <point x="42.5" y="313.78"/>
      <point x="98.06" y="677.32"/>
      <point x="197.22" y="677.32" type="curve" smooth="yes"/>
      <point x="234.52" y="677.32"/>
      <point x="247.98" y="649.3"/>
      <point x="246.98" y="563.14" type="curve" smooth="yes"/>
      <point x="245.16" y="386.22"/>
      <point x="189.6" y="22.68"/>
    </contour>
  </outline>
</glyph>
<glyph name="one" format="2">
  <advance width="265.3"/>
  <unicode hex="0031"/>
  <outline>
    <contour>
      <point x="-11.4" y="0.0" type="line"/>
      <point x="212.98" y="0.0" type="line"/>
      <point x="218.05" y="32.6" type="line"/>
      <point x="122.2" y="32.6" type="line"/>
      <point x="228.31" y="700.0" type="line"/>
      <point x="211.1" y="700.0" type="line"/>
      <point x="64.68" y="586.3" type="line"/>
      <point x="73.78" y="556.91" type="line"/>
      <point x="187.92" y="648.44" type="line"/>
      <point x="90.33" y="32.6" type="line"/>
      <point x="-6.42" y="32.6" type="line"/>
    </contour>
  </outline>
</glyph>
<glyph name="two" format="2">
  <advance width="265.3"/>
  <unicode hex="0032"/>
  <outline>
    <contour>
      <point x="-4.4" y="27.259999999999998" type="curve"/>
      <point x="-4.38" y="0.0" type="line"/>
      <point x="198.06" y="0.0" type="line"/>
      <point x="202.86" y="30.16" type="line"/>
      <point x="30.919999999999998" y="30.16" type="line"/>
      <point x="136.88" y="218.8"/>
      <point x="262.04" y="435.1"/>
      <point x="262.04" y="602.24" type="curve" smooth="yes"/>
      <point x="262.04" y="667.84"/>
      <point x="236.7" y="710.0"/>
      <point x="185.46" y="710.0" type="curve" smooth="yes"/>
      <point x="145.76" y="710.0"/>
      <point x="113.7" y="693.46"/>
      <point x="82.72" y="656.64" type="curve"/>
      <point x="94.7" y="631.04" type="line"/>
      <point x="127.62" y="665.06"/>
      <point x="145.88" y="676.6"/>
      <point x="176.52" y="676.6" type="curve" smooth="yes"/>
      <point x="212.08" y="676.6"/>
      <point x="229.54" y="644.4"/>
      <point x="229.54" y="591.64" type="curve" smooth="yes"/>
      <point x="228.72" y="445.76"/>
      <point x="115.82" y="238.7"/>
    </contour>
  </outline>
</glyph>
<glyph name="three" format="2">
  <advance width="265.3"/>
  <unicode hex="0033"/>
  <outline>
    <contour>
      <point x="-24.56" y="33.45" type="line"/>
      <point x="-6.58" y="5.36"/>
      <point x="25.96" y="-10.0"/>
      <point x="65.75" y="-10.0" type="curve" smooth="yes"/>
      <point x="157.82" y="-10.0"/>
      <point x="219.95" y="100.94"/>
      <point x="219.95" y="256.67" type="curve" smooth="yes"/>
      <point x="219.95" y="321.19"/>
      <point x="200.15" y="360.65"/>
      <point x="173.88" y="370.82" type="curve"/>
      <point x="216.31" y="393.43"/>
      <point x="257.49" y="474.64"/>
      <point x="257.49" y="579.75" type="curve" smooth="yes"/>
      <point x="257.49" y="657.18"/>
      <point x="226.15" y="710.0"/>
      <point x="171.37" y="710.0" type="curve" smooth="yes"/>
      <point x="141.86" y="710.0"/>
      <point x="105.7" y="695.19"/>
      <point x="84.18" y="675.57" type="curve"/>
      <point x="96.53" y="649.23" type="line"/>
      <point x="117.81" y="667.33"/>
      <point x="139.9" y="676.33"/>
      <point x="164.53" y="676.33" type="curve" smooth="yes"/>
      <point x="201.81" y="676.33"/>
      <point x="224.72" y="630.3"/>
      <point x="224.72" y="569.91" type="curve" smooth="yes"/>
      <point x="224.72" y="478.76"/>
      <point x="185.62" y="381.78"/>
      <point x="134.51" y="381.78" type="curve" smooth="yes"/>
      <point x="100.24" y="381.78" type="line"/>
      <point x="95.53" y="353.34" type="line"/>
      <point x="138.62" y="353.34" type="line" smooth="yes"/>
      <point x="169.89" y="353.34"/>
      <point x="187.71" y="318.42"/>
      <point x="187.71" y="252.29" type="curve" smooth="yes"/>
      <point x="187.71" y="123.84"/>
      <point x="139.96" y="22.95"/>
      <point x="66.66" y="22.95" type="curve" smooth="yes"/>
      <point x="36.2" y="22.95"/>
      <point x="13.83" y="34.41"/>
      <point x="-3.8900000000000006" y="57.69" type="curve"/>
    </contour>
  </outline>
</glyph>
<glyph name="four" format="2">
  <advance width="265.3"/>
  <unicode hex="0034"/>
  <outline>
    <contour>
      <point x="10.74" y="182.01" type="line"/>
      <point x="152.83" y="182.01" type="line"/>
      <point x="124.36" y="0.0" type="line"/>
      <point x="156.95" y="0.0" type="line"/>
      <point x="185.42" y="182.01" type="line"/>
      <point x="239.52" y="182.01" type="line"/>
      <point x="244.32" y="213.44" type="line"/>
      <point x="190.31" y="213.44" type="line"/>
      <point x="267.22" y="699.09" type="line"/>
      <point x="237.75" y="703.64" type="line"/>
      <point x="10.08" y="210.71" type="line"/>
    </contour>
    <contour>
      <point x="36.83" y="213.44" type="line"/>
      <point x="222.19" y="610.86" type="line"/>
      <point x="158.44" y="213.44" type="line"/>
    </contour>
  </outline>
</glyph>
<glyph name="five" format="2">
  <advance width="265.3"/>
  <unicode hex="0035"/>
  <outline>
    <contour>
      <point x="-15.46" y="37.19" type="line"/>
      <point x="2.34" y="6.64"/>
      <point x="29.69" y="-10.0"/>
      <point x="64.93" y="-10.0" type="curve" smooth="yes"/>
      <point x="189.89" y="-10.0"/>
      <point x="225.85" y="162.21"/>
      <point x="225.85" y="259.89" type="curve" smooth="yes"/>
      <point x="225.85" y="336.86"/>
      <point x="198.05" y="383.32"/>
      <point x="140.33" y="383.86" type="curve" smooth="yes"/>
      <point x="92.03" y="384.04" type="line"/>
      <point x="148.88" y="666.23" type="line"/>
      <point x="270.96" y="666.23" type="line"/>
      <point x="276.03" y="700.0" type="line"/>
      <point x="125.96" y="700.0" type="line"/>
      <point x="56.9" y="363.07" type="line"/>
      <point x="65.54" y="351.89" type="line"/>
      <point x="127.8" y="351.89" type="line" smooth="yes"/>
      <point x="176.72" y="351.89"/>
      <point x="192.9" y="313.41"/>
      <point x="192.9" y="252.39" type="curve" smooth="yes"/>
      <point x="192.9" y="177.8"/>
      <point x="164.8" y="23.04"/>
      <point x="67.85" y="23.04" type="curve" smooth="yes"/>
      <point x="36.49" y="23.04"/>
      <point x="17.04" y="41.96"/>
      <point x="5.14" y="62.06" type="curve"/>
    </contour>
  </outline>
</glyph>
<glyph name="six" format="2">
  <advance width="265.3"/>
  <unicode hex="0036"/>
  <note>
14
</note>
  <outline>
    <contour>
      <point x="92.36" y="-10.0" type="curve" smooth="yes"/>
      <point x="176.4" y="-10.0"/>
      <point x="235.84" y="111.98"/>
      <point x="235.84" y="277.04" type="curve" smooth="yes"/>
      <point x="235.84" y="360.02"/>
      <point x="206.14" y="402.3"/>
      <point x="155.14" y="402.3" type="curve" smooth="yes"/>
      <point x="114.32" y="402.3"/>
      <point x="71.2" y="362.98"/>
      <point x="43.66" y="285.36" type="curve"/>
      <point x="37.76" y="216.28" type="line"/>
      <point x="59.04" y="304.26"/>
      <point x="101.44" y="371.96"/>
      <point x="149.48" y="371.96" type="curve" smooth="yes"/>
      <point x="184.5" y="371.96"/>
      <point x="203.06" y="335.48"/>
      <point x="203.06" y="269.72" type="curve" smooth="yes"/>
      <point x="203.06" y="136.0"/>
      <point x="153.3" y="20.42"/>
      <point x="94.26" y="20.42" type="curve" smooth="yes"/>
      <point x="60.6" y="20.42"/>
      <point x="42.04" y="60.0"/>
      <point x="42.04" y="131.24" type="curve" smooth="yes"/>
      <point x="42.04" y="274.88"/>
      <point x="66.78" y="423.24"/>
      <point x="103.8" y="533.5" type="curve" smooth="yes"/>
      <point x="133.36" y="620.58"/>
      <point x="173.28" y="677.86"/>
      <point x="223.44" y="677.86" type="curve" smooth="yes"/>
      <point x="244.8" y="677.86"/>
      <point x="261.8" y="669.5"/>
      <point x="282.26" y="654.04" type="curve"/>
      <point x="299.48" y="680.92" type="line"/>
      <point x="275.38" y="700.56"/>
      <point x="254.32" y="710.0"/>
      <point x="221.8" y="710.0" type="curve" smooth="yes"/>
      <point x="95.98" y="710.0"/>
      <point x="10.62" y="423.14"/>
      <point x="10.62" y="130.12" type="curve" smooth="yes"/>
      <point x="10.62" y="35.54"/>
      <point x="38.32" y="-10.0"/>
    </contour>
  </outline>
</glyph>
<glyph name="seven" format="2">
  <advance width="265.3"/>
  <unicode hex="0037"/>
  <note>
9
</note>
  <outline>
    <contour>
      <point x="40.81" y="0.0" type="curve"/>
      <point x="73.67" y="0.0" type="line"/>
      <point x="92.03" y="109.71"/>
      <point x="116.12" y="221.29"/>
      <point x="193.49" y="417.69" type="curve" smooth="yes"/>
      <point x="293.77" y="673.01" type="line"/>
      <point x="298.3" y="700.0" type="line"/>
      <point x="79.33" y="700.0" type="line"/>
      <point x="74.17" y="666.59" type="line"/>
      <point x="258.55" y="666.59" type="line"/>
      <point x="169.18" y="440.07" type="line" smooth="yes"/>
      <point x="97.72" y="259.29"/>
      <point x="62.81" y="139.55"/>
    </contour>
  </outline>
</glyph>
<glyph name="eight" format="2">
  <advance width="265.3"/>
  <unicode hex="0038"/>
  <outline>
    <contour>
      <point x="98.18" y="-10.0" type="curve" smooth="yes"/>
      <point x="189.6" y="-10.0"/>
      <point x="235.76" y="84.12"/>
      <point x="235.76" y="189.8" type="curve" smooth="yes"/>
      <point x="235.76" y="348.14"/>
      <point x="95.14" y="385.32"/>
      <point x="95.14" y="529.34" type="curve" smooth="yes"/>
      <point x="95.14" y="615.34"/>
      <point x="124.62" y="678.58"/>
      <point x="184.84" y="678.58" type="curve" smooth="yes"/>
      <point x="230.14" y="678.58"/>
      <point x="247.88" y="642.56"/>
      <point x="247.88" y="584.16" type="curve" smooth="yes"/>
      <point x="247.88" y="495.84"/>
      <point x="215.52" y="421.14"/>
      <point x="142.64" y="372.56" type="curve"/>
      <point x="159.94" y="354.0" type="line"/>
      <point x="239.78" y="404.46"/>
      <point x="278.76" y="488.48"/>
      <point x="278.76" y="588.12" type="curve" smooth="yes"/>
      <point x="278.76" y="661.48"/>
      <point x="252.24" y="710.0"/>
      <point x="186.02" y="710.0" type="curve" smooth="yes"/>
      <point x="102.62" y="710.0"/>
      <point x="63.36" y="628.64"/>
      <point x="63.36" y="522.26" type="curve" smooth="yes"/>
      <point x="63.36" y="367.78"/>
      <point x="203.98" y="336.94"/>
      <point x="203.98" y="184.92" type="curve" smooth="yes"/>
      <point x="203.98" y="98.96"/>
      <point x="168.5" y="20.88"/>
      <point x="99.9" y="20.88" type="curve" smooth="yes"/>
      <point x="48.96" y="20.88"/>
      <point x="26.04" y="56.72"/>
      <point x="26.04" y="125.22" type="curve" smooth="yes"/>
      <point x="26.04" y="223.9"/>
      <point x="58.86" y="316.7"/>
      <point x="141.38" y="363.28" type="curve"/>
      <point x="122.72" y="385.2" type="line"/>
      <point x="31.52" y="330.54"/>
      <point x="-6.92" y="230.44"/>
      <point x="-6.92" y="118.78" type="curve" smooth="yes"/>
      <point x="-6.92" y="35.7"/>
      <point x="24.06" y="-10.0"/>
    </contour>
  </outline>
</glyph>
<glyph name="nine" format="2">
  <advance width="265.3"/>
  <unicode hex="0039"/>
  <outline>
    <contour>
      <point x="194.66" y="710.0" type="curve" smooth="yes"/>
      <point x="110.62" y="710.0"/>
      <point x="51.0" y="588.02"/>
      <point x="51.0" y="422.96" type="curve" smooth="yes"/>
      <point x="51.0" y="339.98"/>
      <point x="80.16" y="297.88"/>
      <point x="130.98" y="297.88" type="curve" smooth="yes"/>
      <point x="171.98" y="297.88"/>
      <point x="215.82" y="336.48"/>
      <point x="243.18" y="416.44" type="curve"/>
      <point x="249.08" y="483.9" type="line"/>
      <point x="227.98" y="395.92"/>
      <point x="185.4" y="328.22"/>
      <point x="137.36" y="328.22" type="curve" smooth="yes"/>
      <point x="102.52" y="328.22"/>
      <point x="83.96" y="364.52"/>
      <point x="83.96" y="430.28" type="curve" smooth="yes"/>
      <point x="83.96" y="564.18"/>
      <point x="133.72" y="679.58"/>
      <point x="192.58" y="679.58" type="curve" smooth="yes"/>
      <point x="226.06" y="679.58"/>
      <point x="244.8" y="640.0"/>
      <point x="244.8" y="568.94" type="curve" smooth="yes"/>
      <point x="244.8" y="426.92"/>
      <point x="220.24" y="276.94"/>
      <point x="183.04" y="166.5" type="curve" smooth="yes"/>
      <point x="153.66" y="79.42"/>
      <point x="113.92" y="22.14"/>
      <point x="68.22" y="22.14" type="curve" smooth="yes"/>
      <point x="47.04" y="22.14"/>
      <point x="26.04" y="29.68"/>
      <point x="4.58" y="55.24" type="curve"/>
      <point x="-12.64" y="28.18" type="line"/>
      <point x="12.64" y="-1.3800000000000001"/>
      <point x="37.7" y="-10.0"/>
      <point x="70.58" y="-10.0" type="curve" smooth="yes"/>
      <point x="187.58" y="-10.0"/>
      <point x="276.22" y="276.86"/>
      <point x="276.22" y="570.06" type="curve" smooth="yes"/>
      <point x="276.22" y="664.64"/>
      <point x="248.52" y="710.0"/>
    </contour>
  </outline>
</glyph>
<glyph name="less" format="2">
  <advance width="344.69"/>
  <unicode hex="003C"/>
  <outline>
    <contour>
      <point x="277.67" y="90.71" type="line"/>
      <point x="282.38" y="123.51" type="line"/>
      <point x="67.62" y="291.07" type="line"/>
      <point x="336.05" y="459.63" type="line"/>
      <point x="340.76" y="494.16" type="line"/>
      <point x="44.46" y="310.92" type="line"/>
      <point x="38.57" y="274.86" type="line"/>
    </contour>
  </outline>
</glyph>
<glyph name="equal" format="2">
  <advance width="341.36"/>
  <unicode hex="003D"/>
  <outline>
    <contour>
      <point x="290.17" y="204.56" type="line"/>
      <point x="28.71" y="204.56" type="line"/>
      <point x="23.91" y="171.96" type="line"/>
      <point x="285.37" y="171.96" type="line"/>
    </contour>
    <contour>
      <point x="322.08" y="413.0" type="line"/>
      <point x="60.71" y="413.0" type="line"/>
      <point x="55.82" y="380.4" type="line"/>
      <point x="317.28" y="380.4" type="line"/>
    </contour>
  </outline>
</glyph>
<glyph name="greater" format="2">
  <advance width="344.69"/>
  <unicode hex="003E"/>
  <outline>
    <contour>
      <point x="306.68" y="272.13" type="line"/>
      <point x="312.57" y="308.19" type="line"/>
      <point x="72.65" y="492.34" type="line"/>
      <point x="67.94" y="459.63" type="line"/>
      <point x="283.7" y="291.98" type="line"/>
      <point x="15.18" y="124.42" type="line"/>
      <point x="9.56" y="88.89" type="line"/>
    </contour>
  </outline>
</glyph>
<glyph name="question" format="2">
  <advance width="228.6"/>
  <unicode hex="003F"/>
  <outline>
    <contour>
      <point x="84.82" y="263.64" type="line"/>
      <point x="113.98" y="263.64" type="line"/>
      <point x="125.98" y="341.1" type="line"/>
      <point x="205.34" y="424.58"/>
      <point x="262.78" y="485.1"/>
      <point x="262.78" y="627.14" type="curve" smooth="yes"/>
      <point x="262.78" y="709.76"/>
      <point x="226.98" y="750.0"/>
      <point x="177.04" y="750.0" type="curve" smooth="yes"/>
      <point x="142.42" y="750.0"/>
      <point x="106.9" y="729.18"/>
      <point x="75.82" y="696.82" type="curve"/>
      <point x="87.16" y="670.32" type="line"/>
      <point x="118.26" y="701.88"/>
      <point x="145.18" y="715.7"/>
      <point x="169.36" y="715.7" type="curve" smooth="yes"/>
      <point x="205.74" y="715.7"/>
      <point x="229.38" y="680.66"/>
      <point x="229.38" y="619.82" type="curve" smooth="yes"/>
      <point x="229.38" y="510.22"/>
      <point x="188.66" y="442.0"/>
      <point x="99.36" y="356.4" type="curve"/>
    </contour>
    <contour>
      <point x="40.82" y="15.04" type="curve" smooth="yes"/>
      <point x="40.0" y="3.08"/>
      <point x="42.8" y="-0.8999999999999999"/>
      <point x="57.22" y="-0.8999999999999999" type="curve" smooth="yes"/>
      <point x="79.52" y="-0.8999999999999999"/>
      <point x="82.03999999999999" y="8.2"/>
      <point x="84.5" y="34.980000000000004" type="curve" smooth="yes"/>
      <point x="85.32" y="47.94"/>
      <point x="80.7" y="51.099999999999994"/>
      <point x="67.28" y="51.099999999999994" type="curve" smooth="yes"/>
      <point x="46.8" y="51.099999999999994"/>
      <point x="43.28" y="42.0"/>
    </contour>
  </outline>
</glyph>
<glyph name="at" format="2">
  <advance width="415.56"/>
  <unicode hex="0040"/>
  <outline>
    <contour>
      <point x="145.9" y="-124.0" type="curve" smooth="yes"/>
      <point x="196.0" y="-124.0"/>
      <point x="237.78" y="-99.9"/>
      <point x="266.04" y="-52.6" type="curve"/>
      <point x="251.68" y="-41.02" type="line"/>
      <point x="228.16" y="-81.5"/>
      <point x="192.72" y="-102.42"/>
      <point x="147.72" y="-102.42" type="curve" smooth="yes"/>
      <point x="70.5" y="-102.42"/>
      <point x="27.38" y="-40.06"/>
      <point x="27.38" y="87.42" type="curve" smooth="yes"/>
      <point x="27.38" y="401.74"/>
      <point x="146.84" y="687.6"/>
      <point x="296.04" y="687.6" type="curve" smooth="yes"/>
      <point x="363.86" y="687.6"/>
      <point x="406.28" y="654.74"/>
      <point x="406.28" y="534.06" type="curve" smooth="yes"/>
      <point x="406.28" y="338.84"/>
      <point x="337.04" y="83.92"/>
      <point x="277.7" y="83.92" type="curve" smooth="yes"/>
      <point x="246.26" y="83.92"/>
      <point x="256.64" y="152.32"/>
      <point x="264.18" y="187.76" type="curve" smooth="yes"/>
      <point x="339.18" y="521.9" type="line"/>
      <point x="312.02" y="534.34"/>
      <point x="291.78" y="539.42"/>
      <point x="266.28" y="539.42" type="curve" smooth="yes"/>
      <point x="181.02" y="539.42"/>
      <point x="99.74" y="304.98"/>
      <point x="99.74" y="132.68" type="curve" smooth="yes"/>
      <point x="99.74" y="83.08"/>
      <point x="118.72" y="60.1"/>
      <point x="147.96" y="60.1" type="curve" smooth="yes"/>
      <point x="179.76" y="60.1"/>
      <point x="210.48" y="86.0"/>
      <point x="232.74" y="144.02" type="curve"/>
      <point x="233.07999999999998" y="124.78"/>
      <point x="223.3" y="59.74"/>
      <point x="275.1" y="59.74" type="curve" smooth="yes"/>
      <point x="358.3" y="59.74"/>
      <point x="429.22" y="339.74"/>
      <point x="429.22" y="540.78" type="curve" smooth="yes"/>
      <point x="429.22" y="660.88"/>
      <point x="380.12" y="710.0"/>
      <point x="298.48" y="710.0" type="curve" smooth="yes"/>
      <point x="132.88" y="710.0"/>
      <point x="4.26" y="420.16"/>
      <point x="4.26" y="79.34" type="curve" smooth="yes"/>
      <point x="4.26" y="-53.5"/>
      <point x="53.92" y="-124.0"/>
    </contour>
    <contour>
      <point x="158.52" y="91.24" type="curve" smooth="yes"/>
      <point x="141.24" y="91.24"/>
      <point x="131.6" y="108.34"/>
      <point x="131.6" y="143.0" type="curve" smooth="yes"/>
      <point x="131.6" y="299.58"/>
      <point x="212.0" y="513.16"/>
      <point x="265.2" y="513.16" type="curve" smooth="yes"/>
      <point x="277.66" y="513.16"/>
      <point x="293.4" y="510.34"/>
      <point x="306.5" y="504.52" type="curve"/>
      <point x="243.22" y="228.64" type="line" smooth="yes"/>
      <point x="222.66" y="140.74"/>
      <point x="187.36" y="91.24"/>
    </contour>
  </outline>
</glyph>
<glyph name="A" format="2">
  <advance width="288.51"/>
  <unicode hex="0041"/>
  <anchor x="97.57" y="0.0" name="bottom"/>
  <anchor x="226.13" y="0.0" name="ogonek"/>
  <anchor x="206.94" y="700.0" name="top"/>
  <outline>
    <contour>
      <point x="-25.62" y="0.0" type="line"/>
      <point x="6.789999999999999" y="0.0" type="line"/>
      <point x="71.56" y="209.75" type="line"/>
      <point x="194.35" y="209.75" type="line"/>
      <point x="193.54" y="0.0" type="line"/>
      <point x="226.13" y="0.0" type="line"/>
      <point x="228.74" y="709.1" type="line"/>
      <point x="189.96" y="709.1" type="line"/>
    </contour>
    <contour>
      <point x="80.26" y="241.44" type="line"/>
      <point x="198.22" y="638.88" type="line"/>
      <point x="195.79" y="241.44" type="line"/>
    </contour>
  </outline>
</glyph>
<glyph name="B" format="2">
  <advance width="272.33"/>
  <unicode hex="0042"/>
  <outline>
    <contour>
      <point x="-3.5300000000000002" y="-5.01" type="line"/>
      <point x="22.7" y="-8.73"/>
      <point x="43.87" y="-10.0"/>
      <point x="68.28" y="-10.0" type="curve" smooth="yes"/>
      <point x="200.97" y="-10.0"/>
      <point x="241.95" y="134.01"/>
      <point x="241.95" y="238.16" type="curve" smooth="yes"/>
      <point x="241.95" y="307.08"/>
      <point x="215.94" y="345.07"/>
      <point x="176.84" y="358.88" type="curve"/>
      <point x="252.77" y="390.78"/>
      <point x="282.32" y="513.75"/>
      <point x="282.32" y="595.22" type="curve" smooth="yes"/>
      <point x="282.32" y="671.57"/>
      <point x="250.52" y="710.0"/>
      <point x="178.65" y="710.0" type="curve" smooth="yes"/>
      <point x="159.75" y="710.0"/>
      <point x="136.15" y="707.91"/>
      <point x="108.11" y="703.19" type="curve"/>
    </contour>
    <contour>
      <point x="87.88" y="369.4" type="line"/>
      <point x="136.09" y="675.85" type="line"/>
      <point x="151.19" y="678.76"/>
      <point x="165.29" y="679.85"/>
      <point x="177.75" y="679.85" type="curve" smooth="yes"/>
      <point x="226.97" y="679.85"/>
      <point x="251.26" y="652.56"/>
      <point x="251.26" y="584.16" type="curve" smooth="yes"/>
      <point x="251.26" y="499.23"/>
      <point x="209.24" y="369.4"/>
      <point x="133.19" y="369.4" type="curve" smooth="yes"/>
    </contour>
    <contour>
      <point x="83.08" y="338.88" type="line"/>
      <point x="140.67" y="338.88" type="line" smooth="yes"/>
      <point x="181.24" y="338.88"/>
      <point x="210.26" y="301.31"/>
      <point x="210.26" y="233.36" type="curve" smooth="yes"/>
      <point x="210.26" y="135.69"/>
      <point x="175.7" y="21.06"/>
      <point x="71.71" y="21.06" type="curve" smooth="yes"/>
      <point x="59.61" y="21.06"/>
      <point x="48.24" y="21.97"/>
      <point x="32.96" y="24.06" type="curve"/>
    </contour>
  </outline>
</glyph>
<glyph name="C" format="2">
  <advance width="247.64"/>
  <unicode hex="0043"/>
  <anchor x="139.25" y="0.0" name="bottom"/>
  <anchor x="234.77" y="700.0" name="top"/>
  <outline>
    <contour>
      <point x="142.94" y="-10.0" type="curve" smooth="yes"/>
      <point x="166.93" y="-10.0"/>
      <point x="185.83" y="-7.0"/>
      <point x="200.09" y="-1.46" type="curve"/>
      <point x="195.18" y="27.6" type="line"/>
      <point x="182.09" y="23.6"/>
      <point x="165.91" y="21.509999999999998"/>
      <point x="147.63" y="21.509999999999998" type="curve" smooth="yes"/>
      <point x="85.52" y="21.509999999999998"/>
      <point x="57.879999999999995" y="65.9"/>
      <point x="57.879999999999995" y="174.2" type="curve" smooth="yes"/>
      <point x="57.879999999999995" y="454.05"/>
      <point x="134.46" y="678.49"/>
      <point x="236.48" y="678.49" type="curve" smooth="yes"/>
      <point x="252.57" y="678.49"/>
      <point x="268.03" y="675.49"/>
      <point x="287.85" y="669.31" type="curve"/>
      <point x="298.9" y="698.47" type="line"/>
      <point x="283.73" y="706.46"/>
      <point x="261.84" y="710.0"/>
      <point x="238.22" y="710.0" type="curve" smooth="yes"/>
      <point x="113.54" y="710.0"/>
      <point x="25.74" y="484.7"/>
      <point x="25.74" y="170.41" type="curve" smooth="yes"/>
      <point x="25.74" y="43.89"/>
      <point x="60.34" y="-10.0"/>
    </contour>
  </outline>
</glyph>
<glyph name="D" format="2">
  <advance width="295.43"/>
  <unicode hex="0044"/>
  <anchor x="90.75" y="0.0" name="bottom"/>
  <anchor x="157.92911" y="350.0" name="center"/>
  <anchor x="188.57" y="700.0" name="top"/>
  <outline>
    <contour>
      <point x="62.37" y="-10.0" type="curve" smooth="yes"/>
      <point x="201.14" y="-10.0"/>
      <point x="288.87" y="203.28"/>
      <point x="288.87" y="477.09" type="curve" smooth="yes"/>
      <point x="288.87" y="639.81"/>
      <point x="255.54" y="710.0"/>
      <point x="165.12" y="710.0" type="curve" smooth="yes"/>
      <point x="146.42" y="710.0"/>
      <point x="130.99" y="708.82"/>
      <point x="108.11" y="706.19" type="curve"/>
      <point x="-3.71" y="-5.01" type="line"/>
      <point x="18.08" y="-8.64"/>
      <point x="36.13" y="-10.0"/>
    </contour>
    <contour>
      <point x="66.53" y="18.88" type="curve" smooth="yes"/>
      <point x="54.25" y="18.88"/>
      <point x="44.79" y="19.88"/>
      <point x="31.869999999999997" y="21.79" type="curve"/>
      <point x="136.0" y="677.31" type="line"/>
      <point x="148.19" y="678.31"/>
      <point x="156.65" y="678.4"/>
      <point x="166.11" y="678.4" type="curve" smooth="yes"/>
      <point x="230.43" y="678.4"/>
      <point x="257.0" y="623.18"/>
      <point x="257.0" y="475.45" type="curve" smooth="yes"/>
      <point x="257.0" y="227.51"/>
      <point x="174.69" y="18.88"/>
    </contour>
  </outline>
</glyph>
<glyph name="E" format="2">
  <advance width="238.45"/>
  <unicode hex="0045"/>
  <anchor x="93.6" y="0.0" name="bottom"/>
  <anchor x="183.54" y="0.0" name="ogonek"/>
  <anchor x="198.96" y="700.0" name="top"/>
  <anchor x="85.20817" y="700.0" name="topleft"/>
  <outline>
    <contour>
      <point x="-2.8" y="0.0" type="line"/>
      <point x="183.54" y="0.0" type="line"/>
      <point x="188.52" y="31.509999999999998" type="line"/>
      <point x="33.96" y="31.509999999999998" type="line"/>
      <point x="83.81" y="346.8" type="line"/>
      <point x="214.65" y="346.8" type="line"/>
      <point x="219.63" y="377.41" type="line"/>
      <point x="88.7" y="377.41" type="line"/>
      <point x="134.0" y="668.04" type="line"/>
      <point x="279.56" y="668.04" type="line"/>
      <point x="285.63" y="700.0" type="line"/>
      <point x="107.2" y="700.0" type="line"/>
    </contour>
  </outline>
</glyph>
<glyph name="F" format="2">
  <advance width="223.17"/>
  <unicode hex="0046"/>
  <outline>
    <contour>
      <point x="-2.8899999999999997" y="0.0" type="line"/>
      <point x="28.07" y="0.0" type="line"/>
      <point x="82.18" y="338.12" type="line"/>
      <point x="196.46" y="338.12" type="line"/>
      <point x="201.53" y="370.08" type="line"/>
      <point x="87.16" y="370.08" type="line"/>
      <point x="134.0" y="668.04" type="line"/>
      <point x="280.29" y="668.04" type="line"/>
      <point x="285.45" y="700.0" type="line"/>
      <point x="107.2" y="700.0" type="line"/>
    </contour>
  </outline>
</glyph>
<glyph name="G" format="2">
  <advance width="269.61"/>
  <unicode hex="0047"/>
  <anchor x="132.57" y="0.0" name="bottom"/>
  <anchor x="233.58" y="700.0" name="top"/>
  <outline>
    <contour>
      <point x="140.94" y="-10.0" type="curve" smooth="yes"/>
      <point x="159.28" y="-10.0"/>
      <point x="180.7" y="-6.37"/>
      <point x="194.86" y="-0.03000000000000025" type="curve"/>
      <point x="249.49" y="345.84" type="line"/>
      <point x="149.93" y="345.84" type="line"/>
      <point x="145.22" y="315.86" type="line"/>
      <point x="214.62" y="315.86" type="line"/>
      <point x="168.14" y="23.79" type="line"/>
      <point x="161.59" y="21.79"/>
      <point x="151.68" y="20.79"/>
      <point x="143.04" y="20.79" type="curve" smooth="yes"/>
      <point x="83.36" y="20.79"/>
      <point x="57.07" y="64.82"/>
      <point x="57.07" y="172.22" type="curve" smooth="yes"/>
      <point x="57.07" y="451.53"/>
      <point x="133.47" y="678.4"/>
      <point x="235.85" y="678.4" type="curve" smooth="yes"/>
      <point x="253.38" y="678.4"/>
      <point x="270.28" y="674.59"/>
      <point x="290.01" y="668.5" type="curve"/>
      <point x="300.88" y="698.29" type="line"/>
      <point x="285.54" y="704.73"/>
      <point x="262.2" y="710.0"/>
      <point x="238.13" y="710.0" type="curve" smooth="yes"/>
      <point x="108.67" y="710.0"/>
      <point x="25.65" y="475.61"/>
      <point x="25.65" y="170.5" type="curve" smooth="yes"/>
      <point x="25.65" y="44.25"/>
      <point x="60.43" y="-10.0"/>
    </contour>
  </outline>
</glyph>
<glyph name="H" format="2">
  <advance width="304.99"/>
  <unicode hex="0048"/>
  <anchor x="108.98996" y="0.0" name="bottom"/>
  <anchor x="164.93911" y="350.0" name="center"/>
  <anchor x="219.97817" y="700.0" name="top"/>
  <anchor x="85.20817" y="700.0" name="topleft"/>
  <outline>
    <contour>
      <point x="-2.8899999999999997" y="0.0" type="line"/>
      <point x="29.89" y="0.0" type="line"/>
      <point x="75.17" y="286.68" type="line"/>
      <point x="234.2" y="286.68" type="line"/>
      <point x="189.01" y="0.0" type="line"/>
      <point x="220.79" y="0.0" type="line"/>
      <point x="331.79" y="700.0" type="line"/>
      <point x="299.92" y="700.0" type="line"/>
      <point x="239.18" y="317.92" type="line"/>
      <point x="79.24" y="317.92" type="line"/>
      <point x="139.98" y="700.0" type="line"/>
      <point x="107.2" y="700.0" type="line"/>
    </contour>
  </outline>
</glyph>
<glyph name="I" format="2">
  <advance width="113.18"/>
  <unicode hex="0049"/>
  <anchor x="12.62996" y="0.0" name="bottom"/>
  <anchor x="29.252519999999997" y="0.8999999999999999" name="ogonek"/>
  <anchor x="123.61816999999999" y="700.0" name="top"/>
  <anchor x="85.20817" y="700.0" name="topleft"/>
  <outline>
    <contour>
      <point x="-2.8899999999999997" y="0.0" type="line"/>
      <point x="28.98" y="0.0" type="line"/>
      <point x="139.98" y="700.0" type="line"/>
      <point x="107.2" y="700.0" type="line"/>
    </contour>
  </outline>
</glyph>
<glyph name="J" format="2">
  <advance width="203.28"/>
  <unicode hex="004A"/>
  <anchor x="13.58996" y="0.0" name="bottom"/>
  <anchor x="162.58" y="700.0" name="top"/>
  <outline>
    <contour>
      <point x="-39.0" y="-0.5700000000000003" type="line"/>
      <point x="-20.28" y="-6.74"/>
      <point x="-3.3000000000000003" y="-10.0"/>
      <point x="14.57" y="-10.0" type="curve" smooth="yes"/>
      <point x="101.48" y="-10.0"/>
      <point x="129.17" y="44.53"/>
      <point x="140.25" y="115.83" type="curve" smooth="yes"/>
      <point x="232.99" y="700.0" type="line"/>
      <point x="83.07" y="700.0" type="line"/>
      <point x="78.18" y="669.21" type="line"/>
      <point x="196.23" y="669.21" type="line"/>
      <point x="108.46" y="119.67" type="line" smooth="yes"/>
      <point x="97.19" y="49.96"/>
      <point x="65.9" y="23.13"/>
      <point x="13.15" y="23.13" type="curve" smooth="yes"/>
      <point x="-0.40000000000000036" y="23.13"/>
      <point x="-15.67" y="26.31"/>
      <point x="-30.31" y="31.31" type="curve"/>
    </contour>
  </outline>
</glyph>
<glyph name="K" format="2">
  <advance width="262.56"/>
  <unicode hex="004B"/>
  <anchor x="103.64" y="0.0" name="bottom"/>
  <anchor x="193.82" y="700.0" name="top"/>
  <outline>
    <contour>
      <point x="-2.98" y="0.0" type="line"/>
      <point x="28.98" y="0.0" type="line"/>
      <point x="139.98" y="700.0" type="line"/>
      <point x="107.2" y="700.0" type="line"/>
    </contour>
    <contour>
      <point x="206.16" y="-9.18" type="curve" smooth="yes"/>
      <point x="212.6" y="-9.18"/>
      <point x="219.94" y="-7.46"/>
      <point x="226.12" y="-4.28" type="curve"/>
      <point x="224.46" y="30.28" type="line"/>
      <point x="222.28" y="29.46"/>
      <point x="219.1" y="28.46"/>
      <point x="215.1" y="28.46" type="curve" smooth="yes"/>
      <point x="203.2" y="28.46"/>
      <point x="195.5" y="36.82"/>
      <point x="176.32" y="104.02" type="curve" smooth="yes"/>
      <point x="85.24" y="423.46" type="line"/>
      <point x="75.74" y="356.66" type="line"/>
      <point x="152.38" y="82.74" type="line" smooth="yes"/>
      <point x="175.2" y="0.7999999999999998"/>
      <point x="184.64" y="-9.18"/>
    </contour>
    <contour>
      <point x="110.2" y="292.48" type="line"/>
      <point x="162.96" y="364.34"/>
      <point x="252.52" y="511.72"/>
      <point x="308.64" y="700.22" type="curve"/>
      <point x="280.2" y="709.1" type="line"/>
      <point x="224.08" y="524.3"/>
      <point x="146.6" y="392.92"/>
      <point x="100.52" y="327.1" type="curve"/>
    </contour>
  </outline>
</glyph>
<glyph name="L" format="2">
  <advance width="211.53"/>
  <unicode hex="004C"/>
  <anchor x="80.31" y="0.0" name="bottom"/>
  <anchor x="107.28911" y="350.0" name="center"/>
  <anchor x="122.68" y="700.0" name="top"/>
  <anchor x="209.66" y="700.0" name="topright"/>
  <outline>
    <contour>
      <point x="-3.8" y="0.0" type="line"/>
      <point x="161.17" y="0.0" type="line"/>
      <point x="166.15" y="31.509999999999998" type="line"/>
      <point x="33.05" y="31.509999999999998" type="line"/>
      <point x="139.07" y="700.0" type="line"/>
      <point x="107.2" y="700.0" type="line"/>
    </contour>
  </outline>
</glyph>
<glyph name="M" format="2">
  <advance width="327.37"/>
  <unicode hex="004D"/>
  <outline>
    <contour>
      <point x="-2.8899999999999997" y="0.0" type="line"/>
      <point x="27.54" y="0.0" type="line"/>
      <point x="125.67" y="626.52" type="line"/>
      <point x="148.05" y="263.77" type="line"/>
      <point x="174.64" y="263.77" type="line"/>
      <point x="312.6" y="627.8" type="line"/>
      <point x="212.65" y="0.0" type="line"/>
      <point x="243.17" y="0.0" type="line"/>
      <point x="354.17" y="700.0" type="line"/>
      <point x="314.31" y="700.0" type="line"/>
      <point x="168.81" y="312.71" type="line"/>
      <point x="145.89" y="700.0" type="line"/>
      <point x="107.2" y="700.0" type="line"/>
    </contour>
  </outline>
</glyph>
<glyph name="N" format="2">
  <advance width="303.79"/>
  <unicode hex="004E"/>
  <anchor x="116.67" y="0.0" name="bottom"/>
  <anchor x="218.94" y="700.0" name="top"/>
  <outline>
    <contour>
      <point x="-2.8899999999999997" y="0.0" type="line"/>
      <point x="27.45" y="0.0" type="line"/>
      <point x="124.5" y="621.06" type="line"/>
      <point x="184.9" y="0.0" type="line"/>
      <point x="219.59" y="0.0" type="line"/>
      <point x="330.59" y="700.0" type="line"/>
      <point x="300.25" y="700.0" type="line"/>
      <point x="203.48" y="78.52" type="line"/>
      <point x="143.71" y="700.0" type="line"/>
      <point x="107.2" y="700.0" type="line"/>
    </contour>
  </outline>
</glyph>
<glyph name="O" format="2">
  <advance width="307.16"/>
  <unicode hex="004F"/>
  <note>
8
</note>
  <anchor x="110.58" y="0.0" name="bottom"/>
  <anchor x="166.4" y="350.0" name="center"/>
  <anchor x="146.36" y="0.36" name="ogonek"/>
  <anchor x="226.04" y="700.0" name="top"/>
  <anchor x="88.18" y="700.0" name="topleft"/>
  <anchor x="273.26" y="700.0" name="topright"/>
  <outline>
    <contour>
      <point x="110.3" y="-10.0" type="curve" smooth="yes"/>
      <point x="235.92" y="-10.0"/>
      <point x="311.88" y="318.2"/>
      <point x="311.88" y="562.6" type="curve" smooth="yes"/>
      <point x="311.88" y="672.38"/>
      <point x="283.82" y="710.0"/>
      <point x="220.86" y="710.0" type="curve" smooth="yes"/>
      <point x="95.24" y="710.0"/>
      <point x="19.28" y="381.8"/>
      <point x="19.28" y="137.4" type="curve" smooth="yes"/>
      <point x="19.28" y="27.62"/>
      <point x="47.34" y="-10.0"/>
    </contour>
    <contour>
      <point x="112.74" y="21.68" type="curve" smooth="yes"/>
      <point x="68.52" y="21.68"/>
      <point x="51.42" y="47.34"/>
      <point x="51.42" y="137.04" type="curve" smooth="yes"/>
      <point x="51.42" y="363.74"/>
      <point x="127.3" y="678.32"/>
      <point x="218.42" y="678.32" type="curve" smooth="yes"/>
      <point x="262.64" y="678.32"/>
      <point x="279.74" y="652.66"/>
      <point x="279.74" y="562.96" type="curve" smooth="yes"/>
      <point x="279.74" y="336.26"/>
      <point x="203.86" y="21.68"/>
    </contour>
  </outline>
</glyph>
<glyph name="P" format="2">
  <advance width="258.58"/>
  <unicode hex="0050"/>
  <outline>
    <contour>
      <point x="-2.8" y="0.0" type="line"/>
      <point x="29.07" y="0.0" type="line"/>
      <point x="74.09" y="282.58" type="line"/>
      <point x="80.8" y="281.31"/>
      <point x="88.44" y="281.31"/>
      <point x="121.27" y="281.31" type="curve" smooth="yes"/>
      <point x="218.61" y="281.31"/>
      <point x="282.49" y="407.55"/>
      <point x="282.49" y="581.88" type="curve" smooth="yes"/>
      <point x="282.49" y="674.39"/>
      <point x="250.78" y="710.0"/>
      <point x="181.55" y="710.0" type="curve" smooth="yes"/>
      <point x="160.21" y="710.0"/>
      <point x="134.44" y="707.91"/>
      <point x="108.2" y="703.82" type="curve"/>
    </contour>
    <contour>
      <point x="136.18" y="674.85" type="line"/>
      <point x="148.55" y="677.76"/>
      <point x="160.92" y="678.76"/>
      <point x="176.84" y="678.76" type="curve" smooth="yes"/>
      <point x="228.51" y="678.76"/>
      <point x="250.98" y="653.48"/>
      <point x="250.98" y="574.99" type="curve" smooth="yes"/>
      <point x="250.98" y="430.29"/>
      <point x="197.69" y="312.55"/>
      <point x="120.37" y="312.55" type="curve" smooth="yes"/>
      <point x="107.18" y="312.55"/>
      <point x="93.17" y="313.46"/>
      <point x="78.98" y="314.55" type="curve"/>
    </contour>
  </outline>
</glyph>
<glyph name="Q" format="2">
  <advance width="306.89"/>
  <unicode hex="0051"/>
  <note>
14
</note>
  <outline>
    <contour>
      <point x="208.01" y="-178.29" type="curve" smooth="yes"/>
      <point x="221.37" y="-178.29"/>
      <point x="238.37" y="-177.2"/>
      <point x="254.19" y="-171.38" type="curve"/>
      <point x="252.35" y="-142.59" type="line"/>
      <point x="240.62" y="-146.5"/>
      <point x="225.89" y="-148.5"/>
      <point x="212.89" y="-148.5" type="curve" smooth="yes"/>
      <point x="170.98" y="-148.5"/>
      <point x="132.42" y="-125.13"/>
      <point x="133.24" y="1.71" type="curve"/>
      <point x="105.34" y="-0.1100000000000001" type="line"/>
      <point x="103.98" y="-137.56"/>
      <point x="150.48" y="-178.29"/>
    </contour>
    <component base="O"/>
  </outline>
</glyph>
<glyph name="R" format="2">
  <advance width="263.3"/>
  <unicode hex="0052"/>
  <anchor x="105.38" y="0.0" name="bottom"/>
  <anchor x="187.58" y="700.0" name="top"/>
  <outline>
    <contour>
      <point x="-2.98" y="0.0" type="line"/>
      <point x="28.98" y="0.0" type="line"/>
      <point x="75.53999999999999" y="296.0" type="line"/>
      <point x="82.36" y="296.0"/>
      <point x="93.46" y="295.0"/>
      <point x="111.98" y="295.0" type="curve"/>
      <point x="111.98" y="295.0" type="line"/>
      <point x="211.88" y="295.0"/>
      <point x="283.76" y="408.44"/>
      <point x="283.76" y="575.34" type="curve" smooth="yes"/>
      <point x="283.76" y="669.76"/>
      <point x="249.34" y="710.0"/>
      <point x="180.02" y="710.0" type="curve" smooth="yes"/>
      <point x="157.7" y="710.0"/>
      <point x="133.54" y="707.82"/>
      <point x="108.2" y="703.64" type="curve"/>
    </contour>
    <contour>
      <point x="201.44" y="-10.0" type="curve" smooth="yes"/>
      <point x="208.98" y="-10.0"/>
      <point x="218.32" y="-6.82"/>
      <point x="222.04" y="-4.46" type="curve"/>
      <point x="220.2" y="26.479999999999997" type="line"/>
      <point x="215.38" y="24.66"/>
      <point x="213.2" y="24.66"/>
      <point x="211.2" y="24.66" type="curve" smooth="yes"/>
      <point x="194.22" y="25.479999999999997"/>
      <point x="193.7" y="41.92"/>
      <point x="154.58" y="319.22" type="curve"/>
      <point x="125.5" y="311.16" type="line"/>
      <point x="172.42" y="4.82"/>
      <point x="166.28" y="-10.0"/>
    </contour>
    <contour>
      <point x="117.82" y="326.7" type="curve" smooth="yes"/>
      <point x="103.9" y="326.7"/>
      <point x="92.44" y="326.88"/>
      <point x="81.16" y="327.88" type="curve"/>
      <point x="136.18" y="675.94" type="line"/>
      <point x="152.28" y="678.94"/>
      <point x="165.56" y="679.94"/>
      <point x="177.84" y="679.94" type="curve" smooth="yes"/>
      <point x="232.06" y="679.94"/>
      <point x="251.98" y="645.38"/>
      <point x="251.98" y="577.98" type="curve" smooth="yes"/>
      <point x="251.98" y="433.48"/>
      <point x="193.32" y="326.7"/>
    </contour>
  </outline>
</glyph>
<glyph name="S" format="2">
  <advance width="241.23"/>
  <unicode hex="0053"/>
  <anchor x="63.91" y="0.0" name="bottom"/>
  <anchor x="197.57" y="700.0" name="top"/>
  <outline>
    <contour>
      <point x="266.86" y="694.02" type="line"/>
      <point x="250.51" y="704.1"/>
      <point x="226.81" y="710.0"/>
      <point x="200.3" y="710.0" type="curve" smooth="yes"/>
      <point x="121.17" y="710.0"/>
      <point x="67.39" y="642.02"/>
      <point x="67.39" y="525.86" type="curve" smooth="yes"/>
      <point x="67.39" y="400.17"/>
      <point x="167.61" y="292.2"/>
      <point x="167.61" y="170.15" type="curve" smooth="yes"/>
      <point x="167.61" y="84.64"/>
      <point x="122.86" y="22.42"/>
      <point x="58.75" y="22.42" type="curve" smooth="yes"/>
      <point x="29.57" y="22.42"/>
      <point x="9.94" y="26.869999999999997"/>
      <point x="-9.85" y="37.769999999999996" type="curve"/>
      <point x="-24.45" y="8.34" type="line"/>
      <point x="-7.11" y="-3.2800000000000002"/>
      <point x="23.5" y="-10.0"/>
      <point x="56.01" y="-10.0" type="curve" smooth="yes"/>
      <point x="141.15" y="-10.0"/>
      <point x="200.39" y="65.53"/>
      <point x="200.39" y="175.06" type="curve" smooth="yes"/>
      <point x="200.39" y="300.2"/>
      <point x="100.71" y="406.62"/>
      <point x="100.71" y="528.58" type="curve" smooth="yes"/>
      <point x="100.71" y="622.45"/>
      <point x="142.36" y="679.4"/>
      <point x="199.01" y="679.4" type="curve" smooth="yes"/>
      <point x="222.01" y="679.4"/>
      <point x="235.63" y="676.22"/>
      <point x="253.44" y="666.86" type="curve"/>
    </contour>
  </outline>
</glyph>
<glyph name="T" format="2">
  <advance width="234.42"/>
  <unicode hex="0054"/>
  <anchor x="73.24996" y="0.0" name="bottom"/>
  <anchor x="129.19911" y="350.0" name="center"/>
  <anchor x="184.23817" y="700.0" name="top"/>
  <outline>
    <contour>
      <point x="291.26" y="669.03" type="line"/>
      <point x="296.24" y="700.0" type="line"/>
      <point x="72.27" y="700.0" type="line"/>
      <point x="67.29" y="669.03" type="line"/>
      <point x="162.93" y="669.03" type="line"/>
      <point x="56.82" y="0.0" type="line"/>
      <point x="88.69" y="0.0" type="line"/>
      <point x="194.8" y="669.03" type="line"/>
    </contour>
  </outline>
</glyph>
<glyph name="U" format="2">
  <advance width="297.9"/>
  <unicode hex="0055"/>
  <anchor x="104.98996" y="0.0" name="bottom"/>
  <anchor x="137.46" y="0.0" name="ogonek"/>
  <anchor x="214.15816999999998" y="700.0" name="top"/>
  <anchor x="324.91" y="700.0" name="topright"/>
  <outline>
    <contour>
      <point x="102.77" y="-10.0" type="curve" smooth="yes"/>
      <point x="178.72" y="-10.0"/>
      <point x="221.88" y="37.71"/>
      <point x="238.6" y="142.12" type="curve" smooth="yes"/>
      <point x="327.61" y="700.0" type="line"/>
      <point x="294.83" y="700.0" type="line"/>
      <point x="205.37" y="138.7" type="line" smooth="yes"/>
      <point x="193.36" y="60.730000000000004"/>
      <point x="162.79" y="21.06"/>
      <point x="109.75" y="21.06" type="curve" smooth="yes"/>
      <point x="59.53" y="21.06"/>
      <point x="35.51" y="58.18"/>
      <point x="45.79" y="120.5" type="curve" smooth="yes"/>
      <point x="136.25" y="700.0" type="line"/>
      <point x="104.38" y="700.0" type="line"/>
      <point x="13.55" y="119.37" type="line" smooth="yes"/>
      <point x="11.28" y="106.57"/>
      <point x="11.1" y="103.04"/>
      <point x="11.1" y="87.86" type="curve" smooth="yes"/>
      <point x="11.1" y="25.17"/>
      <point x="44.54" y="-10.0"/>
    </contour>
  </outline>
</glyph>
<glyph name="V" format="2">
  <advance width="267.2"/>
  <unicode hex="0056"/>
  <outline>
    <contour>
      <point x="109.38" y="0.0" type="line"/>
      <point x="264.31" y="460.16"/>
      <point x="305.39" y="573.94"/>
      <point x="307.91" y="661.53" type="curve" smooth="yes"/>
      <point x="308.0" y="674.99"/>
      <point x="307.18" y="685.63"/>
      <point x="304.45" y="700.0" type="curve"/>
      <point x="271.69" y="700.0" type="line"/>
      <point x="273.51" y="686.81"/>
      <point x="274.42" y="677.26"/>
      <point x="274.42" y="666.8" type="curve" smooth="yes"/>
      <point x="273.25" y="580.99"/>
      <point x="234.97" y="472.27"/>
      <point x="98.99" y="59.44" type="curve"/>
      <point x="109.58" y="700.0" type="line"/>
      <point x="74.19" y="700.0" type="line"/>
      <point x="69.2" y="0.0" type="line"/>
    </contour>
  </outline>
</glyph>
<glyph name="W" format="2">
  <advance width="446.64"/>
  <unicode hex="0057"/>
  <anchor x="176.82" y="0.0" name="bottom"/>
  <anchor x="297.1" y="700.0" name="top"/>
  <outline>
    <contour>
      <point x="284.24" y="-1.0" type="line"/>
      <point x="456.0" y="482.22"/>
      <point x="486.54" y="596.76"/>
      <point x="487.26" y="663.8" type="curve" smooth="yes"/>
      <point x="487.26" y="677.08"/>
      <point x="486.44" y="686.72"/>
      <point x="483.62" y="700.0" type="curve"/>
      <point x="450.58" y="700.0" type="line"/>
      <point x="452.4" y="687.72"/>
      <point x="454.22" y="678.08"/>
      <point x="454.22" y="666.8" type="curve" smooth="yes"/>
      <point x="453.68" y="593.8"/>
      <point x="431.32" y="505.32"/>
      <point x="278.68" y="64.5" type="curve"/>
      <point x="305.3" y="631.16" type="line"/>
      <point x="266.52" y="631.16" type="line"/>
      <point x="209.94" y="445.3"/>
      <point x="151.02" y="255.22"/>
      <point x="93.53999999999999" y="72.42" type="curve"/>
      <point x="109.5" y="700.0" type="line"/>
      <point x="76.1" y="700.0" type="line"/>
      <point x="62.48" y="-1.0" type="line"/>
      <point x="95.96" y="-1.0" type="line"/>
      <point x="158.06" y="194.32"/>
      <point x="218.18" y="382.4"/>
      <point x="276.68" y="571.96" type="curve"/>
      <point x="248.68" y="-1.0" type="line"/>
    </contour>
  </outline>
</glyph>
<glyph name="X" format="2">
  <advance width="290.5"/>
  <unicode hex="0058"/>
  <outline>
    <contour>
      <point x="218.0" y="-5.46" type="line"/>
      <point x="250.68" y="-1.0" type="line"/>
      <point x="175.02" y="342.5" type="line"/>
      <point x="261.88" y="488.32"/>
      <point x="320.66" y="588.14"/>
      <point x="320.66" y="700.0" type="curve"/>
      <point x="287.98" y="700.0" type="line"/>
      <point x="287.16" y="592.14"/>
      <point x="255.1" y="539.86"/>
      <point x="163.54" y="380.82" type="curve"/>
      <point x="93.03999999999999" y="705.64" type="line"/>
      <point x="62.9" y="700.36" type="line"/>
      <point x="137.38" y="355.14" type="line"/>
      <point x="56.46" y="221.8"/>
      <point x="-8.52" y="109.82"/>
      <point x="-6.0600000000000005" y="0.0" type="curve"/>
      <point x="26.16" y="0.0" type="line"/>
      <point x="23.7" y="98.02"/>
      <point x="77.1" y="203.26"/>
      <point x="148.96" y="317.54" type="curve"/>
    </contour>
  </outline>
</glyph>
<glyph name="Y" format="2">
  <advance width="258.48"/>
  <unicode hex="0059"/>
  <anchor x="84.1" y="0.0" name="bottom"/>
  <anchor x="194.19" y="700.0" name="top"/>
  <anchor x="92.91" y="700.0" name="topleft"/>
  <outline>
    <contour>
      <point x="67.08" y="0.0" type="line"/>
      <point x="98.68" y="0.0" type="line"/>
      <point x="148.15" y="305.37" type="line"/>
      <point x="212.31" y="403.04"/>
      <point x="274.95" y="519.93"/>
      <point x="304.19" y="657.17" type="curve" smooth="yes"/>
      <point x="307.19" y="671.72"/>
      <point x="309.37" y="686.36"/>
      <point x="311.46" y="700.91" type="curve"/>
      <point x="278.16" y="704.55" type="line"/>
      <point x="276.25" y="691.0"/>
      <point x="274.25" y="677.36"/>
      <point x="271.34" y="663.81" type="curve" smooth="yes"/>
      <point x="246.52" y="539.06"/>
      <point x="198.49" y="436.24"/>
      <point x="139.1" y="346.34" type="curve"/>
      <point x="107.67" y="703.64" type="line"/>
      <point x="74.1" y="700.91" type="line"/>
      <point x="114.73" y="305.37" type="line"/>
    </contour>
  </outline>
</glyph>
<glyph name="Z" format="2">
  <advance width="245.24"/>
  <unicode hex="005A"/>
  <anchor x="81.94" y="0.0" name="bottom"/>
  <anchor x="131.48" y="350.0" name="center"/>
  <anchor x="191.94" y="700.0" name="top"/>
  <outline>
    <contour>
      <point x="-31.18" y="0.0" type="line"/>
      <point x="194.52" y="0.0" type="line"/>
      <point x="199.68" y="31.240000000000002" type="line"/>
      <point x="8.219999999999999" y="31.240000000000002" type="line"/>
      <point x="289.8" y="671.68" type="line"/>
      <point x="293.96" y="700.0" type="line"/>
      <point x="97.1" y="700.0" type="line"/>
      <point x="92.12" y="668.76" type="line"/>
      <point x="255.56" y="668.76" type="line"/>
      <point x="-26.2" y="27.96" type="line"/>
    </contour>
  </outline>
</glyph>
<glyph name="bracketleft" format="2">
  <advance width="168.93"/>
  <unicode hex="005B"/>
  <outline>
    <contour>
      <point x="4.82" y="-180.3" type="line"/>
      <point x="146.4" y="710.3" type="line"/>
      <point x="230.86" y="710.3" type="line"/>
      <point x="235.84" y="740.0" type="line"/>
      <point x="121.21" y="740.0" type="line"/>
      <point x="-29.42" y="-210.0" type="line"/>
      <point x="84.21" y="-210.0" type="line"/>
      <point x="89.28" y="-180.3" type="line"/>
    </contour>
  </outline>
</glyph>
<glyph name="backslash" format="2">
  <advance width="281.32"/>
  <unicode hex="005C"/>
  <outline>
    <contour>
      <point x="102.35" y="740.0" type="line"/>
      <point x="73.73" y="740.0" type="line"/>
      <point x="216.15" y="-210.0" type="line"/>
      <point x="244.68" y="-210.0" type="line"/>
    </contour>
  </outline>
</glyph>
<glyph name="bracketright" format="2">
  <advance width="168.93"/>
  <unicode hex="005D"/>
  <outline>
    <contour>
      <point x="-64.02" y="-180.3" type="line"/>
      <point x="-69.0" y="-210.0" type="line"/>
      <point x="43.72" y="-210.0" type="line"/>
      <point x="195.35" y="740.0" type="line"/>
      <point x="81.63" y="740.0" type="line"/>
      <point x="76.56" y="710.3" type="line"/>
      <point x="161.02" y="710.3" type="line"/>
      <point x="19.35" y="-180.3" type="line"/>
    </contour>
  </outline>
</glyph>
<glyph name="asciicircum" format="2">
  <advance width="343.41"/>
  <unicode hex="005E"/>
  <outline>
    <contour>
      <point x="35.08" y="275.67" type="line"/>
      <point x="62.45" y="275.67" type="line"/>
      <point x="233.82" y="672.52" type="line"/>
      <point x="281.97" y="275.67" type="line"/>
      <point x="309.25" y="275.67" type="line"/>
      <point x="254.65" y="709.1" type="line"/>
      <point x="222.86" y="709.1" type="line"/>
    </contour>
  </outline>
</glyph>
<glyph name="underscore" format="2">
  <advance width="548.36"/>
  <unicode hex="005F"/>
  <outline>
    <contour>
      <point x="-66.08" y="-142.57" type="line"/>
      <point x="482.1" y="-142.57" type="line"/>
      <point x="487.44" y="-109.25" type="line"/>
      <point x="-60.74" y="-109.25" type="line"/>
    </contour>
  </outline>
</glyph>
<glyph name="a" format="2">
  <advance width="265.5"/>
  <unicode hex="0061"/>
  <note>
15
</note>
  <anchor x="95.93" y="0.0" name="bottom"/>
  <anchor x="237.06" y="1.26" name="ogonek"/>
  <anchor x="185.58" y="531.8" name="top"/>
  <outline>
    <contour>
      <point x="193.46" y="-10.0" type="curve" smooth="yes"/>
      <point x="208.9" y="-10.0"/>
      <point x="224.61" y="-5.46"/>
      <point x="237.06" y="1.26" type="curve"/>
      <point x="234.49" y="26.96" type="line"/>
      <point x="223.3" y="22.32"/>
      <point x="214.75" y="19.59"/>
      <point x="205.47" y="19.59" type="curve" smooth="yes"/>
      <point x="191.01" y="19.59"/>
      <point x="185.37" y="27.229999999999997"/>
      <point x="185.37" y="42.69" type="curve" smooth="yes"/>
      <point x="185.37" y="50.42"/>
      <point x="189.28" y="78.25"/>
      <point x="260.48" y="524.0" type="curve"/>
      <point x="242.51" y="534.81"/>
      <point x="220.09" y="541.8"/>
      <point x="197.04" y="541.8" type="curve" smooth="yes"/>
      <point x="86.53" y="541.8"/>
      <point x="15.92" y="373.95"/>
      <point x="15.92" y="136.53" type="curve" smooth="yes"/>
      <point x="15.92" y="39.26"/>
      <point x="42.27" y="-10.0"/>
      <point x="94.44" y="-10.0" type="curve" smooth="yes"/>
      <point x="120.43" y="-10.0"/>
      <point x="139.24" y="0.36"/>
      <point x="155.14" y="14.07" type="curve"/>
      <point x="160.49" y="0.18"/>
      <point x="174.3" y="-10.0"/>
    </contour>
    <contour>
      <point x="152.41" y="39.79" type="line"/>
      <point x="138.49" y="28.689999999999998"/>
      <point x="119.11" y="21.32"/>
      <point x="100.64" y="21.32" type="curve" smooth="yes"/>
      <point x="67.34" y="21.32"/>
      <point x="48.69" y="61.9"/>
      <point x="48.69" y="140.51" type="curve" smooth="yes"/>
      <point x="48.69" y="366.98"/>
      <point x="113.82" y="512.38"/>
      <point x="194.33" y="512.38" type="curve" smooth="yes"/>
      <point x="207.25" y="512.38"/>
      <point x="216.62" y="509.65"/>
      <point x="225.08" y="504.1" type="curve"/>
    </contour>
  </outline>
</glyph>
<glyph name="b" format="2">
  <advance width="269.97"/>
  <unicode hex="0062"/>
  <note>
12
</note>
  <outline>
    <contour>
      <point x="150.35" y="740.0" type="line"/>
      <point x="118.48" y="740.0" type="line"/>
      <point x="2.66" y="5.35" type="line"/>
      <point x="25.11" y="-4.92"/>
      <point x="44.9" y="-10.0"/>
      <point x="69.67" y="-10.0" type="curve" smooth="yes"/>
      <point x="191.78" y="-10.0"/>
      <point x="253.41" y="208.21"/>
      <point x="253.23" y="393.74" type="curve" smooth="yes"/>
      <point x="253.14" y="497.72"/>
      <point x="228.06" y="541.8"/>
      <point x="175.07" y="541.8" type="curve" smooth="yes"/>
      <point x="154.07" y="541.8"/>
      <point x="135.71" y="534.8"/>
      <point x="115.62" y="524.08" type="curve"/>
    </contour>
    <contour>
      <point x="166.23" y="510.39" type="curve" smooth="yes"/>
      <point x="208.81" y="510.39"/>
      <point x="221.0" y="459.35"/>
      <point x="221.0" y="390.2" type="curve" smooth="yes"/>
      <point x="221.0" y="216.7"/>
      <point x="165.7" y="20.06"/>
      <point x="71.63" y="20.06" type="curve" smooth="yes"/>
      <point x="59.62" y="20.06"/>
      <point x="47.519999999999996" y="22.79"/>
      <point x="38.15" y="28.34" type="curve"/>
      <point x="110.82" y="491.92" type="line"/>
      <point x="124.74" y="502.11"/>
      <point x="150.58" y="510.39"/>
    </contour>
  </outline>
</glyph>
<glyph name="c" format="2">
  <advance width="200.14"/>
  <unicode hex="0063"/>
  <note>
10
</note>
  <anchor x="99.32" y="0.0" name="bottom"/>
  <anchor x="180.76" y="531.8" name="top"/>
  <outline>
    <contour>
      <point x="100.2" y="-10.0" type="curve" smooth="yes"/>
      <point x="121.0" y="-10.0"/>
      <point x="140.88" y="-6.46"/>
      <point x="156.32" y="-0.74" type="curve"/>
      <point x="151.88" y="26.96" type="line"/>
      <point x="140.52" y="23.14"/>
      <point x="121.7" y="20.32"/>
      <point x="108.16" y="20.32" type="curve" smooth="yes"/>
      <point x="65.24" y="20.32"/>
      <point x="45.78" y="55.04"/>
      <point x="45.78" y="129.44" type="curve" smooth="yes"/>
      <point x="45.78" y="321.92"/>
      <point x="109.36" y="509.84"/>
      <point x="184.2" y="509.84" type="curve" smooth="yes"/>
      <point x="199.56" y="509.84"/>
      <point x="208.28" y="508.66"/>
      <point x="222.0" y="503.48" type="curve"/>
      <point x="233.5" y="533.9" type="line"/>
      <point x="215.6" y="539.44"/>
      <point x="202.9" y="541.8"/>
      <point x="187.02" y="541.8" type="curve" smooth="yes"/>
      <point x="87.28" y="541.8"/>
      <point x="14.28" y="347.94"/>
      <point x="14.28" y="121.48" type="curve" smooth="yes"/>
      <point x="14.28" y="35.88"/>
      <point x="44.34" y="-10.0"/>
    </contour>
  </outline>
</glyph>
<glyph name="d" format="2">
  <advance width="264.32"/>
  <unicode hex="0064"/>
  <note>
17
</note>
  <anchor x="89.45" y="0.0" name="bottom"/>
  <anchor x="139.85" y="361.45" name="center"/>
  <anchor x="195.12" y="740.0" name="top"/>
  <anchor x="354.07" y="740.0" name="topright"/>
  <outline>
    <contour>
      <point x="191.37" y="-10.0" type="curve" smooth="yes"/>
      <point x="204.81" y="-10.0"/>
      <point x="220.61" y="-6.46"/>
      <point x="234.97" y="1.26" type="curve"/>
      <point x="232.4" y="26.96" type="line"/>
      <point x="222.94" y="23.229999999999997"/>
      <point x="212.66" y="19.59"/>
      <point x="202.47" y="19.59" type="curve" smooth="yes"/>
      <point x="189.82999999999998" y="19.59"/>
      <point x="183.37" y="26.32"/>
      <point x="183.37" y="42.33" type="curve" smooth="yes"/>
      <point x="183.37" y="51.23"/>
      <point x="199.57" y="147.59"/>
      <point x="293.3" y="740.0" type="curve"/>
      <point x="261.52" y="740.0" type="line"/>
      <point x="228.61" y="533.08" type="line"/>
      <point x="212.52" y="538.62"/>
      <point x="199.07" y="541.8"/>
      <point x="183.62" y="541.8" type="curve" smooth="yes"/>
      <point x="78.8" y="541.8"/>
      <point x="14.28" y="351.94"/>
      <point x="14.28" y="121.49" type="curve" smooth="yes"/>
      <point x="14.28" y="33.62"/>
      <point x="40.36" y="-10.0"/>
      <point x="91.89" y="-10.0" type="curve" smooth="yes"/>
      <point x="116.06" y="-10.0"/>
      <point x="138.6" y="2.81"/>
      <point x="153.05" y="17.71" type="curve"/>
      <point x="159.31" y="-0.64"/>
      <point x="171.3" y="-10.0"/>
    </contour>
    <contour>
      <point x="98.55" y="22.229999999999997" type="curve" smooth="yes"/>
      <point x="64.16" y="22.229999999999997"/>
      <point x="45.69" y="59.62"/>
      <point x="45.69" y="117.94" type="curve" smooth="yes"/>
      <point x="45.69" y="322.68"/>
      <point x="100.45" y="512.38"/>
      <point x="188.78" y="512.38" type="curve" smooth="yes"/>
      <point x="200.79" y="512.38"/>
      <point x="209.98" y="509.65"/>
      <point x="223.9" y="505.01" type="curve"/>
      <point x="151.23" y="42.519999999999996" type="line"/>
      <point x="137.31" y="29.6"/>
      <point x="120.57" y="22.229999999999997"/>
    </contour>
  </outline>
</glyph>
<glyph name="e" format="2">
  <advance width="241.78"/>
  <unicode hex="0065"/>
  <note>
14 points
</note>
  <anchor x="115.48" y="0.0" name="bottom"/>
  <anchor x="173.92" y="0.0" name="ogonek"/>
  <anchor x="186.68" y="533.62" name="top"/>
  <outline>
    <contour>
      <point x="46.92" y="266.32" type="curve"/>
      <point x="41.58" y="237.88" type="line"/>
      <point x="68.84" y="243.16"/>
      <point x="98.74" y="252.98"/>
      <point x="126.46" y="267.8" type="curve" smooth="yes"/>
      <point x="203.44" y="309.08"/>
      <point x="260.34" y="383.34"/>
      <point x="260.34" y="467.68" type="curve" smooth="yes"/>
      <point x="260.34" y="511.28"/>
      <point x="241.0" y="541.8"/>
      <point x="196.32" y="541.8" type="curve" smooth="yes"/>
      <point x="92.84" y="541.8"/>
      <point x="18.92" y="385.28"/>
      <point x="18.92" y="166.24" type="curve" smooth="yes"/>
      <point x="18.92" y="52.26"/>
      <point x="49.98" y="-10.0"/>
      <point x="117.3" y="-10.0" type="curve" smooth="yes"/>
      <point x="143.28" y="-10.0"/>
      <point x="176.26" y="-2.64"/>
      <point x="197.6" y="10.8" type="curve"/>
      <point x="189.44" y="38.58" type="line"/>
      <point x="164.36" y="26.04"/>
      <point x="142.46" y="20.86"/>
      <point x="120.1" y="20.86" type="curve" smooth="yes"/>
      <point x="74.26" y="20.86"/>
      <point x="49.16" y="75.0"/>
      <point x="49.16" y="169.94" type="curve" smooth="yes"/>
      <point x="49.16" y="366.02"/>
      <point x="116.84" y="512.56"/>
      <point x="191.34" y="512.56" type="curve" smooth="yes"/>
      <point x="215.54" y="512.56"/>
      <point x="230.64" y="495.36"/>
      <point x="230.64" y="460.8" type="curve" smooth="yes"/>
      <point x="230.64" y="395.86"/>
      <point x="185.52" y="332.36"/>
      <point x="123.4" y="296.16" type="curve" smooth="yes"/>
      <point x="98.66" y="281.88"/>
      <point x="73.38" y="271.6"/>
    </contour>
  </outline>
</glyph>
<glyph name="f" format="2">
  <advance width="168.46"/>
  <unicode hex="0066"/>
  <outline>
    <contour>
      <point x="-74.68" y="-220.0" type="curve" smooth="yes"/>
      <point x="-8.0" y="-220.0"/>
      <point x="25.07" y="-165.56"/>
      <point x="40.879999999999995" y="-64.61" type="curve" smooth="yes"/>
      <point x="123.63" y="457.26" type="line"/>
      <point x="202.03" y="457.26" type="line"/>
      <point x="206.92" y="488.05" type="line"/>
      <point x="128.52" y="488.05" type="line"/>
      <point x="154.63" y="654.26"/>
      <point x="186.47" y="717.68"/>
      <point x="244.69" y="717.68" type="curve" smooth="yes"/>
      <point x="257.42" y="717.68"/>
      <point x="272.15" y="714.68"/>
      <point x="284.24" y="711.5" type="curve"/>
      <point x="294.93" y="741.02" type="line"/>
      <point x="277.76" y="747.01"/>
      <point x="262.32" y="750.0"/>
      <point x="246.9" y="750.0" type="curve" smooth="yes"/>
      <point x="169.09" y="750.0"/>
      <point x="125.84" y="676.91"/>
      <point x="96.65" y="488.05" type="curve"/>
      <point x="40.36" y="481.96" type="line"/>
      <point x="36.38" y="457.26" type="line"/>
      <point x="91.76" y="457.26" type="line"/>
      <point x="10.01" y="-59.88" type="line" smooth="yes"/>
      <point x="-2.45" y="-138.28"/>
      <point x="-23.82" y="-189.41"/>
      <point x="-78.31" y="-189.41" type="curve" smooth="yes"/>
      <point x="-91.68" y="-189.41"/>
      <point x="-102.59" y="-187.59"/>
      <point x="-118.41" y="-182.59" type="curve"/>
      <point x="-126.28" y="-212.01" type="line"/>
      <point x="-110.75" y="-217.64"/>
      <point x="-94.49" y="-220.0"/>
    </contour>
  </outline>
</glyph>
<glyph name="g" format="2">
  <advance width="263.96"/>
  <unicode hex="0067"/>
  <note>
16
</note>
  <anchor x="49.66" y="-210.9" name="bottom"/>
  <anchor x="181.76" y="531.8" name="top"/>
  <outline>
    <contour>
      <point x="-9.34" y="-210.12" type="line"/>
      <point x="8.44" y="-217.1"/>
      <point x="29.04" y="-220.0"/>
      <point x="49.48" y="-220.0" type="curve" smooth="yes"/>
      <point x="113.06" y="-220.0"/>
      <point x="148.48" y="-173.02"/>
      <point x="165.38" y="-64.16" type="curve" smooth="yes"/>
      <point x="260.48" y="525.9" type="line"/>
      <point x="241.22" y="535.26"/>
      <point x="219.9" y="541.8"/>
      <point x="199.12" y="541.8" type="curve" smooth="yes"/>
      <point x="75.36" y="541.8"/>
      <point x="14.92" y="338.3"/>
      <point x="14.92" y="137.26" type="curve" smooth="yes"/>
      <point x="14.92" y="45.7"/>
      <point x="40.1" y="-8.38"/>
      <point x="89.08" y="-8.38" type="curve" smooth="yes"/>
      <point x="108.08" y="-8.38"/>
      <point x="127.98" y="-2.38"/>
      <point x="146.7" y="11.8" type="curve"/>
      <point x="135.6" y="-61.7" type="line" smooth="yes"/>
      <point x="120.68" y="-156.02"/>
      <point x="95.68" y="-189.86"/>
      <point x="48.2" y="-189.86" type="curve" smooth="yes"/>
      <point x="32.48" y="-189.86"/>
      <point x="16.06" y="-186.96"/>
      <point x="-1.02" y="-181.24" type="curve"/>
    </contour>
    <contour>
      <point x="224.9" y="505.64" type="curve"/>
      <point x="151.32" y="42.24" type="line"/>
      <point x="139.22" y="30.32"/>
      <point x="116.2" y="22.04"/>
      <point x="99.64" y="22.04" type="curve" smooth="yes"/>
      <point x="66.16" y="22.04"/>
      <point x="47.42" y="63.9"/>
      <point x="47.42" y="143.72" type="curve" smooth="yes"/>
      <point x="47.42" y="328.88"/>
      <point x="106.92" y="513.1"/>
      <point x="194.7" y="513.1" type="curve" smooth="yes"/>
      <point x="202.34" y="513.1"/>
      <point x="213.62" y="510.28"/>
    </contour>
  </outline>
</glyph>
<glyph name="h" format="2">
  <advance width="272.06"/>
  <unicode hex="0068"/>
  <note>
16
</note>
  <anchor x="95.58" y="0.0" name="bottom"/>
  <anchor x="151.85" y="370.0" name="center"/>
  <anchor x="213.4" y="740.0" name="top"/>
  <outline>
    <contour>
      <point x="191.75" y="43.33" type="curve" smooth="yes"/>
      <point x="191.75" y="72.26"/>
      <point x="256.13" y="444.64"/>
      <point x="256.13" y="470.82" type="curve" smooth="yes"/>
      <point x="256.13" y="511.62"/>
      <point x="238.96" y="541.8"/>
      <point x="194.06" y="541.8" type="curve" smooth="yes"/>
      <point x="168.25" y="541.8"/>
      <point x="137.79" y="531.8"/>
      <point x="115.26" y="517.27" type="curve"/>
      <point x="150.35" y="740.0" type="line"/>
      <point x="118.48" y="740.0" type="line"/>
      <point x="1.3900000000000001" y="0.0" type="line"/>
      <point x="33.26" y="0.0" type="line"/>
      <point x="109.91" y="486.28" type="line"/>
      <point x="128.65" y="500.38"/>
      <point x="160.04" y="510.57"/>
      <point x="177.78" y="510.57" type="curve" smooth="yes"/>
      <point x="213.9" y="510.57"/>
      <point x="222.36" y="488.37"/>
      <point x="222.36" y="460.53" type="curve" smooth="yes"/>
      <point x="222.36" y="437.34"/>
      <point x="159.89" y="69.86"/>
      <point x="159.89" y="32.769999999999996" type="curve" smooth="yes"/>
      <point x="159.89" y="5.699999999999999"/>
      <point x="179.33" y="-10.0"/>
      <point x="202.93" y="-10.0" type="curve" smooth="yes"/>
      <point x="214.55" y="-10.0"/>
      <point x="226.17" y="-8.19"/>
      <point x="240.8" y="-0.47" type="curve"/>
      <point x="239.14" y="26.14" type="line"/>
      <point x="227.95" y="21.5"/>
      <point x="221.22" y="20.59"/>
      <point x="215.58" y="20.59" type="curve" smooth="yes"/>
      <point x="197.66" y="20.59"/>
      <point x="191.75" y="28.96"/>
    </contour>
  </outline>
</glyph>
<glyph name="i" format="2">
  <advance width="122.74"/>
  <unicode hex="0069"/>
  <note>
Ajuster pts sur points
8
</note>
  <anchor x="16.96" y="0.0" name="bottom"/>
  <anchor x="33.35" y="0.0" name="ogonek"/>
  <anchor x="101.23" y="531.8" name="top"/>
  <outline>
    <contour>
      <point x="2.39" y="0.0" type="line"/>
      <point x="33.35" y="0.0" type="line"/>
      <point x="117.62" y="531.8" type="line"/>
      <point x="85.75" y="531.8" type="line"/>
    </contour>
    <contour>
      <point x="132.13" y="717.2" type="curve" smooth="yes"/>
      <point x="112.19" y="717.2"/>
      <point x="109.4" y="708.81"/>
      <point x="106.67" y="680.76" type="curve" smooth="yes"/>
      <point x="105.76" y="668.71"/>
      <point x="112.65" y="666.37"/>
      <point x="122.52" y="666.37" type="curve" smooth="yes"/>
      <point x="142.55" y="666.37"/>
      <point x="145.25" y="674.94"/>
      <point x="147.98" y="702.9" type="curve" smooth="yes"/>
      <point x="148.89" y="714.95"/>
      <point x="141.91" y="717.2"/>
    </contour>
  </outline>
</glyph>
<glyph name="j" format="2">
  <advance width="131.02"/>
  <unicode hex="006A"/>
  <note>
idem /i
12
</note>
  <outline>
    <contour>
      <point x="140.41" y="717.2" type="curve" smooth="yes"/>
      <point x="120.47" y="717.2"/>
      <point x="117.68" y="708.81"/>
      <point x="114.95" y="680.76" type="curve" smooth="yes"/>
      <point x="114.04" y="668.71"/>
      <point x="121.02" y="666.37"/>
      <point x="130.89" y="666.37" type="curve" smooth="yes"/>
      <point x="150.83" y="666.37"/>
      <point x="153.53" y="674.94"/>
      <point x="156.26" y="702.9" type="curve" smooth="yes"/>
      <point x="157.17" y="714.95"/>
      <point x="150.19" y="717.2"/>
    </contour>
    <contour>
      <point x="125.99" y="531.8" type="line"/>
      <point x="94.03" y="531.8" type="line"/>
      <point x="0.6600000000000001" y="-59.34" type="line" smooth="yes"/>
      <point x="-11.8" y="-137.74"/>
      <point x="-33.08" y="-189.41"/>
      <point x="-87.57" y="-189.41" type="curve" smooth="yes"/>
      <point x="-101.94" y="-189.41"/>
      <point x="-112.85" y="-187.59"/>
      <point x="-128.58" y="-182.59" type="curve"/>
      <point x="-136.0" y="-212.19" type="line"/>
      <point x="-120.47" y="-217.82"/>
      <point x="-103.58" y="-220.0"/>
      <point x="-84.22" y="-220.0" type="curve" smooth="yes"/>
      <point x="-16.630000000000003" y="-220.0"/>
      <point x="15.719999999999999" y="-166.56"/>
      <point x="31.619999999999997" y="-64.16" type="curve" smooth="yes"/>
    </contour>
  </outline>
</glyph>
<glyph name="k" format="2">
  <advance width="258.06"/>
  <unicode hex="006B"/>
  <anchor x="106.76" y="0.0" name="bottom"/>
  <anchor x="134.96" y="740.0" name="top"/>
  <outline>
    <contour>
      <point x="1.48" y="0.0" type="line"/>
      <point x="33.44" y="0.0" type="line"/>
      <point x="150.44" y="740.0" type="line"/>
      <point x="118.48" y="740.0" type="line"/>
    </contour>
    <contour>
      <point x="214.48" y="-10.0" type="curve" smooth="yes"/>
      <point x="221.38" y="-10.0"/>
      <point x="228.28" y="-9.0"/>
      <point x="236.18" y="-5.64" type="curve"/>
      <point x="235.88" y="24.759999999999998" type="line"/>
      <point x="229.7" y="22.939999999999998"/>
      <point x="224.7" y="22.119999999999997"/>
      <point x="220.52" y="22.299999999999997" type="curve" smooth="yes"/>
      <point x="194.88" y="23.2"/>
      <point x="174.06" y="55.22"/>
      <point x="135.34" y="171.62" type="curve" smooth="yes"/>
      <point x="80.08" y="339.12" type="line"/>
      <point x="66.28" y="296.16" type="line"/>
      <point x="122.3" y="124.22" type="line" smooth="yes"/>
      <point x="156.12" y="20.08"/>
      <point x="178.76" y="-10.0"/>
    </contour>
    <contour>
      <point x="104.94" y="243.38" type="line"/>
      <point x="175.66" y="305.08"/>
      <point x="241.66" y="413.7"/>
      <point x="281.04" y="533.26" type="curve"/>
      <point x="251.98" y="540.98" type="line"/>
      <point x="210.5" y="417.96"/>
      <point x="158.86" y="333.02"/>
      <point x="92.56" y="271.56" type="curve"/>
    </contour>
  </outline>
</glyph>
<glyph name="l" format="2">
  <advance width="128.56"/>
  <unicode hex="006C"/>
  <anchor x="54.98" y="0.0" name="bottom"/>
  <anchor x="76.41" y="370.0" name="center"/>
  <anchor x="133.96" y="740.0" name="top"/>
  <anchor x="211.12" y="740.0" name="topright"/>
  <outline>
    <contour>
      <point x="118.48" y="740.0" type="line"/>
      <point x="10.47" y="58.12" type="line" smooth="yes"/>
      <point x="9.38" y="49.76"/>
      <point x="8.38" y="41.22"/>
      <point x="8.38" y="33.95" type="curve" smooth="yes"/>
      <point x="8.38" y="6.07"/>
      <point x="21.09" y="-10.0"/>
      <point x="53.79" y="-10.0" type="curve" smooth="yes"/>
      <point x="67.23" y="-10.0"/>
      <point x="84.94" y="-6.37"/>
      <point x="98.39" y="-0.47" type="curve"/>
      <point x="96.73" y="26.14" type="line"/>
      <point x="82.81" y="21.5"/>
      <point x="72.44" y="19.68"/>
      <point x="64.98" y="19.68" type="curve" smooth="yes"/>
      <point x="46.15" y="19.68"/>
      <point x="40.42" y="26.5"/>
      <point x="40.42" y="38.41" type="curve" smooth="yes"/>
      <point x="40.42" y="48.87"/>
      <point x="43.24" y="62.24"/>
      <point x="46.97" y="86.53" type="curve" smooth="yes"/>
      <point x="150.35" y="740.0" type="line"/>
    </contour>
  </outline>
</glyph>
<glyph name="m" format="2">
  <advance width="407.46"/>
  <unicode hex="006D"/>
  <note>
24&gt;23 points
un point de trop dans la jointure avec 2e jambage
</note>
  <outline>
    <contour>
      <point x="338.06" y="-10.0" type="curve" smooth="yes"/>
      <point x="349.68" y="-10.0"/>
      <point x="361.84" y="-8.19"/>
      <point x="376.2" y="-0.47" type="curve"/>
      <point x="374.54" y="26.14" type="line"/>
      <point x="363.35" y="21.5"/>
      <point x="356.62" y="20.59"/>
      <point x="350.98" y="20.59" type="curve" smooth="yes"/>
      <point x="333.06" y="20.59"/>
      <point x="326.24" y="29.229999999999997"/>
      <point x="326.24" y="43.87" type="curve" smooth="yes"/>
      <point x="326.24" y="74.42"/>
      <point x="390.62" y="445.27"/>
      <point x="390.62" y="471.36" type="curve" smooth="yes"/>
      <point x="390.62" y="511.44"/>
      <point x="374.45" y="541.8"/>
      <point x="329.46" y="541.8" type="curve" smooth="yes"/>
      <point x="307.47" y="541.8"/>
      <point x="274.02" y="533.71"/>
      <point x="241.76" y="509.27" type="curve"/>
      <point x="231.76" y="529.35"/>
      <point x="211.31" y="541.8"/>
      <point x="186.05" y="541.8" type="curve" smooth="yes"/>
      <point x="162.97" y="541.8"/>
      <point x="135.98" y="530.98"/>
      <point x="112.09" y="515.82" type="curve"/>
      <point x="115.36" y="531.8" type="line"/>
      <point x="84.84" y="531.8" type="line"/>
      <point x="0.5700000000000003" y="0.0" type="line"/>
      <point x="32.44" y="0.0" type="line"/>
      <point x="109.0" y="487.19" type="line"/>
      <point x="127.65" y="501.2"/>
      <point x="152.85" y="510.57"/>
      <point x="174.32" y="510.57" type="curve" smooth="yes"/>
      <point x="203.16" y="510.57"/>
      <point x="216.08" y="491.1"/>
      <point x="216.08" y="464.17" type="curve" smooth="yes"/>
      <point x="216.08" y="432.6"/>
      <point x="146.41" y="14.58"/>
      <point x="143.98" y="0.0" type="curve"/>
      <point x="176.67" y="0.0" type="line"/>
      <point x="178.47" y="10.889999999999999"/>
      <point x="246.61" y="429.55"/>
      <point x="248.41" y="469.56" type="curve" smooth="yes"/>
      <point x="248.5" y="474.74"/>
      <point x="247.77" y="480.28"/>
      <point x="246.95" y="484.46" type="curve"/>
      <point x="265.69" y="498.56"/>
      <point x="291.71" y="510.57"/>
      <point x="316.73" y="510.57" type="curve" smooth="yes"/>
      <point x="347.39" y="510.57"/>
      <point x="356.76" y="488.37"/>
      <point x="356.76" y="460.53" type="curve" smooth="yes"/>
      <point x="356.76" y="434.61"/>
      <point x="294.29" y="70.67"/>
      <point x="294.29" y="33.04" type="curve" smooth="yes"/>
      <point x="294.29" y="5.16"/>
      <point x="314.46" y="-10.0"/>
    </contour>
  </outline>
</glyph>
<glyph name="n" format="2">
  <advance width="270.24"/>
  <unicode hex="006E"/>
  <note>
16
</note>
  <anchor x="103.85" y="0.0" name="bottom"/>
  <anchor x="174.21" y="531.8" name="top"/>
  <outline>
    <contour>
      <point x="84.84" y="531.8" type="line"/>
      <point x="0.5700000000000003" y="0.0" type="line"/>
      <point x="32.44" y="0.0" type="line"/>
      <point x="109.09" y="486.28" type="line"/>
      <point x="127.83" y="500.38"/>
      <point x="158.22" y="511.48"/>
      <point x="176.05" y="511.48" type="curve" smooth="yes"/>
      <point x="212.17" y="511.48"/>
      <point x="221.54" y="488.37"/>
      <point x="221.54" y="460.53" type="curve" smooth="yes"/>
      <point x="221.54" y="436.35"/>
      <point x="159.07" y="70.67"/>
      <point x="159.07" y="32.32" type="curve" smooth="yes"/>
      <point x="159.07" y="5.79"/>
      <point x="177.42" y="-10.0"/>
      <point x="201.02" y="-10.0" type="curve" smooth="yes"/>
      <point x="212.64" y="-10.0"/>
      <point x="224.62" y="-8.19"/>
      <point x="238.98" y="-0.47" type="curve"/>
      <point x="237.32" y="26.14" type="line"/>
      <point x="226.13" y="21.5"/>
      <point x="219.4" y="20.59"/>
      <point x="213.76" y="20.59" type="curve" smooth="yes"/>
      <point x="195.84" y="20.59"/>
      <point x="190.84" y="28.96"/>
      <point x="190.84" y="43.33" type="curve" smooth="yes"/>
      <point x="190.84" y="72.26"/>
      <point x="255.31" y="444.64"/>
      <point x="255.31" y="470.82" type="curve" smooth="yes"/>
      <point x="255.31" y="511.62"/>
      <point x="237.23" y="541.8"/>
      <point x="192.33" y="541.8" type="curve" smooth="yes"/>
      <point x="166.52" y="541.8"/>
      <point x="134.98" y="530.07"/>
      <point x="112.0" y="514.91" type="curve"/>
      <point x="115.18" y="531.8" type="line"/>
    </contour>
  </outline>
</glyph>
<glyph name="o" format="2">
  <advance width="261.78"/>
  <unicode hex="006F"/>
  <note>
8
</note>
  <anchor x="89.12" y="0.0" name="bottom"/>
  <anchor x="131.3" y="265.9" name="center"/>
  <anchor x="126.18" y="1.6400000000000001" name="ogonek"/>
  <anchor x="174.22" y="531.8" name="top"/>
  <anchor x="224.82" y="521.8" name="topright"/>
  <outline>
    <contour>
      <point x="92.56" y="-10.0" type="curve" smooth="yes"/>
      <point x="208.88" y="-10.0"/>
      <point x="246.5" y="304.58"/>
      <point x="246.5" y="429.22" type="curve" smooth="yes"/>
      <point x="246.5" y="521.2"/>
      <point x="220.06" y="540.98"/>
      <point x="166.4" y="540.98" type="curve" smooth="yes"/>
      <point x="50.08" y="540.98"/>
      <point x="12.46" y="226.4"/>
      <point x="12.46" y="101.94" type="curve" smooth="yes"/>
      <point x="12.46" y="9.96"/>
      <point x="39.08" y="-10.0"/>
    </contour>
    <contour>
      <point x="92.92" y="19.78" type="curve" smooth="yes"/>
      <point x="62.44" y="19.78"/>
      <point x="43.06" y="31.88"/>
      <point x="43.06" y="100.3" type="curve" smooth="yes"/>
      <point x="43.06" y="188.72"/>
      <point x="79.34" y="511.2"/>
      <point x="166.22" y="511.2" type="curve" smooth="yes"/>
      <point x="196.7" y="511.2"/>
      <point x="216.08" y="499.28"/>
      <point x="216.08" y="430.86" type="curve" smooth="yes"/>
      <point x="216.08" y="342.26"/>
      <point x="179.8" y="19.78"/>
    </contour>
  </outline>
</glyph>
<glyph name="p" format="2">
  <advance width="270.06"/>
  <unicode hex="0070"/>
  <note>
14 point
</note>
  <outline>
    <contour>
      <point x="-31.52" y="-210.0" type="line"/>
      <point x="-0.6500000000000004" y="-210.0" type="line"/>
      <point x="32.35" y="-3.0" type="line"/>
      <point x="46.08" y="-7.73"/>
      <point x="59.26" y="-9.82"/>
      <point x="75.16" y="-9.82" type="curve" smooth="yes"/>
      <point x="185.68" y="-9.82"/>
      <point x="253.23" y="191.19"/>
      <point x="253.23" y="393.29" type="curve" smooth="yes"/>
      <point x="253.23" y="496.36"/>
      <point x="229.51" y="541.8"/>
      <point x="175.52" y="541.8" type="curve" smooth="yes"/>
      <point x="152.72" y="541.8"/>
      <point x="134.18" y="533.36"/>
      <point x="114.99" y="522.91" type="curve"/>
      <point x="112.72" y="540.9" type="line"/>
      <point x="86.66" y="540.9" type="line"/>
    </contour>
    <contour>
      <point x="71.63" y="20.06" type="curve" smooth="yes"/>
      <point x="59.62" y="20.06"/>
      <point x="47.519999999999996" y="21.88"/>
      <point x="37.24" y="27.43" type="curve"/>
      <point x="110.82" y="492.01" type="line"/>
      <point x="124.65" y="501.2"/>
      <point x="150.4" y="510.39"/>
      <point x="166.23" y="510.39" type="curve" smooth="yes"/>
      <point x="203.17" y="510.39"/>
      <point x="221.0" y="471.9"/>
      <point x="221.0" y="389.3" type="curve" smooth="yes"/>
      <point x="221.0" y="207.49"/>
      <point x="162.33" y="20.06"/>
    </contour>
  </outline>
</glyph>
<glyph name="q" format="2">
  <advance width="263.23"/>
  <unicode hex="0071"/>
  <note>
12
</note>
  <outline>
    <contour>
      <point x="259.66" y="526.45" type="line"/>
      <point x="238.58" y="534.9"/>
      <point x="214.71" y="541.8"/>
      <point x="190.3" y="541.8" type="curve" smooth="yes"/>
      <point x="49.68" y="541.8"/>
      <point x="14.1" y="263.39"/>
      <point x="14.1" y="119.87" type="curve" smooth="yes"/>
      <point x="14.1" y="27.07"/>
      <point x="46.55" y="-10.0"/>
      <point x="89.34" y="-10.0" type="curve" smooth="yes"/>
      <point x="113.98" y="-10.0"/>
      <point x="131.61" y="0.0"/>
      <point x="145.7" y="10.36" type="curve"/>
      <point x="108.88" y="-210.0" type="line"/>
      <point x="142.39" y="-210.0" type="line"/>
    </contour>
    <contour>
      <point x="224.08" y="505.01" type="curve"/>
      <point x="150.5" y="41.61" type="line"/>
      <point x="136.58" y="28.689999999999998"/>
      <point x="115.29" y="21.32"/>
      <point x="98.73" y="21.32" type="curve" smooth="yes"/>
      <point x="61.61" y="21.32"/>
      <point x="44.96" y="66.9"/>
      <point x="44.96" y="115.94" type="curve" smooth="yes"/>
      <point x="44.96" y="279.74"/>
      <point x="86.8" y="512.38"/>
      <point x="188.87" y="512.38" type="curve" smooth="yes"/>
      <point x="198.15" y="512.38"/>
      <point x="211.07" y="509.65"/>
    </contour>
  </outline>
</glyph>
<glyph name="r" format="2">
  <advance width="181.82"/>
  <unicode hex="0072"/>
  <anchor x="15.96" y="0.0" name="bottom"/>
  <anchor x="155.85" y="531.8" name="top"/>
  <outline>
    <contour>
      <point x="115.18" y="531.8" type="line"/>
      <point x="84.84" y="531.8" type="line"/>
      <point x="0.5700000000000003" y="0.0" type="line"/>
      <point x="32.17" y="0.0" type="line"/>
      <point x="104.73" y="459.74" type="line"/>
      <point x="135.2" y="494.22"/>
      <point x="160.76" y="508.05"/>
      <point x="186.59" y="508.05" type="curve" smooth="yes"/>
      <point x="198.05" y="508.05"/>
      <point x="209.5" y="506.14"/>
      <point x="221.41" y="502.14" type="curve"/>
      <point x="232.64" y="534.62" type="line"/>
      <point x="220.37" y="539.89"/>
      <point x="207.55" y="541.8"/>
      <point x="193.55" y="541.8" type="curve" smooth="yes"/>
      <point x="164.27" y="541.8"/>
      <point x="132.99" y="524.98"/>
      <point x="109.09" y="497.72" type="curve"/>
    </contour>
  </outline>
</glyph>
<glyph name="s" format="2">
  <advance width="220.52"/>
  <unicode hex="0073"/>
  <anchor x="58.84" y="0.0" name="bottom"/>
  <anchor x="165.58" y="531.8" name="top"/>
  <outline>
    <contour>
      <point x="-17.44" y="6.8" type="line"/>
      <point x="2.54" y="-4.28"/>
      <point x="28.34" y="-10.0"/>
      <point x="56.66" y="-10.0" type="curve" smooth="yes"/>
      <point x="146.0" y="-10.0"/>
      <point x="185.14" y="72.58"/>
      <point x="185.14" y="144.14" type="curve" smooth="yes"/>
      <point x="185.14" y="252.1"/>
      <point x="84.82" y="308.62"/>
      <point x="84.82" y="399.74" type="curve" smooth="yes"/>
      <point x="84.82" y="455.14"/>
      <point x="115.84" y="510.02"/>
      <point x="169.96" y="510.02" type="curve" smooth="yes"/>
      <point x="191.68" y="510.02"/>
      <point x="209.66" y="502.84"/>
      <point x="225.28" y="495.3" type="curve"/>
      <point x="237.34" y="524.9" type="line"/>
      <point x="223.08" y="534.44"/>
      <point x="198.56" y="541.8"/>
      <point x="173.5" y="541.8" type="curve" smooth="yes"/>
      <point x="89.92" y="541.8"/>
      <point x="53.4" y="463.72"/>
      <point x="53.4" y="399.22" type="curve" smooth="yes"/>
      <point x="53.4" y="282.72"/>
      <point x="152.9" y="238.66"/>
      <point x="152.9" y="141.34" type="curve" smooth="yes"/>
      <point x="152.9" y="82.02"/>
      <point x="119.24" y="21.42"/>
      <point x="59.48" y="21.42" type="curve" smooth="yes"/>
      <point x="37.4" y="21.42"/>
      <point x="15.06" y="26.14"/>
      <point x="-4.84" y="36.5" type="curve"/>
    </contour>
  </outline>
</glyph>
<glyph name="u" format="2">
  <advance width="270.06"/>
  <unicode hex="0075"/>
  <note>
15
</note>
  <anchor x="94.21" y="0.0" name="bottom"/>
  <anchor x="238.89" y="1.3499999999999999" name="ogonek"/>
  <anchor x="173.53004" y="531.8" name="top"/>
  <anchor x="260.97" y="531.8" name="topright"/>
  <outline>
    <contour>
      <point x="73.08" y="-10.0" type="curve" smooth="yes"/>
      <point x="101.25" y="-10.0"/>
      <point x="127.25" y="0.63"/>
      <point x="156.88" y="22.34" type="curve"/>
      <point x="160.6" y="0.43999999999999995"/>
      <point x="176.22" y="-10.0"/>
      <point x="197.29" y="-10.0" type="curve" smooth="yes"/>
      <point x="207.09" y="-10.0"/>
      <point x="226.35" y="-5.46"/>
      <point x="238.89" y="1.3499999999999999" type="curve"/>
      <point x="236.32" y="26.96" type="line"/>
      <point x="225.13" y="22.32"/>
      <point x="213.85" y="19.59"/>
      <point x="207.3" y="19.59" type="curve" smooth="yes"/>
      <point x="191.2" y="19.59"/>
      <point x="187.29" y="29.14"/>
      <point x="187.29" y="40.14" type="curve" smooth="yes"/>
      <point x="187.29" y="50.6"/>
      <point x="190.11" y="70.43"/>
      <point x="263.67" y="531.8" type="curve"/>
      <point x="232.07" y="531.8" type="line"/>
      <point x="156.24" y="48.980000000000004" type="line"/>
      <point x="131.13" y="29.42"/>
      <point x="106.29" y="20.14"/>
      <point x="84.73" y="20.14" type="curve" smooth="yes"/>
      <point x="57.62" y="20.14"/>
      <point x="42.7" y="40.79"/>
      <point x="42.879999999999995" y="66.26" type="curve" smooth="yes"/>
      <point x="44.5" y="89.44"/>
      <point x="47.48" y="107.86"/>
      <point x="113.8" y="531.8" type="curve"/>
      <point x="82.11" y="531.8" type="line"/>
      <point x="34.38" y="219.22"/>
      <point x="10.2" y="97.04"/>
      <point x="10.2" y="53.06" type="curve" smooth="yes"/>
      <point x="10.2" y="14.62"/>
      <point x="34.74" y="-10.0"/>
    </contour>
  </outline>
</glyph>
<glyph name="v" format="2">
  <advance width="239.86"/>
  <unicode hex="0076"/>
  <outline>
    <contour>
      <point x="96.85" y="-3.64" type="line"/>
      <point x="205.88" y="335.06"/>
      <point x="253.21" y="417.32"/>
      <point x="253.66" y="531.8" type="curve"/>
      <point x="221.34" y="531.8" type="line"/>
      <point x="218.61" y="426.38"/>
      <point x="196.9" y="387.37"/>
      <point x="84.01" y="43.97" type="curve"/>
      <point x="86.88" y="531.8" type="line"/>
      <point x="54.11" y="531.8" type="line"/>
      <point x="57.75" y="-3.64" type="line"/>
    </contour>
  </outline>
</glyph>
<glyph name="w" format="2">
  <advance width="406.99"/>
  <unicode hex="0077"/>
  <note>
15
</note>
  <anchor x="172.19" y="0.0" name="bottom"/>
  <anchor x="237.55" y="531.8" name="top"/>
  <outline>
    <contour>
      <point x="282.45" y="0.0" type="line"/>
      <point x="387.83" y="364.51"/>
      <point x="410.51" y="408.75"/>
      <point x="418.79" y="531.8" type="curve"/>
      <point x="386.74" y="531.8" type="line"/>
      <point x="376.28" y="408.17"/>
      <point x="360.75" y="368.07"/>
      <point x="270.33" y="48.42" type="curve"/>
      <point x="254.37" y="478.11" type="line"/>
      <point x="217.97" y="478.11" type="line"/>
      <point x="177.32" y="333.91"/>
      <point x="137.58" y="189.8"/>
      <point x="96.93" y="45.6" type="curve"/>
      <point x="80.6" y="531.8" type="line"/>
      <point x="48.65" y="531.8" type="line"/>
      <point x="70.49" y="0.0" type="line"/>
      <point x="108.96" y="0.0" type="line"/>
      <point x="148.89" y="140.95"/>
      <point x="189.64" y="282.81"/>
      <point x="229.57" y="423.76" type="curve"/>
      <point x="244.88" y="0.0" type="line"/>
    </contour>
  </outline>
</glyph>
<glyph name="x" format="2">
  <advance width="236.72"/>
  <unicode hex="0078"/>
  <outline>
    <contour>
      <point x="213.39" y="531.8" type="line"/>
      <point x="213.39" y="466.53"/>
      <point x="190.75" y="386.4"/>
      <point x="125.53999999999999" y="290.11" type="curve"/>
      <point x="89.77" y="535.44" type="line"/>
      <point x="57.92" y="531.8" type="line"/>
      <point x="98.57" y="267.99" type="line"/>
      <point x="25.27" y="162.79"/>
      <point x="-12.63" y="73.7"/>
      <point x="-13.62" y="0.0" type="curve"/>
      <point x="17.96" y="0.0" type="line"/>
      <point x="19.5" y="72.46"/>
      <point x="54.06" y="149.29"/>
      <point x="113.82" y="239.32" type="curve"/>
      <point x="149.31" y="-1.82" type="line"/>
      <point x="181.43" y="0.91" type="line"/>
      <point x="140.79" y="262.35" type="line"/>
      <point x="216.34" y="364.15"/>
      <point x="246.25" y="465.68"/>
      <point x="246.25" y="531.8" type="curve"/>
    </contour>
  </outline>
</glyph>
<glyph name="y" format="2">
  <advance width="238.22"/>
  <unicode hex="0079"/>
  <anchor x="59.3" y="-210.0" name="bottom"/>
  <anchor x="148.74" y="531.8" name="top"/>
  <outline>
    <contour>
      <point x="224.06" y="540.9" type="line"/>
      <point x="194.58" y="330.64"/>
      <point x="146.38" y="180.78"/>
      <point x="95.74" y="38.96" type="curve"/>
      <point x="76.7" y="540.9" type="line"/>
      <point x="45.1" y="539.08" type="line"/>
      <point x="66.68" y="0.0" type="line"/>
      <point x="77.44" y="0.0" type="line"/>
      <point x="49.16" y="-76.2"/>
      <point x="17.98" y="-145.3"/>
      <point x="-14.0" y="-210.0" type="curve"/>
      <point x="16.5" y="-219.1" type="line"/>
      <point x="125.18" y="9.24"/>
      <point x="216.64" y="273.78"/>
      <point x="255.02" y="537.26" type="curve"/>
    </contour>
  </outline>
</glyph>
<glyph name="z" format="2">
  <advance width="233.61"/>
  <unicode hex="007A"/>
  <anchor x="89.04" y="0.0" name="bottom"/>
  <anchor x="113.03" y="275.0" name="center"/>
  <anchor x="165.22" y="531.8" name="top"/>
  <outline>
    <contour>
      <point x="-16.9" y="0.0" type="line"/>
      <point x="191.17" y="0.0" type="line"/>
      <point x="196.06" y="31.33" type="line"/>
      <point x="20.85" y="31.33" type="line"/>
      <point x="253.82" y="501.74" type="line"/>
      <point x="258.43" y="531.8" type="line"/>
      <point x="73.56" y="531.8" type="line"/>
      <point x="68.58" y="500.29" type="line"/>
      <point x="220.41" y="500.29" type="line"/>
      <point x="-13.1" y="28.98" type="line"/>
    </contour>
  </outline>
</glyph>
<glyph name="braceleft" format="2">
  <advance width="189.86"/>
  <unicode hex="007B"/>
  <outline>
    <contour>
      <point x="6.66" y="-121.58" type="curve" smooth="yes"/>
      <point x="6.66" y="-174.18"/>
      <point x="26.0" y="-210.0"/>
      <point x="63.53" y="-210.0" type="curve" smooth="yes"/>
      <point x="86.12" y="-210.0" type="line"/>
      <point x="91.19" y="-178.48" type="line"/>
      <point x="72.83" y="-178.48" type="line" smooth="yes"/>
      <point x="47.730000000000004" y="-178.48"/>
      <point x="36.18" y="-152.92"/>
      <point x="36.18" y="-115.54" type="curve" smooth="yes"/>
      <point x="36.18" y="0.7799999999999998"/>
      <point x="108.84" y="103.19"/>
      <point x="108.84" y="211.14" type="curve" smooth="yes"/>
      <point x="108.84" y="237.4"/>
      <point x="106.03" y="262.48"/>
      <point x="84.58" y="273.19" type="curve"/>
      <point x="126.84" y="280.88"/>
      <point x="142.92" y="359.35"/>
      <point x="142.92" y="410.79" type="curve" smooth="yes"/>
      <point x="142.92" y="460.36"/>
      <point x="140.83" y="488.91"/>
      <point x="140.83" y="553.95" type="curve" smooth="yes"/>
      <point x="140.83" y="628.54"/>
      <point x="161.39" y="708.48"/>
      <point x="216.41" y="708.48" type="curve" smooth="yes"/>
      <point x="230.95" y="708.48" type="line"/>
      <point x="235.84" y="740.0" type="line"/>
      <point x="217.8" y="740.0" type="line" smooth="yes"/>
      <point x="137.93" y="740.0"/>
      <point x="111.85" y="639.75"/>
      <point x="111.85" y="544.86" type="curve" smooth="yes"/>
      <point x="111.85" y="484.56"/>
      <point x="114.21" y="454.19"/>
      <point x="114.21" y="421.19" type="curve" smooth="yes"/>
      <point x="114.21" y="370.08"/>
      <point x="105.66" y="290.22"/>
      <point x="63.74" y="290.22" type="curve" smooth="yes"/>
      <point x="50.65" y="290.22" type="line"/>
      <point x="45.67" y="258.8" type="line"/>
      <point x="56.94" y="258.8" type="line" smooth="yes"/>
      <point x="77.4" y="258.8"/>
      <point x="81.49" y="238.06"/>
      <point x="81.49" y="213.78" type="curve" smooth="yes"/>
      <point x="81.49" y="98.45"/>
      <point x="6.66" y="10.18"/>
    </contour>
  </outline>
</glyph>
<glyph name="bar" format="2">
  <advance width="111.04"/>
  <unicode hex="007C"/>
  <outline>
    <contour>
      <point x="152.01" y="790.09" type="line"/>
      <point x="122.94" y="790.09" type="line"/>
      <point x="-36.06" y="-210.0" type="line"/>
      <point x="-6.9" y="-210.0" type="line"/>
    </contour>
  </outline>
</glyph>
<glyph name="braceright" format="2">
  <advance width="189.86"/>
  <unicode hex="007D"/>
  <outline>
    <contour>
      <point x="180.2" y="651.58" type="curve" smooth="yes"/>
      <point x="180.2" y="704.27"/>
      <point x="160.77" y="740.09"/>
      <point x="123.24" y="740.09" type="curve" smooth="yes"/>
      <point x="100.65" y="740.09" type="line"/>
      <point x="95.58" y="708.57" type="line"/>
      <point x="113.04" y="708.57" type="line" smooth="yes"/>
      <point x="138.23" y="708.57"/>
      <point x="149.87" y="682.92"/>
      <point x="149.87" y="645.54" type="curve" smooth="yes"/>
      <point x="149.87" y="529.04"/>
      <point x="77.21" y="436.62"/>
      <point x="77.21" y="326.78" type="curve" smooth="yes"/>
      <point x="77.21" y="300.79"/>
      <point x="79.93" y="275.71"/>
      <point x="101.56" y="265.09" type="curve"/>
      <point x="59.3" y="257.31"/>
      <point x="43.13" y="179.02"/>
      <point x="43.13" y="127.49" type="curve" smooth="yes"/>
      <point x="43.13" y="77.92"/>
      <point x="45.22" y="41.18"/>
      <point x="45.22" y="-23.68" type="curve" smooth="yes"/>
      <point x="45.22" y="-98.27"/>
      <point x="24.75" y="-178.39"/>
      <point x="-30.27" y="-178.39" type="curve" smooth="yes"/>
      <point x="-44.09" y="-178.39" type="line"/>
      <point x="-48.98" y="-210.0" type="line"/>
      <point x="-31.03" y="-210.0" type="line" smooth="yes"/>
      <point x="48.84" y="-210.0"/>
      <point x="74.92" y="-108.58"/>
      <point x="74.92" y="-16.57" type="curve" smooth="yes"/>
      <point x="74.92" y="46.16"/>
      <point x="72.56" y="85.08"/>
      <point x="72.56" y="117.45" type="curve" smooth="yes"/>
      <point x="72.56" y="168.38"/>
      <point x="81.29" y="248.06"/>
      <point x="123.03" y="248.06" type="curve" smooth="yes"/>
      <point x="136.12" y="248.06" type="line"/>
      <point x="141.1" y="279.39" type="line"/>
      <point x="129.83" y="279.39" type="line" smooth="yes"/>
      <point x="109.37" y="279.39"/>
      <point x="105.28" y="300.13"/>
      <point x="105.28" y="324.41" type="curve" smooth="yes"/>
      <point x="105.28" y="439.83"/>
      <point x="180.2" y="518.56"/>
    </contour>
  </outline>
</glyph>
<glyph name="asciitilde" format="2">
  <advance width="348.96"/>
  <unicode hex="007E"/>
  <outline>
    <contour>
      <point x="290.96" y="250.65" type="curve"/>
      <point x="296.76" y="287.44" type="line"/>
      <point x="277.04" y="261.62"/>
      <point x="262.14" y="250.89"/>
      <point x="242.6" y="250.89" type="curve" smooth="yes"/>
      <point x="189.06" y="250.89"/>
      <point x="177.6" y="366.76"/>
      <point x="120.24" y="366.76" type="curve" smooth="yes"/>
      <point x="96.89" y="366.76"/>
      <point x="81.46" y="356.32"/>
      <point x="64.63" y="334.76" type="curve"/>
      <point x="58.83" y="297.97" type="line"/>
      <point x="77.48" y="322.26"/>
      <point x="92.91" y="334.52"/>
      <point x="113.53" y="334.52" type="curve" smooth="yes"/>
      <point x="162.7" y="334.52"/>
      <point x="175.07" y="218.65"/>
      <point x="236.8" y="218.65" type="curve" smooth="yes"/>
      <point x="259.07" y="218.65"/>
      <point x="273.06" y="227.56"/>
    </contour>
  </outline>
</glyph>
<glyph name="cent" format="2">
  <advance width="265.3"/>
  <unicode hex="00A2"/>
  <outline>
    <contour>
      <point x="92.9" y="-105.09" type="line"/>
      <point x="122.33" y="-105.09" type="line"/>
      <point x="137.42" y="-9.28" type="line"/>
      <point x="154.05" y="-8.01"/>
      <point x="170.5" y="-5.65"/>
      <point x="184.32" y="-0.3800000000000001" type="curve"/>
      <point x="181.59" y="30.02" type="line"/>
      <point x="167.32" y="25.11"/>
      <point x="148.32" y="22.75"/>
      <point x="137.78" y="22.75" type="curve" smooth="yes"/>
      <point x="91.76" y="22.75"/>
      <point x="77.57" y="62.4"/>
      <point x="77.57" y="129.53" type="curve" smooth="yes"/>
      <point x="77.57" y="338.51"/>
      <point x="141.9" y="507.14"/>
      <point x="213.37" y="507.14" type="curve" smooth="yes"/>
      <point x="224.73" y="507.14"/>
      <point x="237.0" y="504.23"/>
      <point x="249.91" y="500.14" type="curve"/>
      <point x="261.32" y="532.99" type="line"/>
      <point x="250.32" y="536.17"/>
      <point x="240.69" y="539.26"/>
      <point x="229.97" y="540.44" type="curve"/>
      <point x="245.97" y="636.71" type="line"/>
      <point x="216.54" y="636.71" type="line"/>
      <point x="200.36" y="539.18" type="line"/>
      <point x="113.75" y="527.42"/>
      <point x="44.53" y="349.62"/>
      <point x="44.53" y="119.05" type="curve" smooth="yes"/>
      <point x="44.53" y="29.77"/>
      <point x="73.81" y="-0.03000000000000025"/>
      <point x="107.17" y="-7.5600000000000005" type="curve"/>
    </contour>
  </outline>
</glyph>
<glyph name="sterling" format="2">
  <advance width="265.3"/>
  <unicode hex="00A3"/>
  <outline>
    <contour>
      <point x="17.46" y="0.0" type="line"/>
      <point x="185.32" y="0.0" type="line"/>
      <point x="190.3" y="32.6" type="line"/>
      <point x="59.56" y="32.6" type="line"/>
      <point x="110.76" y="108.18"/>
      <point x="148.32" y="182.12"/>
      <point x="148.32" y="294.9" type="curve" smooth="yes"/>
      <point x="148.32" y="356.92"/>
      <point x="133.68" y="407.28"/>
      <point x="133.68" y="469.12" type="curve" smooth="yes"/>
      <point x="133.68" y="621.12"/>
      <point x="191.62" y="675.78"/>
      <point x="230.16" y="675.78" type="curve" smooth="yes"/>
      <point x="250.26" y="675.78"/>
      <point x="265.9" y="671.14"/>
      <point x="281.9" y="661.32" type="curve"/>
      <point x="295.32" y="691.56" type="line"/>
      <point x="280.06" y="702.64"/>
      <point x="258.9" y="710.0"/>
      <point x="238.28" y="710.0" type="curve" smooth="yes"/>
      <point x="160.9" y="710.0"/>
      <point x="103.08" y="632.7"/>
      <point x="103.08" y="476.56" type="curve" smooth="yes"/>
      <point x="103.08" y="392.36"/>
      <point x="117.62" y="362.48"/>
      <point x="117.62" y="287.64" type="curve" smooth="yes"/>
      <point x="117.62" y="173.96"/>
      <point x="73.72" y="103.04"/>
      <point x="19.08" y="28.82" type="curve"/>
    </contour>
    <contour>
      <point x="61.46" y="359.16" type="line"/>
      <point x="232.98" y="359.16" type="line"/>
      <point x="237.06" y="386.44" type="line"/>
      <point x="65.72" y="386.44" type="line"/>
    </contour>
  </outline>
</glyph>
<glyph name="currency" format="2">
  <advance width="376.54"/>
  <unicode hex="00A4"/>
  <outline>
    <contour>
      <point x="27.39" y="111.65" type="line"/>
      <point x="105.05" y="184.58" type="line"/>
      <point x="121.24" y="166.2"/>
      <point x="144.8" y="156.19"/>
      <point x="173.0" y="156.19" type="curve" smooth="yes"/>
      <point x="201.02" y="156.19"/>
      <point x="228.13" y="166.2"/>
      <point x="250.69" y="184.49" type="curve"/>
      <point x="305.16" y="111.65" type="line"/>
      <point x="330.34" y="134.56" type="line"/>
      <point x="275.77" y="206.41" type="line"/>
      <point x="300.88" y="233.15"/>
      <point x="317.62" y="270.81"/>
      <point x="317.8" y="311.2" type="curve" smooth="yes"/>
      <point x="317.98" y="334.12"/>
      <point x="312.52" y="354.4"/>
      <point x="302.42" y="371.95" type="curve"/>
      <point x="379.09" y="443.8" type="line"/>
      <point x="361.61" y="466.71" type="line"/>
      <point x="284.13" y="394.14" type="line"/>
      <point x="267.03" y="412.43"/>
      <point x="243.47" y="423.44"/>
      <point x="215.36" y="423.44" type="curve" smooth="yes"/>
      <point x="187.07" y="423.44"/>
      <point x="159.78" y="412.34"/>
      <point x="137.04" y="394.05" type="curve"/>
      <point x="83.84" y="466.71" type="line"/>
      <point x="60.3" y="443.8" type="line"/>
      <point x="112.41" y="372.41" type="line"/>
      <point x="87.48" y="345.03"/>
      <point x="71.74" y="308.55"/>
      <point x="71.56" y="268.43" type="curve" smooth="yes"/>
      <point x="71.38" y="244.6"/>
      <point x="76.75" y="223.41"/>
      <point x="86.85" y="205.95" type="curve"/>
      <point x="11.55" y="134.56" type="line"/>
    </contour>
    <contour>
      <point x="178.35" y="184.74" type="curve" smooth="yes"/>
      <point x="131.32" y="184.74"/>
      <point x="97.84" y="222.04"/>
      <point x="98.11" y="271.07" type="curve" smooth="yes"/>
      <point x="98.38" y="338.12"/>
      <point x="153.97" y="394.8"/>
      <point x="211.01" y="394.8" type="curve" smooth="yes"/>
      <point x="258.95" y="394.8"/>
      <point x="291.43" y="357.23"/>
      <point x="291.16" y="307.47" type="curve" smooth="yes"/>
      <point x="290.89" y="241.15"/>
      <point x="236.3" y="184.74"/>
    </contour>
  </outline>
</glyph>
<glyph name="yen" format="2">
  <advance width="265.3"/>
  <unicode hex="00A5"/>
  <outline>
    <contour>
      <point x="68.84" y="356.18" type="line"/>
      <point x="131.64" y="356.18" type="line"/>
      <point x="111.8" y="232.86" type="line"/>
      <point x="50.82" y="232.86" type="line"/>
      <point x="45.56" y="205.76" type="line"/>
      <point x="107.54" y="205.76" type="line"/>
      <point x="75.08" y="0.0" type="line"/>
      <point x="106.03999999999999" y="0.0" type="line"/>
      <point x="138.5" y="205.76" type="line"/>
      <point x="204.94" y="205.76" type="line"/>
      <point x="209.2" y="232.86" type="line"/>
      <point x="142.76" y="232.86" type="line"/>
      <point x="162.6" y="356.18" type="line"/>
      <point x="228.22" y="356.18" type="line"/>
      <point x="233.3" y="383.28" type="line"/>
      <point x="168.68" y="383.28" type="line"/>
      <point x="290.36" y="701.0" type="line"/>
      <point x="258.14" y="707.28" type="line"/>
      <point x="159.46" y="424.66" type="line"/>
      <point x="142.16" y="701.82" type="line"/>
      <point x="109.94" y="700.0" type="line"/>
      <point x="135.9" y="383.28" type="line"/>
      <point x="73.92" y="383.28" type="line"/>
    </contour>
  </outline>
</glyph>
<glyph name="brokenbar" format="2">
  <advance width="112.4"/>
  <unicode hex="00A6"/>
  <outline>
    <contour>
      <point x="88.37" y="391.0" type="line"/>
      <point x="152.55" y="790.09" type="line"/>
      <point x="123.48" y="790.09" type="line"/>
      <point x="59.3" y="391.0" type="line"/>
    </contour>
    <contour>
      <point x="28.03" y="190.09" type="line"/>
      <point x="-35.15" y="-210.0" type="line"/>
      <point x="-6.08" y="-210.0" type="line"/>
      <point x="57.19" y="190.09" type="line"/>
    </contour>
  </outline>
</glyph>
<glyph name="section" format="2">
  <advance width="326.92"/>
  <unicode hex="00A7"/>
  <outline>
    <contour>
      <point x="-2.56" y="-153.88" type="curve"/>
      <point x="-21.7" y="-185.0" type="line"/>
      <point x="5.66" y="-210.55"/>
      <point x="30.34" y="-220.0"/>
      <point x="62.89" y="-220.0" type="curve" smooth="yes"/>
      <point x="184.27" y="-220.0"/>
      <point x="282.74" y="-44.59"/>
      <point x="282.74" y="147.99" type="curve" smooth="yes"/>
      <point x="282.74" y="324.51"/>
      <point x="195.71" y="432.88"/>
      <point x="195.71" y="585.29" type="curve" smooth="yes"/>
      <point x="195.71" y="659.6"/>
      <point x="225.27" y="713.07"/>
      <point x="268.37" y="713.07" type="curve" smooth="yes"/>
      <point x="278.46" y="713.07"/>
      <point x="288.92" y="709.89"/>
      <point x="301.83" y="702.89" type="curve"/>
      <point x="317.87" y="737.38" type="line"/>
      <point x="301.24" y="745.55"/>
      <point x="280.28" y="749.09"/>
      <point x="262.38" y="749.09" type="curve" smooth="yes"/>
      <point x="134.74" y="749.09"/>
      <point x="44.09" y="593.5"/>
      <point x="44.09" y="398.75" type="curve" smooth="yes"/>
      <point x="44.09" y="201.32"/>
      <point x="130.21" y="73.87"/>
      <point x="130.21" y="-68.82" type="curve" smooth="yes"/>
      <point x="130.21" y="-136.14"/>
      <point x="100.1" y="-184.98"/>
      <point x="55.81" y="-184.98" type="curve" smooth="yes"/>
      <point x="35.99" y="-184.98"/>
      <point x="13.44" y="-173.61"/>
    </contour>
    <contour>
      <point x="216.03" y="716.53" type="curve"/>
      <point x="187.7" y="689.01"/>
      <point x="170.43" y="636.58"/>
      <point x="170.43" y="586.32" type="curve" smooth="yes"/>
      <point x="170.43" y="409.52"/>
      <point x="256.01" y="319.36"/>
      <point x="256.01" y="131.09" type="curve" smooth="yes"/>
      <point x="256.01" y="-14.86"/>
      <point x="180.17" y="-164.15"/>
      <point x="107.11" y="-185.16" type="curve"/>
      <point x="142.05" y="-151.25"/>
      <point x="156.58" y="-107.93"/>
      <point x="156.58" y="-57.41" type="curve" smooth="yes"/>
      <point x="156.58" y="85.44"/>
      <point x="70.82" y="227.3"/>
      <point x="70.82" y="392.54" type="curve" smooth="yes"/>
      <point x="70.82" y="554.16"/>
      <point x="124.66" y="678.63"/>
    </contour>
  </outline>
</glyph>
<glyph name="copyright" format="2">
  <advance width="318.03"/>
  <unicode hex="00A9"/>
  <outline>
    <contour>
      <point x="116.72" y="-10.0" type="curve" smooth="yes"/>
      <point x="242.44" y="-10.0"/>
      <point x="312.95" y="327.96"/>
      <point x="312.95" y="574.33" type="curve" smooth="yes"/>
      <point x="312.95" y="671.6"/>
      <point x="280.2" y="712.73"/>
      <point x="226.13" y="712.73" type="curve" smooth="yes"/>
      <point x="99.5" y="712.73"/>
      <point x="28.99" y="374.77"/>
      <point x="28.99" y="128.4" type="curve" smooth="yes"/>
      <point x="28.99" y="31.13"/>
      <point x="61.74" y="-10.0"/>
    </contour>
    <contour>
      <point x="152.65" y="161.14" type="curve" smooth="yes"/>
      <point x="161.18" y="161.14"/>
      <point x="177.53" y="163.5"/>
      <point x="187.16" y="166.31" type="curve"/>
      <point x="187.16" y="191.33" type="line"/>
      <point x="180.89" y="189.15"/>
      <point x="164.34" y="187.97"/>
      <point x="158.8" y="187.97" type="curve" smooth="yes"/>
      <point x="134.71" y="187.97"/>
      <point x="124.9" y="213.24"/>
      <point x="124.9" y="254.96" type="curve" smooth="yes"/>
      <point x="124.9" y="368.71"/>
      <point x="161.18" y="496.39"/>
      <point x="206.27" y="496.39" type="curve" smooth="yes"/>
      <point x="216.09" y="496.39"/>
      <point x="223.27" y="496.21"/>
      <point x="231.18" y="493.03" type="curve"/>
      <point x="239.7" y="519.49" type="line"/>
      <point x="231.52" y="522.85"/>
      <point x="220.8" y="524.39"/>
      <point x="208.0" y="524.39" type="curve" smooth="yes"/>
      <point x="149.67" y="524.39"/>
      <point x="98.44" y="399.02"/>
      <point x="98.44" y="254.96" type="curve" smooth="yes"/>
      <point x="98.44" y="191.93"/>
      <point x="116.05" y="161.14"/>
    </contour>
    <contour>
      <point x="117.17" y="11.06" type="curve" smooth="yes"/>
      <point x="75.17" y="11.06"/>
      <point x="51.23" y="45.84"/>
      <point x="51.23" y="132.86" type="curve" smooth="yes"/>
      <point x="51.23" y="358.06"/>
      <point x="115.94" y="691.67"/>
      <point x="224.77" y="691.67" type="curve" smooth="yes"/>
      <point x="266.77" y="691.67"/>
      <point x="290.71" y="656.89"/>
      <point x="290.71" y="569.87" type="curve" smooth="yes"/>
      <point x="290.71" y="344.67"/>
      <point x="226.0" y="11.06"/>
    </contour>
  </outline>
</glyph>
<glyph name="ordfeminine" format="2">
  <advance width="200.2"/>
  <unicode hex="00AA"/>
  <outline>
    <contour>
      <point x="38.02" y="296.51" type="line"/>
      <point x="177.75" y="296.51" type="line"/>
      <point x="181.65" y="318.81" type="line"/>
      <point x="41.92" y="318.81" type="line"/>
    </contour>
    <component base="a.superior" xOffset="9.82"/>
  </outline>
</glyph>
<glyph name="logicalnot" format="2">
  <advance width="343.32"/>
  <unicode hex="00AC"/>
  <outline>
    <contour>
      <point x="58.65" y="377.99" type="line"/>
      <point x="286.0" y="377.99" type="line"/>
      <point x="254.44" y="177.18" type="line"/>
      <point x="285.41" y="177.18" type="line"/>
      <point x="321.95" y="407.87" type="line"/>
      <point x="63.63" y="407.87" type="line"/>
    </contour>
  </outline>
</glyph>
<glyph name="registered" format="2">
  <advance width="304.6"/>
  <unicode hex="00AE"/>
  <outline>
    <contour>
      <point x="146.65" y="208.0" type="curve" smooth="yes"/>
      <point x="244.47" y="208.0"/>
      <point x="329.61" y="473.47"/>
      <point x="329.61" y="751.05" type="curve" smooth="yes"/>
      <point x="329.61" y="849.06"/>
      <point x="301.21" y="894.82"/>
      <point x="245.86" y="894.82" type="curve" smooth="yes"/>
      <point x="148.04" y="894.82"/>
      <point x="62.9" y="629.35"/>
      <point x="62.9" y="351.77" type="curve" smooth="yes"/>
      <point x="62.9" y="253.76"/>
      <point x="91.3" y="208.0"/>
    </contour>
    <contour>
      <point x="147.01" y="226.97" type="curve" smooth="yes"/>
      <point x="104.55" y="226.97"/>
      <point x="82.87" y="267.56"/>
      <point x="82.87" y="353.32" type="curve" smooth="yes"/>
      <point x="82.87" y="613.09"/>
      <point x="160.21" y="875.85"/>
      <point x="245.5" y="875.85" type="curve" smooth="yes"/>
      <point x="287.96" y="875.85"/>
      <point x="309.64" y="835.26"/>
      <point x="309.64" y="749.5" type="curve" smooth="yes"/>
      <point x="309.64" y="489.73"/>
      <point x="232.3" y="226.97"/>
    </contour>
    <contour>
      <point x="124.28" y="402.79" type="line"/>
      <point x="148.84" y="402.79" type="line"/>
      <point x="170.66" y="536.16" type="line"/>
      <point x="179.94" y="534.34"/>
      <point x="189.22" y="532.52"/>
      <point x="201.32" y="533.43" type="curve"/>
      <point x="209.33" y="536.88" type="line"/>
      <point x="246.73" y="552.35"/>
      <point x="265.23" y="601.42"/>
      <point x="265.23" y="653.18" type="curve" smooth="yes"/>
      <point x="265.23" y="708.61"/>
      <point x="248.71" y="726.4"/>
      <point x="217.75" y="726.4" type="curve" smooth="yes"/>
      <point x="200.5" y="726.4"/>
      <point x="187.88" y="724.31"/>
      <point x="174.17" y="720.31" type="curve"/>
    </contour>
    <contour>
      <point x="191.66" y="554.73" type="curve" smooth="yes"/>
      <point x="183.29" y="554.73"/>
      <point x="177.56" y="556.64"/>
      <point x="173.65" y="557.64" type="curve"/>
      <point x="195.65" y="700.38" type="line"/>
      <point x="203.29" y="702.29"/>
      <point x="209.11" y="703.29"/>
      <point x="217.57" y="703.29" type="curve" smooth="yes"/>
      <point x="233.94" y="703.29"/>
      <point x="241.67" y="687.56"/>
      <point x="241.67" y="655.0" type="curve" smooth="yes"/>
      <point x="241.67" y="592.26"/>
      <point x="220.67" y="554.73"/>
    </contour>
    <contour>
      <point x="227.36" y="399.52" type="curve" smooth="yes"/>
      <point x="230.81" y="399.52"/>
      <point x="235.25" y="400.7"/>
      <point x="237.79" y="401.97" type="curve"/>
      <point x="239.78" y="428.43" type="line"/>
      <point x="237.78" y="426.61"/>
      <point x="235.78" y="426.61"/>
      <point x="234.69" y="426.61" type="curve" smooth="yes"/>
      <point x="222.61" y="426.61"/>
      <point x="222.99" y="454.71"/>
      <point x="216.99" y="549.49" type="curve"/>
      <point x="196.05" y="544.6" type="line"/>
      <point x="201.67" y="411.98"/>
      <point x="205.92" y="399.52"/>
    </contour>
  </outline>
</glyph>
<glyph name="degree" format="2">
  <advance width="211.01"/>
  <unicode hex="00B0"/>
  <outline>
    <contour>
      <point x="141.98" y="506.68" type="curve" smooth="yes"/>
      <point x="199.56" y="506.68"/>
      <point x="237.92" y="574.71"/>
      <point x="237.92" y="644.51" type="curve" smooth="yes"/>
      <point x="237.92" y="691.58"/>
      <point x="218.2" y="726.38"/>
      <point x="176.78" y="726.38" type="curve" smooth="yes"/>
      <point x="117.47" y="726.38"/>
      <point x="80.75" y="655.8"/>
      <point x="80.75" y="586.0" type="curve" smooth="yes"/>
      <point x="80.75" y="540.39"/>
      <point x="100.01" y="506.68"/>
    </contour>
    <contour>
      <point x="146.42" y="536.22" type="curve" smooth="yes"/>
      <point x="118.13" y="536.22"/>
      <point x="106.67" y="558.96"/>
      <point x="106.67" y="590.52" type="curve" smooth="yes"/>
      <point x="106.67" y="643.55"/>
      <point x="131.05" y="696.48"/>
      <point x="172.16" y="696.48" type="curve" smooth="yes"/>
      <point x="200.54" y="696.48"/>
      <point x="212.0" y="671.92"/>
      <point x="212.0" y="640.45" type="curve" smooth="yes"/>
      <point x="212.0" y="586.6"/>
      <point x="187.53" y="536.22"/>
    </contour>
  </outline>
</glyph>
<glyph name="plusminus" format="2">
  <advance width="345.14"/>
  <unicode hex="00B1"/>
  <outline>
    <contour>
      <point x="272.79" y="67.34" type="line"/>
      <point x="277.77" y="99.03" type="line"/>
      <point x="159.64" y="99.03" type="line"/>
      <point x="190.84" y="293.78" type="line"/>
      <point x="308.06" y="293.78" type="line"/>
      <point x="313.04" y="325.47" type="line"/>
      <point x="195.82" y="325.47" type="line"/>
      <point x="227.11" y="500.83" type="line"/>
      <point x="196.86" y="500.83" type="line"/>
      <point x="166.48" y="325.47" type="line"/>
      <point x="47.44" y="325.47" type="line"/>
      <point x="42.46" y="293.78" type="line"/>
      <point x="160.59" y="293.78" type="line"/>
      <point x="129.39" y="99.03" type="line"/>
      <point x="12.17" y="99.03" type="line"/>
      <point x="7.19" y="67.34" type="line"/>
    </contour>
  </outline>
</glyph>
<glyph name="uni00B2" format="2">
  <advance width="201.32"/>
  <unicode hex="00B2"/>
  <outline>
    <contour>
      <point x="53.38" y="367.27" type="line"/>
      <point x="173.67" y="367.27" type="line"/>
      <point x="176.84" y="390.03" type="line"/>
      <point x="82.38" y="390.03" type="line"/>
      <point x="143.92" y="497.88"/>
      <point x="209.47" y="616.84"/>
      <point x="209.47" y="710.75" type="curve" smooth="yes"/>
      <point x="209.47" y="749.01"/>
      <point x="194.85" y="773.09"/>
      <point x="164.42" y="773.09" type="curve" smooth="yes"/>
      <point x="142.35" y="773.09"/>
      <point x="121.64" y="762.73"/>
      <point x="102.56" y="740.0" type="curve"/>
      <point x="113.19" y="720.54" type="line"/>
      <point x="133.56" y="741.28"/>
      <point x="142.92" y="746.37"/>
      <point x="158.01" y="746.37" type="curve" smooth="yes"/>
      <point x="175.74" y="746.37"/>
      <point x="184.38" y="729.0"/>
      <point x="184.38" y="701.44" type="curve" smooth="yes"/>
      <point x="183.47" y="615.67"/>
      <point x="111.12" y="483.65"/>
      <point x="53.64" y="386.67" type="curve"/>
    </contour>
  </outline>
</glyph>
<glyph name="uni00B3" format="2">
  <advance width="210.86"/>
  <unicode hex="00B3"/>
  <outline>
    <contour>
      <point x="50.56" y="392.09" type="line"/>
      <point x="61.82" y="373.36"/>
      <point x="79.36" y="364.18"/>
      <point x="102.34" y="364.18" type="curve" smooth="yes"/>
      <point x="163.7" y="364.18"/>
      <point x="194.2" y="441.03"/>
      <point x="194.2" y="523.11" type="curve" smooth="yes"/>
      <point x="194.2" y="550.91"/>
      <point x="186.76" y="571.73"/>
      <point x="172.31" y="579.27" type="curve"/>
      <point x="197.02" y="595.44"/>
      <point x="217.74" y="650.01"/>
      <point x="217.74" y="703.19" type="curve" smooth="yes"/>
      <point x="217.74" y="752.46"/>
      <point x="195.12" y="774.18"/>
      <point x="164.78" y="774.18" type="curve" smooth="yes"/>
      <point x="150.26" y="774.18"/>
      <point x="130.55" y="769.37"/>
      <point x="111.56" y="752.1" type="curve"/>
      <point x="123.01" y="733.89" type="line"/>
      <point x="136.56" y="745.26"/>
      <point x="150.92" y="749.35"/>
      <point x="160.55" y="749.35" type="curve" smooth="yes"/>
      <point x="178.18" y="749.35"/>
      <point x="192.55" y="733.62"/>
      <point x="192.55" y="697.69" type="curve" smooth="yes"/>
      <point x="192.55" y="643.29"/>
      <point x="171.73" y="588.25"/>
      <point x="145.36" y="588.25" type="curve" smooth="yes"/>
      <point x="122.36" y="588.25" type="line"/>
      <point x="119.28" y="567.76" type="line"/>
      <point x="146.37" y="567.76" type="line" smooth="yes"/>
      <point x="161.82" y="567.76"/>
      <point x="171.0" y="551.03"/>
      <point x="171.0" y="519.56" type="curve" smooth="yes"/>
      <point x="171.0" y="461.98"/>
      <point x="152.27" y="388.56"/>
      <point x="103.25" y="388.56" type="curve" smooth="yes"/>
      <point x="87.34" y="388.56"/>
      <point x="75.52" y="395.2"/>
      <point x="66.8" y="409.75" type="curve"/>
    </contour>
  </outline>
</glyph>
<glyph name="uni00B5" format="2">
  <advance width="272.88"/>
  <unicode hex="00B5"/>
  <outline>
    <contour>
      <point x="-30.7" y="-210.0" type="line"/>
      <point x="0.08000000000000007" y="-210.0" type="line"/>
      <point x="35.72" y="14.57" type="line"/>
      <point x="44.0" y="-2.7199999999999998"/>
      <point x="60.38" y="-10.0"/>
      <point x="80.49" y="-10.0" type="curve" smooth="yes"/>
      <point x="106.59" y="-10.0"/>
      <point x="132.23" y="0.0"/>
      <point x="160.51" y="21.26" type="curve"/>
      <point x="164.23" y="0.26"/>
      <point x="179.49" y="-10.0"/>
      <point x="200.11" y="-10.0" type="curve" smooth="yes"/>
      <point x="209.91" y="-10.0"/>
      <point x="229.17" y="-5.46"/>
      <point x="241.71" y="1.3499999999999999" type="curve"/>
      <point x="239.14" y="26.96" type="line"/>
      <point x="227.95" y="22.32"/>
      <point x="216.67" y="19.59"/>
      <point x="210.12" y="19.59" type="curve" smooth="yes"/>
      <point x="194.02" y="19.59"/>
      <point x="190.11" y="29.14"/>
      <point x="190.11" y="40.14" type="curve" smooth="yes"/>
      <point x="190.11" y="50.6"/>
      <point x="192.93" y="70.43"/>
      <point x="266.49" y="531.8" type="curve"/>
      <point x="234.89" y="531.8" type="line"/>
      <point x="159.06" y="48.980000000000004" type="line"/>
      <point x="133.95" y="29.42"/>
      <point x="101.83" y="20.14"/>
      <point x="85.73" y="20.14" type="curve" smooth="yes"/>
      <point x="58.62" y="20.14"/>
      <point x="44.61" y="36.24"/>
      <point x="44.79" y="61.71" type="curve" smooth="yes"/>
      <point x="46.86" y="88.53"/>
      <point x="69.41" y="231.62"/>
      <point x="116.62" y="531.8" type="curve"/>
      <point x="84.93" y="531.8" type="line"/>
    </contour>
  </outline>
</glyph>
<glyph name="paragraph" format="2">
  <advance width="365.85"/>
  <unicode hex="00B6"/>
  <outline>
    <contour>
      <point x="219.02" y="-210.0" type="line"/>
      <point x="246.56" y="-210.0" type="line"/>
      <point x="396.83" y="740.0" type="line"/>
      <point x="369.29" y="740.0" type="line"/>
    </contour>
    <contour>
      <point x="140.91" y="211.38" type="line"/>
      <point x="91.51" y="224.48"/>
      <point x="69.14" y="277.96"/>
      <point x="69.14" y="357.63" type="curve" smooth="yes"/>
      <point x="69.14" y="533.76"/>
      <point x="138.74" y="703.4"/>
      <point x="255.44" y="709.04" type="curve"/>
      <point x="110.33" y="-210.0" type="line"/>
      <point x="137.87" y="-210.0" type="line"/>
      <point x="288.14" y="740.0" type="line"/>
      <point x="268.56" y="740.0" type="line" smooth="yes"/>
      <point x="123.51" y="740.0"/>
      <point x="39.8" y="548.49"/>
      <point x="39.8" y="356.37" type="curve" smooth="yes"/>
      <point x="39.8" y="264.55"/>
      <point x="68.15" y="200.1"/>
      <point x="132.94" y="182.47" type="curve"/>
    </contour>
  </outline>
</glyph>
<glyph name="periodcentered" format="2">
  <advance width="99.0"/>
  <unicode hex="00B7"/>
  <outline>
    <contour>
      <point x="31.11" y="287.09" type="curve" smooth="yes"/>
      <point x="29.29" y="269.67"/>
      <point x="32.18" y="264.69"/>
      <point x="47.69" y="264.69" type="curve" smooth="yes"/>
      <point x="66.26" y="264.69"/>
      <point x="69.33" y="274.15"/>
      <point x="71.15" y="294.56" type="curve" smooth="yes"/>
      <point x="72.97" y="310.89"/>
      <point x="70.99" y="316.78"/>
      <point x="55.57" y="316.78" type="curve" smooth="yes"/>
      <point x="37.09" y="316.78"/>
      <point x="32.93" y="307.5"/>
    </contour>
  </outline>
</glyph>
<glyph name="uni00B9" format="2">
  <advance width="206.35"/>
  <unicode hex="00B9"/>
  <outline>
    <contour>
      <point x="44.83" y="370.0" type="line"/>
      <point x="193.7" y="370.0" type="line"/>
      <point x="197.05" y="393.66" type="line"/>
      <point x="137.85" y="393.66" type="line"/>
      <point x="198.31" y="769.82" type="line"/>
      <point x="183.71" y="769.82" type="line"/>
      <point x="98.01" y="704.51" type="line"/>
      <point x="105.29" y="682.32" type="line"/>
      <point x="167.22" y="732.18" type="line"/>
      <point x="113.29" y="393.66" type="line"/>
      <point x="48.91" y="393.66" type="line"/>
    </contour>
  </outline>
</glyph>
<glyph name="ordmasculine" format="2">
  <advance width="195.13"/>
  <unicode hex="00BA"/>
  <outline>
    <contour>
      <point x="38.93" y="296.51" type="line"/>
      <point x="158.39" y="296.51" type="line"/>
      <point x="161.38" y="318.81" type="line"/>
      <point x="41.92" y="318.81" type="line"/>
    </contour>
    <component base="o.superior" xOffset="17.1"/>
  </outline>
</glyph>
<glyph name="AE" format="2">
  <advance width="398.95"/>
  <unicode hex="00C6"/>
  <anchor x="170.61996" y="0.0" name="bottom"/>
  <anchor x="288.95" y="700.0" name="top"/>
  <outline>
    <contour>
      <point x="157.79" y="0.0" type="line"/>
      <point x="344.04" y="0.0" type="line"/>
      <point x="349.02" y="31.509999999999998" type="line"/>
      <point x="194.64" y="31.509999999999998" type="line"/>
      <point x="240.85" y="328.6" type="line"/>
      <point x="372.42" y="328.6" type="line"/>
      <point x="377.4" y="359.21" type="line"/>
      <point x="245.74" y="359.21" type="line"/>
      <point x="294.68" y="668.04" type="line"/>
      <point x="440.06" y="668.04" type="line"/>
      <point x="446.13" y="700.0" type="line"/>
      <point x="246.07" y="700.0" type="line"/>
      <point x="-36.72" y="0.0" type="line"/>
      <point x="-2.8499999999999996" y="0.0" type="line"/>
      <point x="123.25" y="312.58" type="line"/>
      <point x="206.46" y="312.58" type="line"/>
    </contour>
    <contour>
      <point x="134.4" y="344.27" type="line"/>
      <point x="262.35" y="668.46" type="line"/>
      <point x="211.44" y="344.27" type="line"/>
    </contour>
  </outline>
</glyph>
<glyph name="multiply" format="2">
  <advance width="325.76"/>
  <unicode hex="00D7"/>
  <outline>
    <contour>
      <point x="43.2" y="84.65" type="line"/>
      <point x="160.43" y="262.58" type="line"/>
      <point x="221.26" y="84.65" type="line"/>
      <point x="248.35" y="103.00999999999999" type="line"/>
      <point x="183.06" y="292.77" type="line"/>
      <point x="310.3" y="484.35" type="line"/>
      <point x="288.18" y="502.71" type="line"/>
      <point x="169.13" y="322.96" type="line"/>
      <point x="108.3" y="502.71" type="line"/>
      <point x="81.12" y="484.35" type="line"/>
      <point x="145.59" y="293.68" type="line"/>
      <point x="20.99" y="103.00999999999999" type="line"/>
    </contour>
  </outline>
</glyph>
<glyph name="Oslash" format="2">
  <advance width="307.16"/>
  <unicode hex="00D8"/>
  <anchor x="216.4" y="700.0" name="top"/>
  <outline>
    <contour>
      <point x="329.14" y="710.0" type="line"/>
      <point x="302.04" y="710.0" type="line"/>
      <point x="279.52" y="657.04" type="line"/>
      <point x="277.16" y="657.22" type="line"/>
      <point x="38.32" y="77.32" type="line"/>
      <point x="36.14" y="77.68" type="line"/>
      <point x="-0.6999999999999997" y="-9.1" type="line"/>
      <point x="26.4" y="-9.1" type="line"/>
      <point x="49.2" y="45.42" type="line"/>
      <point x="51.56" y="45.24" type="line"/>
      <point x="290.12" y="623.76" type="line"/>
      <point x="292.3" y="623.4" type="line"/>
    </contour>
    <contour>
      <point x="111.02" y="-10.0" type="curve" smooth="yes"/>
      <point x="234.66" y="-10.0"/>
      <point x="311.16" y="316.22"/>
      <point x="311.16" y="562.06" type="curve" smooth="yes"/>
      <point x="311.16" y="671.48"/>
      <point x="283.64" y="710.0"/>
      <point x="219.06" y="710.0" type="curve" smooth="yes"/>
      <point x="96.32" y="710.0"/>
      <point x="18.92" y="383.78"/>
      <point x="18.92" y="138.12" type="curve" smooth="yes"/>
      <point x="18.92" y="28.52"/>
      <point x="46.44" y="-10.0"/>
    </contour>
    <contour>
      <point x="112.92" y="20.96" type="curve" smooth="yes"/>
      <point x="67.8" y="20.96"/>
      <point x="50.16" y="47.7"/>
      <point x="50.16" y="137.4" type="curve" smooth="yes"/>
      <point x="50.16" y="364.28"/>
      <point x="125.86" y="679.04"/>
      <point x="217.52" y="679.04" type="curve" smooth="yes"/>
      <point x="262.46" y="679.04"/>
      <point x="280.1" y="652.48"/>
      <point x="280.1" y="562.96" type="curve" smooth="yes"/>
      <point x="280.1" y="336.8"/>
      <point x="204.22" y="20.96"/>
    </contour>
  </outline>
</glyph>
<glyph name="Thorn" format="2">
  <advance width="258.67"/>
  <unicode hex="00DE"/>
  <outline>
    <contour>
      <point x="-2.8899999999999997" y="0.0" type="line"/>
      <point x="28.98" y="0.0" type="line"/>
      <point x="57.36" y="177.1" type="line"/>
      <point x="67.89" y="175.83"/>
      <point x="88.18" y="175.83"/>
      <point x="104.53999999999999" y="175.83" type="curve" smooth="yes"/>
      <point x="200.15" y="175.83"/>
      <point x="265.94" y="297.79"/>
      <point x="265.94" y="476.04" type="curve" smooth="yes"/>
      <point x="265.94" y="566.28"/>
      <point x="236.32" y="604.52"/>
      <point x="164.82" y="604.52" type="curve" smooth="yes"/>
      <point x="151.72" y="604.52"/>
      <point x="137.62" y="603.61"/>
      <point x="123.61" y="601.79" type="curve"/>
      <point x="139.16" y="700.0" type="line"/>
      <point x="107.29" y="700.0" type="line"/>
    </contour>
    <contour>
      <point x="102.09" y="207.07" type="curve" smooth="yes"/>
      <point x="79.89" y="207.07"/>
      <point x="70.43" y="207.98"/>
      <point x="62.61" y="209.07" type="curve"/>
      <point x="119.45" y="569.37" type="line"/>
      <point x="134.55" y="572.28"/>
      <point x="147.83" y="573.28"/>
      <point x="160.11" y="573.28" type="curve" smooth="yes"/>
      <point x="210.69" y="573.28"/>
      <point x="234.43" y="549.54"/>
      <point x="234.43" y="470.77" type="curve" smooth="yes"/>
      <point x="234.43" y="319.82"/>
      <point x="181.77" y="207.07"/>
    </contour>
  </outline>
</glyph>
<glyph name="germandbls" format="2">
  <advance width="308.75"/>
  <unicode hex="00DF"/>
  <outline>
    <contour>
      <point x="9.1" y="-59.88" type="line" smooth="yes"/>
      <point x="-3.36" y="-138.28"/>
      <point x="-22.91" y="-191.23"/>
      <point x="-77.4" y="-191.23" type="curve" smooth="yes"/>
      <point x="-91.77" y="-191.23"/>
      <point x="-102.5" y="-189.41"/>
      <point x="-118.41" y="-184.41" type="curve"/>
      <point x="-126.28" y="-212.01" type="line"/>
      <point x="-110.75" y="-217.64"/>
      <point x="-94.49" y="-220.0"/>
      <point x="-74.68" y="-220.0" type="curve" smooth="yes"/>
      <point x="-7.09" y="-220.0"/>
      <point x="24.16" y="-165.56"/>
      <point x="39.97" y="-64.61" type="curve" smooth="yes"/>
      <point x="136.17" y="545.59" type="line" smooth="yes"/>
      <point x="153.27" y="653.01"/>
      <point x="185.27" y="717.95"/>
      <point x="242.91" y="717.95" type="curve" smooth="yes"/>
      <point x="271.9" y="717.95"/>
      <point x="290.63" y="704.22"/>
      <point x="290.63" y="661.83" type="curve" smooth="yes"/>
      <point x="290.63" y="619.26"/>
      <point x="277.17" y="590.15"/>
      <point x="234.63" y="543.49" type="curve" smooth="yes"/>
      <point x="186.0" y="490.1"/>
      <point x="164.29" y="450.29"/>
      <point x="164.29" y="388.04" type="curve" smooth="yes"/>
      <point x="164.29" y="341.62"/>
      <point x="187.18" y="298.61"/>
      <point x="219.8" y="246.58" type="curve" smooth="yes"/>
      <point x="246.06" y="204.92"/>
      <point x="254.79" y="177.99"/>
      <point x="254.79" y="141.42" type="curve" smooth="yes"/>
      <point x="254.79" y="74.64"/>
      <point x="214.86" y="22.689999999999998"/>
      <point x="162.57" y="22.689999999999998" type="curve" smooth="yes"/>
      <point x="138.76" y="22.689999999999998"/>
      <point x="117.59" y="28.689999999999998"/>
      <point x="98.6" y="38.6" type="curve"/>
      <point x="86.99" y="9.81" type="line"/>
      <point x="106.07" y="-2.46"/>
      <point x="133.6" y="-10.0"/>
      <point x="162.02" y="-10.0" type="curve" smooth="yes"/>
      <point x="236.86" y="-10.0"/>
      <point x="287.29" y="55.81"/>
      <point x="287.29" y="146.59" type="curve" smooth="yes"/>
      <point x="287.29" y="190.28"/>
      <point x="273.86" y="221.82"/>
      <point x="241.15" y="275.58" type="curve" smooth="yes"/>
      <point x="209.44" y="329.34"/>
      <point x="194.98" y="355.27"/>
      <point x="194.98" y="393.02" type="curve" smooth="yes"/>
      <point x="194.98" y="437.87"/>
      <point x="212.07999999999998" y="470.62"/>
      <point x="257.07" y="522.38" type="curve" smooth="yes"/>
      <point x="305.15" y="577.96"/>
      <point x="322.94" y="611.95"/>
      <point x="322.94" y="667.0" type="curve" smooth="yes"/>
      <point x="322.94" y="725.86"/>
      <point x="292.9" y="750.0"/>
      <point x="245.08" y="750.0" type="curve" smooth="yes"/>
      <point x="166.71" y="750.0"/>
      <point x="124.93" y="681.47"/>
      <point x="104.84" y="548.11" type="curve" smooth="yes"/>
      <point x="95.74" y="488.05" type="line"/>
      <point x="43.09" y="481.96" type="line"/>
      <point x="39.11" y="457.26" type="line"/>
      <point x="89.94" y="457.26" type="line"/>
    </contour>
  </outline>
</glyph>
<glyph name="ae" format="2">
  <advance width="418.02"/>
  <unicode hex="00E6"/>
  <anchor x="181.2" y="0.0" name="bottom"/>
  <anchor x="254.46" y="531.8" name="top"/>
  <outline>
    <contour>
      <point x="94.44" y="-10.0" type="curve" smooth="yes"/>
      <point x="117.8" y="-10.0"/>
      <point x="135.16" y="-2.18"/>
      <point x="150.24" y="11.52" type="curve"/>
      <point x="146.88" y="-7.46" type="line"/>
      <point x="176.76" y="-7.46" type="line"/>
      <point x="196.6" y="114.12" type="line"/>
      <point x="203.76" y="36.86"/>
      <point x="239.3" y="-9.82"/>
      <point x="295.42" y="-9.82" type="curve" smooth="yes"/>
      <point x="325.14" y="-9.82"/>
      <point x="354.22" y="-2.64"/>
      <point x="374.66" y="10.8" type="curve"/>
      <point x="366.58" y="39.04" type="line"/>
      <point x="341.5" y="26.5"/>
      <point x="320.42" y="20.5"/>
      <point x="298.06" y="20.5" type="curve" smooth="yes"/>
      <point x="246.76" y="20.5"/>
      <point x="214.48" y="77.62"/>
      <point x="214.48" y="170.76" type="curve" smooth="yes"/>
      <point x="214.48" y="364.7"/>
      <point x="274.98" y="512.56"/>
      <point x="354.84" y="512.56" type="curve" smooth="yes"/>
      <point x="387.14" y="512.56"/>
      <point x="399.42" y="490.9"/>
      <point x="399.42" y="455.34" type="curve" smooth="yes"/>
      <point x="399.42" y="395.04"/>
      <point x="356.12" y="332.46"/>
      <point x="294.18" y="296.44" type="curve" smooth="yes"/>
      <point x="267.44" y="280.34"/>
      <point x="236.88" y="269.88"/>
      <point x="203.96" y="264.6" type="curve"/>
      <point x="200.44" y="237.06" type="line"/>
      <point x="232.34" y="242.34"/>
      <point x="267.7" y="251.98"/>
      <point x="297.24" y="268.62" type="curve" smooth="yes"/>
      <point x="374.22" y="309.26"/>
      <point x="429.3" y="380.7"/>
      <point x="429.3" y="460.4" type="curve" smooth="yes"/>
      <point x="429.3" y="511.28"/>
      <point x="405.58" y="541.8"/>
      <point x="362.24" y="541.8" type="curve" smooth="yes"/>
      <point x="317.68" y="541.8"/>
      <point x="278.12" y="509.78"/>
      <point x="246.66" y="446.46" type="curve"/>
      <point x="262.58" y="541.8" type="line"/>
      <point x="234.06" y="541.8" type="line"/>
      <point x="231.88" y="529.72" type="line"/>
      <point x="220.7" y="538.62"/>
      <point x="206.16" y="541.8"/>
      <point x="194.08" y="541.8" type="curve" smooth="yes"/>
      <point x="90.64" y="541.8"/>
      <point x="15.92" y="377.9"/>
      <point x="15.92" y="136.62" type="curve" smooth="yes"/>
      <point x="15.92" y="40.26"/>
      <point x="43.18" y="-10.0"/>
    </contour>
    <contour>
      <point x="100.46" y="18.98" type="curve" smooth="yes"/>
      <point x="67.98" y="18.98"/>
      <point x="48.42" y="63.2"/>
      <point x="48.42" y="138.08" type="curve" smooth="yes"/>
      <point x="48.42" y="336.18"/>
      <point x="105.53999999999999" y="512.38"/>
      <point x="194.24" y="512.38" type="curve" smooth="yes"/>
      <point x="205.7" y="512.38"/>
      <point x="218.8" y="509.56"/>
      <point x="227.26" y="499.46" type="curve"/>
      <point x="154.5" y="38.54" type="line"/>
      <point x="140.4" y="27.259999999999998"/>
      <point x="120.02" y="18.98"/>
    </contour>
  </outline>
</glyph>
<glyph name="eth" format="2">
  <advance width="262.7"/>
  <unicode hex="00F0"/>
  <outline>
    <contour>
      <point x="244.36" y="481.36" type="curve"/>
      <point x="251.52" y="510.9" type="line"/>
      <point x="237.62" y="526.54"/>
      <point x="213.08" y="534.36"/>
      <point x="187.08" y="534.36" type="curve" smooth="yes"/>
      <point x="60.82" y="534.36"/>
      <point x="11.92" y="287.4"/>
      <point x="11.92" y="114.12" type="curve" smooth="yes"/>
      <point x="11.92" y="25.52"/>
      <point x="37.98" y="-10.0"/>
      <point x="95.12" y="-10.0" type="curve" smooth="yes"/>
      <point x="170.96" y="-10.0"/>
      <point x="204.4" y="63.72"/>
      <point x="242.58" y="310.34" type="curve" smooth="yes"/>
      <point x="257.86" y="411.3"/>
      <point x="267.5" y="489.24"/>
      <point x="267.5" y="548.44" type="curve" smooth="yes"/>
      <point x="267.5" y="662.84"/>
      <point x="235.72" y="713.96"/>
      <point x="153.16" y="713.96" type="curve" smooth="yes"/>
      <point x="136.46" y="713.96"/>
      <point x="113.2" y="710.88"/>
      <point x="93.12" y="705.52" type="curve"/>
      <point x="96.66" y="678.44" type="line"/>
      <point x="113.66" y="682.44"/>
      <point x="130.38" y="685.62"/>
      <point x="149.74" y="685.62" type="curve" smooth="yes"/>
      <point x="210.18" y="685.62"/>
      <point x="236.72" y="649.88"/>
      <point x="236.72" y="550.68" type="curve" smooth="yes"/>
      <point x="236.72" y="495.84"/>
      <point x="228.62" y="415.8"/>
      <point x="212.34" y="313.48" type="curve" smooth="yes"/>
      <point x="176.34" y="85.76"/>
      <point x="148.6" y="17.08"/>
      <point x="97.38" y="17.08" type="curve" smooth="yes"/>
      <point x="59.62" y="17.08"/>
      <point x="42.16" y="43.92"/>
      <point x="42.16" y="108.88" type="curve" smooth="yes"/>
      <point x="42.16" y="255.06"/>
      <point x="83.53999999999999" y="506.74"/>
      <point x="189.24" y="506.74" type="curve" smooth="yes"/>
      <point x="207.98" y="506.74"/>
      <point x="229.72" y="502.74"/>
    </contour>
    <contour>
      <point x="121.68" y="564.92" type="line"/>
      <point x="233.22" y="648.84" type="line"/>
      <point x="234.68" y="649.74" type="line"/>
      <point x="327.6" y="719.06" type="line"/>
      <point x="293.14" y="719.06" type="line"/>
      <point x="223.72" y="667.62" type="line"/>
      <point x="222.62" y="666.9" type="line"/>
      <point x="86.22" y="564.92" type="line"/>
    </contour>
  </outline>
</glyph>
<glyph name="divide" format="2">
  <advance width="344.32"/>
  <unicode hex="00F7"/>
  <outline>
    <contour>
      <point x="122.3" y="89.38" type="curve" smooth="yes"/>
      <point x="121.3" y="78.32"/>
      <point x="124.28" y="74.52"/>
      <point x="138.7" y="74.52" type="curve" smooth="yes"/>
      <point x="158.66" y="74.52"/>
      <point x="161.72" y="78.94"/>
      <point x="164.54" y="106.62" type="curve" smooth="yes"/>
      <point x="165.54" y="118.68"/>
      <point x="160.74" y="121.48"/>
      <point x="147.5" y="121.48" type="curve" smooth="yes"/>
      <point x="128.82" y="121.48"/>
      <point x="125.12" y="115.62"/>
    </contour>
    <contour>
      <point x="184.68" y="478.76" type="curve" smooth="yes"/>
      <point x="183.68" y="467.7"/>
      <point x="186.66" y="464.08"/>
      <point x="200.9" y="464.08" type="curve" smooth="yes"/>
      <point x="220.86" y="464.08"/>
      <point x="224.1" y="468.5"/>
      <point x="226.92" y="496.0" type="curve" smooth="yes"/>
      <point x="227.92" y="508.06"/>
      <point x="223.12" y="510.86"/>
      <point x="209.88" y="510.86" type="curve" smooth="yes"/>
      <point x="190.84" y="510.86"/>
      <point x="187.5" y="504.64"/>
    </contour>
    <contour>
      <point x="40.0" y="276.48" type="line"/>
      <point x="305.6" y="276.48" type="line"/>
      <point x="310.58" y="309.08" type="line"/>
      <point x="44.98" y="309.08" type="line"/>
    </contour>
  </outline>
</glyph>
<glyph name="oslash" format="2">
  <advance width="261.78"/>
  <unicode hex="00F8"/>
  <anchor x="174.4" y="531.8" name="top"/>
  <outline>
    <contour>
      <point x="250.64" y="540.98" type="line"/>
      <point x="224.86" y="487.48" type="line"/>
      <point x="222.5" y="487.66" type="line"/>
      <point x="28.759999999999998" y="74.14" type="line"/>
      <point x="26.759999999999998" y="74.5" type="line"/>
      <point x="-14.6" y="-10.0" type="line"/>
      <point x="11.96" y="-10.0" type="line"/>
      <point x="35.64" y="38.48" type="line"/>
      <point x="38.0" y="38.3" type="line"/>
      <point x="232.56" y="453.92" type="line"/>
      <point x="234.56" y="453.56" type="line"/>
      <point x="277.2" y="540.98" type="line"/>
    </contour>
    <contour>
      <point x="92.74" y="-10.0" type="curve" smooth="yes"/>
      <point x="209.06" y="-10.0"/>
      <point x="246.68" y="304.58"/>
      <point x="246.68" y="429.22" type="curve" smooth="yes"/>
      <point x="246.68" y="521.2"/>
      <point x="220.24" y="540.98"/>
      <point x="166.58" y="540.98" type="curve" smooth="yes"/>
      <point x="50.26" y="540.98"/>
      <point x="12.64" y="226.4"/>
      <point x="12.64" y="101.94" type="curve" smooth="yes"/>
      <point x="12.64" y="9.96"/>
      <point x="39.26" y="-10.0"/>
    </contour>
    <contour>
      <point x="93.1" y="19.06" type="curve" smooth="yes"/>
      <point x="61.0" y="19.06"/>
      <point x="41.980000000000004" y="32.6"/>
      <point x="41.980000000000004" y="100.84" type="curve" smooth="yes"/>
      <point x="41.980000000000004" y="189.26"/>
      <point x="78.26" y="511.92"/>
      <point x="166.4" y="511.92" type="curve" smooth="yes"/>
      <point x="198.5" y="511.92"/>
      <point x="217.52" y="498.38"/>
      <point x="217.52" y="430.32" type="curve" smooth="yes"/>
      <point x="217.52" y="341.72"/>
      <point x="181.24" y="19.06"/>
    </contour>
  </outline>
</glyph>
<glyph name="Dcroat" format="2">
  <advance width="302.88"/>
  <unicode hex="0110"/>
  <outline>
    <contour>
      <point x="20.38" y="345.35" type="line"/>
      <point x="177.32" y="345.35" type="line"/>
      <point x="182.48" y="375.49" type="line"/>
      <point x="25.54" y="375.49" type="line"/>
    </contour>
    <component base="D" xOffset="7.45"/>
  </outline>
</glyph>
<glyph name="dcroat" format="2">
  <advance width="273.69"/>
  <unicode hex="0111"/>
  <outline>
    <contour>
      <point x="150.06" y="620.37" type="line"/>
      <point x="330.42" y="620.37" type="line"/>
      <point x="334.5" y="642.66" type="line"/>
      <point x="154.23" y="642.66" type="line"/>
    </contour>
    <component base="d"/>
  </outline>
</glyph>
<glyph name="Hbar" format="2">
  <advance width="311.26"/>
  <unicode hex="0126"/>
  <outline>
    <contour>
      <point x="40.83" y="502.0" type="line"/>
      <point x="342.43" y="502.0" type="line"/>
      <point x="346.41" y="528.88" type="line"/>
      <point x="44.81" y="528.88" type="line"/>
    </contour>
    <component base="H" xOffset="1.3599999999999999"/>
  </outline>
</glyph>
<glyph name="hbar" format="2">
  <advance width="272.78"/>
  <unicode hex="0127"/>
  <outline>
    <contour>
      <point x="56.82" y="620.37" type="line"/>
      <point x="206.45" y="620.37" type="line"/>
      <point x="210.53" y="642.66" type="line"/>
      <point x="60.9" y="642.66" type="line"/>
    </contour>
    <component base="h" xOffset="0.72"/>
  </outline>
</glyph>
<glyph name="Idotaccent" format="2">
  <advance width="116.82"/>
  <unicode hex="0130"/>
  <outline>
    <contour>
      <point x="149.94" y="849.91" type="curve" smooth="yes"/>
      <point x="130.0" y="849.91"/>
      <point x="127.21" y="841.52"/>
      <point x="124.48" y="813.47" type="curve" smooth="yes"/>
      <point x="123.57" y="801.42"/>
      <point x="130.46" y="799.08"/>
      <point x="140.33" y="799.08" type="curve" smooth="yes"/>
      <point x="160.36" y="799.08"/>
      <point x="163.06" y="807.65"/>
      <point x="165.79" y="835.61" type="curve" smooth="yes"/>
      <point x="166.7" y="847.66"/>
      <point x="159.72" y="849.91"/>
    </contour>
    <component base="I"/>
  </outline>
</glyph>
<glyph name="dotlessi" format="2">
  <advance width="120.92"/>
  <unicode hex="0131"/>
  <anchor x="16.05" y="0.0" name="bottom"/>
  <anchor x="32.44" y="0.0" name="ogonek"/>
  <anchor x="100.32" y="531.8" name="top"/>
  <outline>
    <contour>
      <point x="32.44" y="0.0" type="line"/>
      <point x="116.71" y="531.8" type="line"/>
      <point x="84.84" y="531.8" type="line"/>
      <point x="1.48" y="0.0" type="line"/>
    </contour>
  </outline>
</glyph>
<glyph name="kgreenlandic" format="2">
  <advance width="258.06"/>
  <unicode hex="0138"/>
  <anchor x="95.28" y="0.0" name="bottom"/>
  <anchor x="171.12" y="531.8" name="top"/>
  <outline>
    <contour>
      <point x="0.6600000000000001" y="0.0" type="line"/>
      <point x="31.799999999999997" y="0.0" type="line"/>
      <point x="115.98" y="531.8" type="line"/>
      <point x="84.84" y="531.8" type="line"/>
    </contour>
    <contour>
      <point x="214.48" y="-10.0" type="curve" smooth="yes"/>
      <point x="221.38" y="-10.0"/>
      <point x="228.28" y="-9.0"/>
      <point x="236.18" y="-5.64" type="curve"/>
      <point x="235.88" y="24.759999999999998" type="line"/>
      <point x="229.7" y="22.939999999999998"/>
      <point x="224.7" y="22.119999999999997"/>
      <point x="220.52" y="22.299999999999997" type="curve" smooth="yes"/>
      <point x="194.88" y="23.2"/>
      <point x="174.06" y="55.22"/>
      <point x="135.34" y="171.62" type="curve" smooth="yes"/>
      <point x="80.08" y="339.12" type="line"/>
      <point x="66.28" y="296.16" type="line"/>
      <point x="122.3" y="124.22" type="line" smooth="yes"/>
      <point x="156.12" y="20.08"/>
      <point x="178.76" y="-10.0"/>
    </contour>
    <contour>
      <point x="104.94" y="243.38" type="line"/>
      <point x="175.66" y="305.08"/>
      <point x="241.66" y="413.7"/>
      <point x="281.04" y="533.26" type="curve"/>
      <point x="251.98" y="540.98" type="line"/>
      <point x="210.5" y="417.96"/>
      <point x="158.86" y="333.02"/>
      <point x="92.56" y="271.56" type="curve"/>
    </contour>
  </outline>
</glyph>
<glyph name="Ldot" format="2">
  <advance width="211.53"/>
  <unicode hex="013F"/>
  <outline>
    <contour>
      <point x="156.38982" y="358.07658" type="curve" smooth="yes"/>
      <point x="154.56982" y="342.21718"/>
      <point x="156.79958" y="337.98751"/>
      <point x="170.77895" y="337.98751" type="curve" smooth="yes"/>
      <point x="186.79799" y="337.98751"/>
      <point x="189.14772" y="344.59631"/>
      <point x="190.96771999999999" y="363.05556" type="curve" smooth="yes"/>
      <point x="192.78772" y="377.88499"/>
      <point x="191.46796" y="383.02466"/>
      <point x="177.54853" y="383.02466" type="curve" smooth="yes"/>
      <point x="161.58952" y="383.02466"/>
      <point x="158.20982" y="376.53583"/>
    </contour>
    <component base="L"/>
  </outline>
</glyph>
<glyph name="ldot" format="2">
  <advance width="176.86"/>
  <unicode hex="0140"/>
  <outline>
    <contour>
      <point x="147.73389" y="356.31501000000003" type="curve" smooth="yes"/>
      <point x="145.91389" y="340.49746"/>
      <point x="148.11431" y="336.28786"/>
      <point x="162.02582" y="336.28786" type="curve" smooth="yes"/>
      <point x="177.93155000000002" y="336.28786"/>
      <point x="180.24933" y="342.82034"/>
      <point x="182.06933" y="361.2273" type="curve" smooth="yes"/>
      <point x="183.88933" y="376.0165"/>
      <point x="182.59891" y="381.1361"/>
      <point x="168.74608" y="381.1361" type="curve" smooth="yes"/>
      <point x="152.89894" y="381.1361"/>
      <point x="149.55389" y="374.72197"/>
    </contour>
    <component base="l"/>
  </outline>
</glyph>
<glyph name="Lslash" format="2">
  <advance width="219.33"/>
  <unicode hex="0141"/>
  <outline>
    <contour>
      <point x="4.0" y="0.0" type="line"/>
      <point x="168.97" y="0.0" type="line"/>
      <point x="173.95" y="31.509999999999998" type="line"/>
      <point x="40.76" y="31.509999999999998" type="line"/>
      <point x="80.5" y="279.95" type="line"/>
      <point x="194.62" y="380.92" type="line"/>
      <point x="200.87" y="419.88" type="line"/>
      <point x="86.57" y="318.82" type="line"/>
      <point x="146.87" y="700.0" type="line"/>
      <point x="115.09" y="700.0" type="line"/>
      <point x="50.89" y="293.24" type="line"/>
      <point x="6.8" y="254.86" type="line"/>
      <point x="-0.09" y="214.99" type="line"/>
      <point x="43.91" y="253.37" type="line"/>
    </contour>
  </outline>
</glyph>
<glyph name="lslash" format="2">
  <advance width="131.98"/>
  <unicode hex="0142"/>
  <outline>
    <contour>
      <point x="-3.09" y="196.7" type="line"/>
      <point x="148.98" y="351.5" type="line"/>
      <point x="154.78" y="390.48" type="line"/>
      <point x="2.62" y="235.68" type="line"/>
    </contour>
    <component base="l" xOffset="1.7999999999999998"/>
  </outline>
</glyph>
<glyph name="Eng" format="2">
  <advance width="303.79"/>
  <unicode hex="014A"/>
  <outline>
    <contour>
      <point x="-2.8899999999999997" y="0.0" type="line"/>
      <point x="27.45" y="0.0" type="line"/>
      <point x="124.5" y="620.06" type="line"/>
      <point x="187.54" y="1.92" type="line"/>
      <point x="178.99" y="-76.32"/>
      <point x="144.78" y="-102.34"/>
      <point x="94.1" y="-102.34" type="curve" smooth="yes"/>
      <point x="80.91" y="-102.34"/>
      <point x="66.9" y="-99.61"/>
      <point x="53.07" y="-95.06" type="curve"/>
      <point x="46.0" y="-129.64" type="line"/>
      <point x="63.19" y="-134.37"/>
      <point x="78.01" y="-136.19"/>
      <point x="92.19" y="-136.19" type="curve" smooth="yes"/>
      <point x="179.37" y="-135.65"/>
      <point x="206.6" y="-81.84"/>
      <point x="219.41" y="-1.44" type="curve" smooth="yes"/>
      <point x="330.59" y="700.0" type="line"/>
      <point x="300.25" y="700.0" type="line"/>
      <point x="204.39" y="85.89" type="line"/>
      <point x="143.71" y="700.0" type="line"/>
      <point x="107.2" y="700.0" type="line"/>
    </contour>
  </outline>
</glyph>
<glyph name="eng" format="2">
  <advance width="269.88"/>
  <unicode hex="014B"/>
  <outline>
    <contour>
      <point x="171.21" y="-62.9" type="curve" smooth="yes"/>
      <point x="248.65" y="434.68"/>
      <point x="255.31" y="476.49"/>
      <point x="255.31" y="482.65" type="curve" smooth="yes"/>
      <point x="255.31" y="517.08"/>
      <point x="233.59" y="541.8"/>
      <point x="193.24" y="541.8" type="curve" smooth="yes"/>
      <point x="167.43" y="541.8"/>
      <point x="134.98" y="530.07"/>
      <point x="112.0" y="514.91" type="curve"/>
      <point x="115.18" y="531.8" type="line"/>
      <point x="84.84" y="531.8" type="line"/>
      <point x="0.5700000000000003" y="0.0" type="line"/>
      <point x="31.53" y="0.0" type="line"/>
      <point x="109.09" y="486.28" type="line"/>
      <point x="127.83" y="500.38"/>
      <point x="159.13" y="511.48"/>
      <point x="176.96" y="511.48" type="curve" smooth="yes"/>
      <point x="208.53" y="511.48"/>
      <point x="222.45" y="497.47"/>
      <point x="222.45" y="470.54" type="curve" smooth="yes"/>
      <point x="222.45" y="466.54"/>
      <point x="222.27" y="461.82"/>
      <point x="140.61" y="-58.89" type="curve" smooth="yes"/>
      <point x="128.51" y="-135.22"/>
      <point x="107.95" y="-186.98"/>
      <point x="54.45" y="-186.98" type="curve" smooth="yes"/>
      <point x="45.26" y="-186.98"/>
      <point x="38.53" y="-186.07"/>
      <point x="29.16" y="-184.07" type="curve"/>
      <point x="21.009999999999998" y="-216.64" type="line"/>
      <point x="31.46" y="-218.82"/>
      <point x="43.0" y="-220.0"/>
      <point x="57.08" y="-220.0" type="curve" smooth="yes"/>
      <point x="119.99" y="-220.0"/>
      <point x="155.31" y="-168.9"/>
    </contour>
  </outline>
</glyph>
<glyph name="OE" format="2">
  <advance width="422.07"/>
  <unicode hex="0152"/>
  <outline>
    <contour>
      <point x="367.16" y="0.0" type="line"/>
      <point x="372.14" y="31.509999999999998" type="line"/>
      <point x="217.67" y="31.509999999999998" type="line"/>
      <point x="267.52" y="346.8" type="line"/>
      <point x="398.27" y="346.8" type="line"/>
      <point x="403.25" y="377.41" type="line"/>
      <point x="272.5" y="377.41" type="line"/>
      <point x="317.8" y="668.04" type="line"/>
      <point x="463.18" y="668.04" type="line"/>
      <point x="469.25" y="700.0" type="line"/>
      <point x="318.14" y="700.0" type="line"/>
      <point x="302.99" y="703.27"/>
      <point x="283.5" y="710.0"/>
      <point x="257.87" y="710.0" type="curve" smooth="yes"/>
      <point x="112.62" y="710.0"/>
      <point x="26.29" y="495.54"/>
      <point x="26.29" y="165.71" type="curve" smooth="yes"/>
      <point x="26.29" y="34.52"/>
      <point x="64.28" y="-10.0"/>
      <point x="151.69" y="-10.0" type="curve" smooth="yes"/>
      <point x="162.4" y="-10.0"/>
      <point x="184.65" y="-6.27"/>
      <point x="208.61" y="0.0" type="curve"/>
    </contour>
    <contour>
      <point x="184.8" y="26.42" type="line"/>
      <point x="170.7" y="21.689999999999998"/>
      <point x="159.24" y="20.689999999999998"/>
      <point x="150.51" y="20.689999999999998" type="curve" smooth="yes"/>
      <point x="76.72" y="20.689999999999998"/>
      <point x="58.07" y="69.9"/>
      <point x="58.07" y="172.98" type="curve" smooth="yes"/>
      <point x="58.07" y="470.18"/>
      <point x="138.47" y="679.59"/>
      <point x="254.73" y="679.59" type="curve" smooth="yes"/>
      <point x="270.74" y="679.59"/>
      <point x="280.29" y="674.95"/>
      <point x="286.93" y="673.13" type="curve"/>
    </contour>
  </outline>
</glyph>
<glyph name="oe" format="2">
  <advance width="431.94"/>
  <unicode hex="0153"/>
  <outline>
    <contour>
      <point x="92.56" y="-10.0" type="curve" smooth="yes"/>
      <point x="143.84" y="-10.0"/>
      <point x="180.02" y="56.06"/>
      <point x="201.66" y="138.78" type="curve"/>
      <point x="208.9" y="41.32"/>
      <point x="245.08" y="-10.0"/>
      <point x="305.82" y="-10.0" type="curve" smooth="yes"/>
      <point x="336.26" y="-10.0"/>
      <point x="366.6" y="-2.64"/>
      <point x="387.76" y="10.8" type="curve"/>
      <point x="378.78" y="39.58" type="line"/>
      <point x="353.7" y="27.04"/>
      <point x="332.62" y="20.86"/>
      <point x="310.44" y="20.86" type="curve" smooth="yes"/>
      <point x="259.14" y="20.86"/>
      <point x="227.76" y="75.0"/>
      <point x="227.76" y="169.94" type="curve" smooth="yes"/>
      <point x="227.76" y="367.66"/>
      <point x="289.16" y="512.56"/>
      <point x="367.94" y="512.56" type="curve" smooth="yes"/>
      <point x="400.24" y="512.56"/>
      <point x="412.7" y="490.9"/>
      <point x="412.7" y="454.52" type="curve" smooth="yes"/>
      <point x="412.7" y="394.04"/>
      <point x="369.4" y="332.54"/>
      <point x="307.28" y="296.34" type="curve" smooth="yes"/>
      <point x="282.54" y="282.06"/>
      <point x="255.44" y="271.78"/>
      <point x="226.34" y="266.5" type="curve"/>
      <point x="220.82" y="237.88" type="line"/>
      <point x="250.9" y="243.16"/>
      <point x="282.62" y="252.98"/>
      <point x="310.34" y="267.8" type="curve" smooth="yes"/>
      <point x="387.32" y="309.08"/>
      <point x="442.4" y="380.7"/>
      <point x="442.4" y="460.4" type="curve" smooth="yes"/>
      <point x="442.4" y="511.28"/>
      <point x="417.6" y="541.8"/>
      <point x="372.1" y="541.8" type="curve" smooth="yes"/>
      <point x="319.0" y="541.8"/>
      <point x="273.62" y="497.4"/>
      <point x="243.8" y="423.32" type="curve"/>
      <point x="243.1" y="507.5"/>
      <point x="227.86" y="540.98"/>
      <point x="166.4" y="540.98" type="curve" smooth="yes"/>
      <point x="49.26" y="540.98"/>
      <point x="12.46" y="226.4"/>
      <point x="12.46" y="101.94" type="curve" smooth="yes"/>
      <point x="12.46" y="9.96"/>
      <point x="39.08" y="-10.0"/>
    </contour>
    <contour>
      <point x="92.92" y="19.78" type="curve" smooth="yes"/>
      <point x="62.44" y="19.78"/>
      <point x="43.06" y="31.88"/>
      <point x="43.06" y="100.3" type="curve" smooth="yes"/>
      <point x="43.06" y="188.72"/>
      <point x="79.34" y="511.2"/>
      <point x="166.22" y="511.2" type="curve" smooth="yes"/>
      <point x="196.7" y="511.2"/>
      <point x="216.08" y="499.28"/>
      <point x="216.08" y="430.86" type="curve" smooth="yes"/>
      <point x="216.08" y="342.26"/>
      <point x="179.8" y="19.78"/>
    </contour>
  </outline>
</glyph>
<glyph name="uni0162" format="2">
  <advance width="230.78"/>
  <unicode hex="0162"/>
  <anchor x="71.43401" y="0.0" name="_bottom"/>
  <anchor x="29.68" y="-220.0" name="bottom"/>
  <outline>
    <contour>
      <point x="-4.11" y="-209.91" type="line"/>
      <point x="6.609999999999999" y="-217.82"/>
      <point x="19.15" y="-220.0"/>
      <point x="29.68" y="-220.0" type="curve" smooth="yes"/>
      <point x="76.01" y="-220.0"/>
      <point x="96.34" y="-161.82"/>
      <point x="96.34" y="-105.49" type="curve" smooth="yes"/>
      <point x="96.34" y="-70.12"/>
      <point x="91.52" y="-32.2"/>
      <point x="84.34" y="0.72" type="curve"/>
      <point x="59.32" y="0.63" type="line"/>
      <point x="66.23" y="-37.3"/>
      <point x="71.05" y="-71.96"/>
      <point x="71.05" y="-102.33" type="curve" smooth="yes"/>
      <point x="71.05" y="-159.35"/>
      <point x="53.6" y="-193.37"/>
      <point x="28.33" y="-193.37" type="curve" smooth="yes"/>
      <point x="20.06" y="-193.37"/>
      <point x="12.24" y="-190.55"/>
      <point x="4.97" y="-185.73" type="curve"/>
    </contour>
    <component base="T"/>
  </outline>
</glyph>
<glyph name="Tbar" format="2">
  <advance width="234.42"/>
  <unicode hex="0166"/>
  <outline>
    <contour>
      <point x="291.26" y="669.03" type="line"/>
      <point x="296.24" y="700.0" type="line"/>
      <point x="72.27" y="700.0" type="line"/>
      <point x="67.29" y="669.03" type="line"/>
      <point x="163.02" y="669.03" type="line"/>
      <point x="118.18" y="391.53" type="line"/>
      <point x="41.79" y="391.53" type="line"/>
      <point x="36.45" y="361.3" type="line"/>
      <point x="114.02" y="361.3" type="line"/>
      <point x="56.82" y="0.0" type="line"/>
      <point x="88.51" y="0.0" type="line"/>
      <point x="145.71" y="361.3" type="line"/>
      <point x="225.01" y="361.3" type="line"/>
      <point x="230.35" y="391.53" type="line"/>
      <point x="150.78" y="391.53" type="line"/>
      <point x="194.71" y="669.03" type="line"/>
    </contour>
  </outline>
</glyph>
<glyph name="tbar" format="2">
  <advance width="170.92"/>
  <unicode hex="0167"/>
  <outline>
    <contour>
      <point x="13.2" y="308.07" type="line"/>
      <point x="183.04" y="308.07" type="line"/>
      <point x="187.75" y="335.7" type="line"/>
      <point x="17.82" y="335.7" type="line"/>
    </contour>
    <contour>
      <point x="135.55" y="26.869999999999997" type="line"/>
      <point x="123.91" y="23.96"/>
      <point x="112.53999999999999" y="22.049999999999997"/>
      <point x="102.99" y="22.049999999999997" type="curve" smooth="yes"/>
      <point x="68.52" y="22.049999999999997"/>
      <point x="53.51" y="39.6"/>
      <point x="53.51" y="77.44" type="curve" smooth="yes"/>
      <point x="53.51" y="88.99"/>
      <point x="55.42" y="101.53999999999999"/>
      <point x="57.33" y="116.91" type="curve" smooth="yes"/>
      <point x="118.45" y="501.01" type="line"/>
      <point x="215.68" y="501.01" type="line"/>
      <point x="220.75" y="531.8" type="line"/>
      <point x="123.52" y="531.8" type="line"/>
      <point x="144.07" y="664.01" type="line"/>
      <point x="118.73" y="664.01" type="line"/>
      <point x="91.74" y="531.8" type="line"/>
      <point x="42.27" y="525.8" type="line"/>
      <point x="38.2" y="501.1" type="line"/>
      <point x="86.67" y="501.1" type="line"/>
      <point x="25.28" y="115.02" type="line" smooth="yes"/>
      <point x="22.1" y="96.76"/>
      <point x="20.74" y="78.24"/>
      <point x="20.74" y="63.43" type="curve" smooth="yes"/>
      <point x="20.74" y="17.83"/>
      <point x="39.34" y="-10.0"/>
      <point x="91.17" y="-10.0" type="curve" smooth="yes"/>
      <point x="105.6" y="-10.0"/>
      <point x="121.4" y="-7.46"/>
      <point x="138.3" y="-1.3800000000000001" type="curve"/>
    </contour>
  </outline>
</glyph>
<glyph name="uogonek" format="2">
  <advance width="277.34"/>
  <unicode hex="0173"/>
  <outline>
    <contour>
      <point x="180.54" y="-218.65" type="curve" smooth="yes"/>
      <point x="195.26" y="-218.65"/>
      <point x="207.98" y="-213.56"/>
      <point x="216.15" y="-206.47" type="curve"/>
      <point x="212.86" y="-182.49" type="line"/>
      <point x="207.4" y="-186.13"/>
      <point x="199.49" y="-189.95"/>
      <point x="189.76" y="-189.95" type="curve" smooth="yes"/>
      <point x="177.94" y="-189.95"/>
      <point x="170.3" y="-179.31"/>
      <point x="170.3" y="-160.21" type="curve" smooth="yes"/>
      <point x="170.3" y="-120.01"/>
      <point x="198.04" y="-59.61"/>
      <point x="245.26" y="1.3499999999999999" type="curve"/>
      <point x="242.69" y="26.96" type="line"/>
      <point x="231.5" y="22.32"/>
      <point x="220.22" y="19.59"/>
      <point x="213.67" y="19.59" type="curve" smooth="yes"/>
      <point x="197.57" y="19.59"/>
      <point x="193.66" y="29.14"/>
      <point x="193.66" y="40.14" type="curve" smooth="yes"/>
      <point x="193.66" y="50.6"/>
      <point x="196.48" y="70.43"/>
      <point x="270.04" y="531.8" type="curve"/>
      <point x="238.44" y="531.8" type="line"/>
      <point x="162.61" y="48.980000000000004" type="line"/>
      <point x="137.5" y="29.42"/>
      <point x="105.38" y="20.14"/>
      <point x="89.28" y="20.14" type="curve" smooth="yes"/>
      <point x="62.17" y="20.14"/>
      <point x="48.16" y="36.24"/>
      <point x="48.34" y="61.71" type="curve" smooth="yes"/>
      <point x="49.96" y="84.89"/>
      <point x="53.85" y="107.86"/>
      <point x="120.17" y="531.8" type="curve"/>
      <point x="88.48" y="531.8" type="line"/>
      <point x="38.02" y="219.22"/>
      <point x="16.57" y="95.22"/>
      <point x="16.57" y="51.24" type="curve" smooth="yes"/>
      <point x="16.57" y="12.8"/>
      <point x="41.11" y="-10.0"/>
      <point x="79.45" y="-10.0" type="curve" smooth="yes"/>
      <point x="107.62" y="-10.0"/>
      <point x="133.62" y="0.63"/>
      <point x="163.25" y="22.34" type="curve"/>
      <point x="166.88" y="0.53"/>
      <point x="182.5" y="-10.0"/>
      <point x="203.48" y="-10.0" type="curve" smooth="yes"/>
      <point x="208.92" y="-10.0"/>
      <point x="214.55" y="-6.75"/>
      <point x="218.84" y="-3.59" type="curve"/>
      <point x="172.4" y="-64.61"/>
      <point x="140.78" y="-120.34"/>
      <point x="140.78" y="-171.42" type="curve" smooth="yes"/>
      <point x="140.78" y="-198.84"/>
      <point x="156.3" y="-218.65"/>
    </contour>
  </outline>
</glyph>
<glyph name="longs" format="2">
  <advance width="139.18"/>
  <unicode hex="017F"/>
  <outline>
    <contour>
      <point x="-74.68" y="-220.0" type="curve" smooth="yes"/>
      <point x="-7.09" y="-220.0"/>
      <point x="24.16" y="-165.56"/>
      <point x="39.97" y="-64.61" type="curve" smooth="yes"/>
      <point x="127.61" y="488.05" type="line" smooth="yes"/>
      <point x="153.72" y="654.26"/>
      <point x="185.56" y="717.68"/>
      <point x="243.78" y="717.68" type="curve" smooth="yes"/>
      <point x="256.51" y="717.68"/>
      <point x="271.24" y="714.68"/>
      <point x="283.33" y="711.5" type="curve"/>
      <point x="294.02" y="741.02" type="line"/>
      <point x="276.85" y="747.01"/>
      <point x="261.41" y="750.0"/>
      <point x="245.99" y="750.0" type="curve" smooth="yes"/>
      <point x="168.18" y="750.0"/>
      <point x="124.93" y="676.91"/>
      <point x="95.74" y="488.05" type="curve"/>
      <point x="39.45" y="481.96" type="line"/>
      <point x="35.47" y="457.26" type="line"/>
      <point x="90.85" y="457.26" type="line"/>
      <point x="9.46" y="-57.63" type="line" smooth="yes"/>
      <point x="-3.0" y="-136.03"/>
      <point x="-22.55" y="-188.98"/>
      <point x="-77.04" y="-188.98" type="curve" smooth="yes"/>
      <point x="-91.32" y="-188.98"/>
      <point x="-101.96" y="-187.16"/>
      <point x="-117.78" y="-182.16" type="curve"/>
      <point x="-126.28" y="-212.01" type="line"/>
      <point x="-110.75" y="-217.64"/>
      <point x="-94.49" y="-220.0"/>
    </contour>
  </outline>
</glyph>
<glyph name="uni018F" format="2">
  <advance width="292.98"/>
  <unicode hex="018F"/>
  <outline>
    <contour>
      <point x="85.12" y="-10.0" type="curve" smooth="yes"/>
      <point x="199.34" y="-10.0"/>
      <point x="292.34" y="233.26"/>
      <point x="292.34" y="528.7" type="curve" smooth="yes"/>
      <point x="292.34" y="666.68"/>
      <point x="252.18" y="710.0"/>
      <point x="183.5" y="710.0" type="curve" smooth="yes"/>
      <point x="143.62" y="710.0"/>
      <point x="100.54" y="698.82"/>
      <point x="64.2" y="677.56" type="curve"/>
      <point x="74.72" y="648.42" type="line"/>
      <point x="107.72" y="665.96"/>
      <point x="138.26" y="677.78"/>
      <point x="175.08" y="677.78" type="curve" smooth="yes"/>
      <point x="245.84" y="677.78"/>
      <point x="260.56" y="623.38"/>
      <point x="260.56" y="514.46" type="curve" smooth="yes"/>
      <point x="260.56" y="257.12"/>
      <point x="179.42" y="22.04"/>
      <point x="88.82" y="22.04" type="curve" smooth="yes"/>
      <point x="48.980000000000004" y="22.04"/>
      <point x="26.6" y="54.6"/>
      <point x="26.6" y="111.53999999999999" type="curve" smooth="yes"/>
      <point x="26.6" y="246.7"/>
      <point x="99.36" y="344.86"/>
      <point x="217.08" y="344.86" type="curve" smooth="yes"/>
      <point x="227.9" y="344.86"/>
      <point x="240.36" y="344.04"/>
      <point x="253.82" y="343.04" type="curve"/>
      <point x="256.18" y="373.82" type="line"/>
      <point x="245.54" y="375.64"/>
      <point x="235.72" y="375.64"/>
      <point x="224.9" y="375.64" type="curve" smooth="yes"/>
      <point x="80.36" y="375.64"/>
      <point x="-5.0" y="265.54"/>
      <point x="-5.0" y="105.66" type="curve" smooth="yes"/>
      <point x="-5.0" y="34.24"/>
      <point x="29.16" y="-10.0"/>
    </contour>
  </outline>
</glyph>
<glyph name="florin" format="2">
  <advance width="265.3"/>
  <unicode hex="0192"/>
  <outline>
    <contour>
      <point x="149.14" y="356.46" type="line"/>
      <point x="213.8" y="356.46" type="line"/>
      <point x="218.69" y="386.34" type="line"/>
      <point x="154.03" y="386.34" type="line"/>
      <point x="164.12" y="447.24" type="line" smooth="yes"/>
      <point x="190.14" y="612.46"/>
      <point x="213.7" y="677.24"/>
      <point x="261.0" y="677.24" type="curve" smooth="yes"/>
      <point x="271.0" y="677.24"/>
      <point x="278.91" y="675.24"/>
      <point x="289.18" y="671.15" type="curve"/>
      <point x="301.5" y="701.02" type="line"/>
      <point x="287.97" y="707.01"/>
      <point x="275.26" y="710.0"/>
      <point x="261.66" y="710.0" type="curve" smooth="yes"/>
      <point x="196.59" y="710.0"/>
      <point x="165.44" y="648.74"/>
      <point x="133.43" y="449.4" type="curve" smooth="yes"/>
      <point x="122.98" y="386.34" type="line"/>
      <point x="65.78" y="385.71" type="line"/>
      <point x="60.89" y="356.46" type="line"/>
      <point x="118.09" y="356.46" type="line"/>
      <point x="29.44" y="-210.0" type="line"/>
      <point x="60.49" y="-210.0" type="line"/>
    </contour>
  </outline>
</glyph>
<glyph name="uni0237" format="2">
  <advance width="130.11"/>
  <unicode hex="0237"/>
  <anchor x="-80.6" y="-210.0" name="bottom"/>
  <anchor x="109.42" y="531.8" name="top"/>
  <outline>
    <contour>
      <point x="125.99" y="531.8" type="line"/>
      <point x="94.03" y="531.8" type="line"/>
      <point x="1.02" y="-57.269999999999996" type="line" smooth="yes"/>
      <point x="-11.44" y="-135.67"/>
      <point x="-32.72" y="-187.34"/>
      <point x="-87.21" y="-187.34" type="curve" smooth="yes"/>
      <point x="-101.58" y="-187.34"/>
      <point x="-112.22" y="-185.52"/>
      <point x="-127.95" y="-180.52" type="curve"/>
      <point x="-136.0" y="-212.19" type="line"/>
      <point x="-120.47" y="-217.82"/>
      <point x="-103.58" y="-220.0"/>
      <point x="-84.22" y="-220.0" type="curve" smooth="yes"/>
      <point x="-16.630000000000003" y="-220.0"/>
      <point x="15.719999999999999" y="-166.56"/>
      <point x="31.619999999999997" y="-64.16" type="curve" smooth="yes"/>
    </contour>
  </outline>
</glyph>
<glyph name="uni0259" format="2">
  <advance width="261.62"/>
  <unicode hex="0259"/>
  <outline>
    <contour>
      <point x="218.98" y="273.66" type="curve"/>
      <point x="221.68" y="300.38" type="line"/>
      <point x="188.96" y="295.1"/>
      <point x="151.78" y="285.28"/>
      <point x="121.24" y="267.82" type="curve" smooth="yes"/>
      <point x="44.26" y="226.36"/>
      <point x="-10.82" y="155.74"/>
      <point x="-10.82" y="72.4" type="curve" smooth="yes"/>
      <point x="-10.82" y="22.52"/>
      <point x="13.98" y="-10.0"/>
      <point x="63.3" y="-10.0" type="curve" smooth="yes"/>
      <point x="169.42" y="-10.0"/>
      <point x="240.7" y="165.72"/>
      <point x="240.7" y="384.76" type="curve" smooth="yes"/>
      <point x="240.7" y="507.02"/>
      <point x="196.62" y="541.8"/>
      <point x="140.22" y="541.8" type="curve" smooth="yes"/>
      <point x="103.42" y="541.8"/>
      <point x="75.08" y="532.44"/>
      <point x="56.56" y="521.18" type="curve"/>
      <point x="65.54" y="492.76" type="line"/>
      <point x="86.98" y="503.48"/>
      <point x="107.06" y="511.3"/>
      <point x="133.06" y="511.3" type="curve" smooth="yes"/>
      <point x="173.44" y="511.3"/>
      <point x="211.28" y="486.92"/>
      <point x="211.28" y="382.06" type="curve" smooth="yes"/>
      <point x="211.28" y="184.34"/>
      <point x="146.42" y="18.88"/>
      <point x="67.64" y="18.88" type="curve" smooth="yes"/>
      <point x="31.34" y="18.88"/>
      <point x="19.06" y="43.44"/>
      <point x="19.06" y="78.28" type="curve" smooth="yes"/>
      <point x="19.06" y="142.4"/>
      <point x="62.36" y="204.8"/>
      <point x="124.3" y="241.0" type="curve" smooth="yes"/>
      <point x="151.86" y="257.92"/>
      <point x="184.42" y="268.38"/>
    </contour>
  </outline>
</glyph>
<glyph name="gravecomb" format="2">
  <unicode hex="0300"/>
  <anchor x="-87.47" y="531.8" name="_top"/>
  <anchor x="-92.76" y="717.11" name="top"/>
  <outline>
    <contour>
      <point x="-86.34" y="595.91" type="line"/>
      <point x="-60.71" y="595.91" type="line"/>
      <point x="-99.37" y="789.91" type="line"/>
      <point x="-132.06" y="789.91" type="line"/>
    </contour>
  </outline>
</glyph>
<glyph name="acutecomb" format="2">
  <unicode hex="0301"/>
  <anchor x="-87.47" y="531.8" name="_top"/>
  <anchor x="-24.38" y="717.11" name="top"/>
  <outline>
    <contour>
      <point x="-96.41" y="595.91" type="line"/>
      <point x="-70.51" y="595.91" type="line"/>
      <point x="38.4" y="789.91" type="line"/>
      <point x="4.260000000000002" y="789.91" type="line"/>
    </contour>
  </outline>
</glyph>
<glyph name="uni0302" format="2">
  <unicode hex="0302"/>
  <anchor x="-87.47" y="531.8" name="_top"/>
  <anchor x="-52.29" y="746.42" name="top"/>
  <anchor x="24.43" y="670.11" name="top_viet"/>
  <outline>
    <contour>
      <point x="-152.49" y="595.91" type="line"/>
      <point x="-125.96" y="595.91" type="line"/>
      <point x="-49.730000000000004" y="761.78" type="line"/>
      <point x="-26.79" y="595.91" type="line"/>
      <point x="-1.17" y="595.91" type="line"/>
      <point x="-29.54" y="789.91" type="line"/>
      <point x="-62.85" y="789.91" type="line"/>
    </contour>
  </outline>
</glyph>
<glyph name="tildecomb" format="2">
  <unicode hex="0303"/>
  <anchor x="-87.56" y="531.8" name="_top"/>
  <anchor x="-71.58" y="628.22" name="top"/>
  <outline>
    <contour>
      <point x="-156.4" y="603.28" type="curve"/>
      <point x="-134.02" y="603.28" type="line"/>
      <point x="-134.02" y="605.92"/>
      <point x="-134.02" y="610.1"/>
      <point x="-134.02" y="612.74" type="curve" smooth="yes"/>
      <point x="-134.02" y="657.78"/>
      <point x="-118.92" y="691.24"/>
      <point x="-99.28" y="691.24" type="curve" smooth="yes"/>
      <point x="-67.52" y="691.24"/>
      <point x="-82.56" y="603.82"/>
      <point x="-38.48" y="603.82" type="curve" smooth="yes"/>
      <point x="-1.5" y="603.82"/>
      <point x="20.48" y="650.74"/>
      <point x="21.92" y="716.44" type="curve" smooth="yes"/>
      <point x="22.1" y="719.7"/>
      <point x="22.28" y="722.14"/>
      <point x="22.46" y="725.58" type="curve"/>
      <point x="0.08000000000000007" y="725.58" type="line"/>
      <point x="0.08000000000000007" y="722.76"/>
      <point x="-0.09999999999999964" y="719.86"/>
      <point x="-0.09999999999999964" y="717.4" type="curve" smooth="yes"/>
      <point x="-0.6400000000000006" y="692.48"/>
      <point x="-7.92" y="632.98"/>
      <point x="-34.76" y="632.98" type="curve" smooth="yes"/>
      <point x="-63.6" y="632.98"/>
      <point x="-47.1" y="718.58"/>
      <point x="-96.46" y="718.58" type="curve" smooth="yes"/>
      <point x="-131.98" y="718.58"/>
      <point x="-154.42" y="678.04"/>
      <point x="-155.86" y="619.52" type="curve" smooth="yes"/>
      <point x="-156.04" y="614.62"/>
      <point x="-156.22" y="608.54"/>
    </contour>
  </outline>
</glyph>
<glyph name="uni0304" format="2">
  <unicode hex="0304"/>
  <anchor x="-87.56" y="531.8" name="_top"/>
  <anchor x="-59.2" y="709.5" name="top"/>
  <outline>
    <contour>
      <point x="-134.68" y="677.44" type="line"/>
      <point x="6.5" y="677.44" type="line"/>
      <point x="11.120000000000001" y="707.7" type="line"/>
      <point x="-130.06" y="707.7" type="line"/>
    </contour>
  </outline>
</glyph>
<glyph name="uni0306" format="2">
  <unicode hex="0306"/>
  <anchor x="-87.47" y="531.8" name="_top"/>
  <anchor x="-60.93" y="701.94" name="top"/>
  <outline>
    <contour>
      <point x="-76.01" y="603.64" type="curve" smooth="yes"/>
      <point x="-16.79" y="603.64"/>
      <point x="12.83" y="641.0"/>
      <point x="24.01" y="729.41" type="curve"/>
      <point x="1.08" y="729.41" type="line"/>
      <point x="-6.56" y="667.19"/>
      <point x="-31.67" y="630.36"/>
      <point x="-71.48" y="630.36" type="curve" smooth="yes"/>
      <point x="-104.2" y="630.36"/>
      <point x="-118.57" y="650.91"/>
      <point x="-118.57" y="691.57" type="curve" smooth="yes"/>
      <point x="-118.57" y="706.49"/>
      <point x="-117.66" y="717.68"/>
      <point x="-114.75" y="729.41" type="curve"/>
      <point x="-136.77" y="729.41" type="line"/>
      <point x="-140.04" y="716.79"/>
      <point x="-142.13" y="697.16"/>
      <point x="-142.13" y="679.89" type="curve" smooth="yes"/>
      <point x="-142.13" y="625.74"/>
      <point x="-119.98" y="603.64"/>
    </contour>
  </outline>
</glyph>
<glyph name="uni0307" format="2">
  <unicode hex="0307"/>
  <anchor x="-87.47" y="531.8" name="_top"/>
  <anchor x="-69.67" y="642.53" name="top"/>
  <outline>
    <contour>
      <point x="-66.0" y="668.17" type="curve" smooth="yes"/>
      <point x="-48.32" y="668.17"/>
      <point x="-42.97" y="684.12"/>
      <point x="-42.97" y="699.72" type="curve" smooth="yes"/>
      <point x="-42.97" y="710.96"/>
      <point x="-46.95" y="716.59"/>
      <point x="-59.019999999999996" y="716.59" type="curve" smooth="yes"/>
      <point x="-75.7" y="716.59"/>
      <point x="-81.14" y="699.55"/>
      <point x="-81.14" y="683.13" type="curve" smooth="yes"/>
      <point x="-81.14" y="672.8"/>
      <point x="-76.25" y="668.17"/>
    </contour>
  </outline>
</glyph>
<glyph name="uni0308" format="2">
  <unicode hex="0308"/>
  <anchor x="-87.47" y="531.8" name="_top"/>
  <anchor x="-70.21" y="642.53" name="top"/>
  <outline>
    <contour>
      <point x="-16.939999999999998" y="668.71" type="curve" smooth="yes"/>
      <point x="-3.33" y="668.71"/>
      <point x="3.01" y="680.16"/>
      <point x="4.0" y="698.29" type="curve" smooth="yes"/>
      <point x="5.08" y="711.05"/>
      <point x="1.1" y="717.13"/>
      <point x="-9.78" y="717.13" type="curve" smooth="yes"/>
      <point x="-23.3" y="717.13"/>
      <point x="-29.73" y="703.77"/>
      <point x="-30.810000000000002" y="685.55" type="curve" smooth="yes"/>
      <point x="-31.799999999999997" y="673.79"/>
      <point x="-27.549999999999997" y="668.71"/>
    </contour>
    <contour>
      <point x="-116.78999999999999" y="668.71" type="curve" smooth="yes"/>
      <point x="-103.18" y="668.71"/>
      <point x="-96.75" y="680.16"/>
      <point x="-95.76" y="698.29" type="curve" smooth="yes"/>
      <point x="-94.68" y="711.05"/>
      <point x="-98.93" y="717.13"/>
      <point x="-109.63" y="717.13" type="curve" smooth="yes"/>
      <point x="-124.06" y="717.13"/>
      <point x="-129.49" y="701.04"/>
      <point x="-130.57" y="685.55" type="curve" smooth="yes"/>
      <point x="-131.56" y="673.79"/>
      <point x="-127.58" y="668.71"/>
    </contour>
  </outline>
</glyph>
<glyph name="hookabovecomb" format="2">
  <unicode hex="0309"/>
  <anchor x="-87.56" y="531.8" name="_top"/>
  <anchor x="-43.0" y="795.08" name="top"/>
  <outline>
    <contour>
      <point x="-79.98" y="606.74" type="line"/>
      <point x="-21.5" y="650.16"/>
      <point x="1.4000000000000004" y="691.62"/>
      <point x="1.4000000000000004" y="735.32" type="curve" smooth="yes"/>
      <point x="1.4000000000000004" y="771.94"/>
      <point x="-19.4" y="794.0"/>
      <point x="-50.44" y="794.0" type="curve" smooth="yes"/>
      <point x="-68.98" y="794.0"/>
      <point x="-87.98" y="787.54"/>
      <point x="-104.34" y="768.06" type="curve"/>
      <point x="-94.5" y="747.26" type="line"/>
      <point x="-80.78" y="761.92"/>
      <point x="-68.68" y="766.38"/>
      <point x="-55.68" y="766.38" type="curve" smooth="yes"/>
      <point x="-38.32" y="766.38"/>
      <point x="-26.86" y="752.28"/>
      <point x="-26.86" y="730.26" type="curve" smooth="yes"/>
      <point x="-26.86" y="698.6"/>
      <point x="-44.78" y="662.9"/>
      <point x="-89.72" y="624.84" type="curve"/>
    </contour>
  </outline>
</glyph>
<glyph name="uni030A" format="2">
  <unicode hex="030A"/>
  <anchor x="-87.47" y="531.8" name="_top"/>
  <anchor x="-54.019999999999996" y="743.59" name="top"/>
  <outline>
    <contour>
      <point x="-72.2" y="614.3" type="curve" smooth="yes"/>
      <point x="-33.87" y="614.3"/>
      <point x="-4.24" y="651.38"/>
      <point x="-4.24" y="713.19" type="curve" smooth="yes"/>
      <point x="-4.24" y="754.63"/>
      <point x="-21.31" y="775.52"/>
      <point x="-50.37" y="775.52" type="curve" smooth="yes"/>
      <point x="-89.61" y="775.52"/>
      <point x="-118.33" y="737.53"/>
      <point x="-118.33" y="673.9" type="curve" smooth="yes"/>
      <point x="-118.33" y="634.28"/>
      <point x="-101.26" y="614.3"/>
    </contour>
    <contour>
      <point x="-69.2" y="637.42" type="curve" smooth="yes"/>
      <point x="-85.75" y="637.42"/>
      <point x="-94.39" y="649.97"/>
      <point x="-94.39" y="670.89" type="curve" smooth="yes"/>
      <point x="-94.39" y="720.56"/>
      <point x="-77.38" y="752.4"/>
      <point x="-53.37" y="752.4" type="curve" smooth="yes"/>
      <point x="-36.82" y="752.4"/>
      <point x="-28.18" y="738.94"/>
      <point x="-28.18" y="717.11" type="curve" smooth="yes"/>
      <point x="-28.18" y="668.35"/>
      <point x="-46.1" y="637.42"/>
    </contour>
  </outline>
</glyph>
<glyph name="uni030B" format="2">
  <unicode hex="030B"/>
  <anchor x="-87.47" y="531.8" name="_top"/>
  <anchor x="-15.82" y="789.91" name="top"/>
  <outline>
    <contour>
      <point x="-57.1" y="595.91" type="line"/>
      <point x="-33.36" y="595.91" type="line"/>
      <point x="70.93" y="789.91" type="line"/>
      <point x="40.76" y="789.91" type="line"/>
    </contour>
    <contour>
      <point x="-133.57" y="595.91" type="line"/>
      <point x="-109.83" y="595.91" type="line"/>
      <point x="-5.539999999999999" y="789.91" type="line"/>
      <point x="-35.8" y="789.91" type="line"/>
    </contour>
  </outline>
</glyph>
<glyph name="uni030F" format="2">
  <unicode hex="030F"/>
  <anchor x="-87.47" y="531.8" name="_top"/>
  <anchor x="-87.65" y="789.91" name="top"/>
  <outline>
    <contour>
      <point x="-124.84" y="595.91" type="line"/>
      <point x="-101.01" y="595.91" type="line"/>
      <point x="-130.57" y="789.91" type="line"/>
      <point x="-161.46" y="789.91" type="line"/>
    </contour>
    <contour>
      <point x="-48.65" y="595.91" type="line"/>
      <point x="-24.82" y="595.91" type="line"/>
      <point x="-54.38" y="789.91" type="line"/>
      <point x="-85.27" y="789.91" type="line"/>
    </contour>
  </outline>
</glyph>
<glyph name="uni0312" format="2">
  <unicode hex="0312"/>
  <anchor x="-87.47" y="531.8" name="_top"/>
  <outline>
    <contour>
      <point x="-60.62" y="594.73" type="line"/>
      <point x="-62.44" y="604.73"/>
      <point x="-62.44" y="615.82"/>
      <point x="-62.17" y="627.36" type="curve" smooth="yes"/>
      <point x="-61.72" y="676.65"/>
      <point x="-45.81" y="734.49"/>
      <point x="-20.63" y="785.41" type="curve"/>
      <point x="-44.82" y="785.41" type="line"/>
      <point x="-72.08" y="735.49"/>
      <point x="-89.16" y="673.47"/>
      <point x="-89.52" y="623.2" type="curve" smooth="yes"/>
      <point x="-89.52" y="612.83"/>
      <point x="-89.52" y="603.28"/>
      <point x="-87.7" y="594.73" type="curve"/>
    </contour>
  </outline>
</glyph>
<glyph name="uni031B" format="2">
  <unicode hex="031B"/>
  <anchor x="-43.22" y="531.8" name="_topright"/>
  <anchor x="81.0" y="682.3" name="topright"/>
  <outline>
    <contour>
      <point x="-54.0" y="505.44" type="line"/>
      <point x="-45.92" y="505.44" type="line" smooth="yes"/>
      <point x="19.58" y="505.44"/>
      <point x="55.82" y="583.36"/>
      <point x="36.52" y="681.48" type="curve"/>
      <point x="6.9" y="678.66" type="line"/>
      <point x="25.200000000000003" y="597.3"/>
      <point x="1.2800000000000011" y="531.8"/>
      <point x="-46.64" y="531.8" type="curve" smooth="yes"/>
      <point x="-56.82" y="531.8" type="line"/>
    </contour>
  </outline>
</glyph>
<glyph name="uni0326" format="2">
  <unicode hex="0326"/>
  <anchor x="-172.57" y="0.0" name="_bottom"/>
  <anchor x="-229.95" y="-216.94" name="bottom"/>
  <outline>
    <contour>
      <point x="-199.52" y="-69.94" type="line"/>
      <point x="-199.52" y="-79.94"/>
      <point x="-200.52" y="-90.94"/>
      <point x="-202.52" y="-101.94" type="curve" smooth="yes"/>
      <point x="-208.7" y="-137.75"/>
      <point x="-220.61" y="-174.47"/>
      <point x="-245.7" y="-218.74" type="curve"/>
      <point x="-218.24" y="-218.74" type="line"/>
      <point x="-195.62" y="-181.47"/>
      <point x="-180.9" y="-146.58"/>
      <point x="-173.18" y="-100.14" type="curve" smooth="yes"/>
      <point x="-171.27" y="-88.86"/>
      <point x="-170.27" y="-78.49"/>
      <point x="-170.27" y="-69.94" type="curve"/>
    </contour>
  </outline>
</glyph>
<glyph name="uni0327" format="2">
  <unicode hex="0327"/>
  <anchor x="-172.66" y="0.0" name="_bottom"/>
  <anchor x="-214.28" y="-220.0" name="bottom"/>
  <outline>
    <contour>
      <point x="-248.16" y="-210.0" type="line"/>
      <point x="-237.44" y="-217.82"/>
      <point x="-224.9" y="-220.0"/>
      <point x="-214.28" y="-220.0" type="curve" smooth="yes"/>
      <point x="-168.04" y="-220.0"/>
      <point x="-147.62" y="-161.82"/>
      <point x="-147.62" y="-105.58" type="curve" smooth="yes"/>
      <point x="-147.62" y="-70.12"/>
      <point x="-152.44" y="-32.2"/>
      <point x="-160.62" y="0.72" type="curve"/>
      <point x="-185.64" y="0.72" type="line"/>
      <point x="-177.82" y="-37.3"/>
      <point x="-173.0" y="-71.96"/>
      <point x="-173.0" y="-102.42" type="curve" smooth="yes"/>
      <point x="-173.0" y="-159.44"/>
      <point x="-190.36" y="-193.46"/>
      <point x="-215.72" y="-193.46" type="curve" smooth="yes"/>
      <point x="-223.9" y="-193.46"/>
      <point x="-231.72" y="-190.64"/>
      <point x="-239.08" y="-185.82" type="curve"/>
    </contour>
  </outline>
</glyph>
<glyph name="uni0328" format="2">
  <unicode hex="0328"/>
  <anchor x="-160.26" y="0.0" name="_ogonek"/>
  <outline>
    <contour>
      <point x="-184.1" y="0.8999999999999999" type="line"/>
      <point x="-238.84" y="-72.68"/>
      <point x="-264.74" y="-127.14"/>
      <point x="-264.74" y="-172.86" type="curve" smooth="yes"/>
      <point x="-264.74" y="-201.1"/>
      <point x="-248.4" y="-220.0"/>
      <point x="-224.98" y="-220.0" type="curve" smooth="yes"/>
      <point x="-210.26" y="-220.0"/>
      <point x="-197.54" y="-215.0"/>
      <point x="-189.46" y="-207.82" type="curve"/>
      <point x="-192.66" y="-183.84" type="line"/>
      <point x="-200.94" y="-188.48"/>
      <point x="-207.94" y="-191.3"/>
      <point x="-215.76" y="-191.3" type="curve" smooth="yes"/>
      <point x="-227.58" y="-191.3"/>
      <point x="-235.22" y="-179.84"/>
      <point x="-235.22" y="-161.56" type="curve" smooth="yes"/>
      <point x="-235.22" y="-120.54"/>
      <point x="-206.66" y="-60.14"/>
      <point x="-160.26" y="0.0" type="curve"/>
    </contour>
  </outline>
</glyph>
<glyph name="uni0335" format="2">
  <unicode hex="0335"/>
  <anchor x="-45.32" y="350.0" name="_center"/>
  <outline>
    <contour>
      <point x="-146.81" y="333.52" type="line"/>
      <point x="50.1" y="333.52" type="line"/>
      <point x="56.08" y="366.48" type="line"/>
      <point x="-140.83" y="366.48" type="line"/>
    </contour>
  </outline>
</glyph>
